<svg xmlns:dc="http://purl.org/dc/elements/1.1/" xmlns:cc="http://creativecommons.org/ns#" xmlns:svg="http://www.w3.org/2000/svg" xmlns="http://www.w3.org/2000/svg" xmlns:xlink="http://www.w3.org/1999/xlink" style="overflow:visible" xml:space="preserve" id="smart-robot" viewBox="0 0 116 116" height="128" width="128" version="1.0">
<defs id="defs3772">
  <linearGradient gradientTransform="translate(229.83849,405.96228)" gradientUnits="userSpaceOnUse" xlink:href="#XMLID_4_" id="linearGradient11390" y2="4.8821697" x2="92.612343" y1="14.124305" x1="77.040016"/>
  <linearGradient gradientTransform="matrix(0.9428,-0.2511,-0.2421,-0.9089,6.0921912,215.38258)" gradientUnits="userSpaceOnUse" id="rect22846_1_" y2="-288.60791" x2="261.97269" y1="-288.60791" x1="247.60249">
    <stop offset="0" style="stop-color:#888888;stop-opacity:1" id="stop135"/>
    <stop offset="1" style="stop-color:#555555;stop-opacity:1" id="stop137"/>
  </linearGradient>
  <linearGradient gradientTransform="matrix(0.9428,-0.2511,-0.2421,-0.9089,6.0921912,215.38258)" gradientUnits="userSpaceOnUse" xlink:href="#rect22846_1_" id="linearGradient11408" y2="-288.60791" x2="261.97269" y1="-288.60791" x1="247.60249"/>
  <filter id="filter4503" color-interpolation-filters="sRGB">
    <feGaussianBlur stdDeviation="0.43775175" id="feGaussianBlur4505"/>
  </filter>
  <clipPath id="clipPath4092">
    <path style="fill:#9c0f56" id="path4094" d="m 59.849,42.398 c -2.256,4.589 -49.132,63.861 -51.075,68.668 -4.104,10.152 7.657,22.367 17.215,13.203 6.302,-6.042 40.97,-68.158 46.14,-72.854 3.494,-3.174 22.875,-10.332 22.875,-10.332 L 80.924,18.23 c 0,0 -18.2,18.322 -21.075,24.168 z"/>
  </clipPath>
  <linearGradient gradientUnits="userSpaceOnUse" id="XMLID_3_" y2="44.057598" x2="98.418404" y1="119.0576" x1="11.9185">
    <stop offset="0" style="stop-color:#c9c9c9;stop-opacity:1" id="stop49"/>
    <stop offset="0.0229" style="stop-color:#b2b2b2;stop-opacity:1" id="stop51"/>
    <stop offset="0.05" style="stop-color:#9f9f9f;stop-opacity:1" id="stop53"/>
    <stop offset="0.0819" style="stop-color:#929292;stop-opacity:1" id="stop55"/>
    <stop offset="0.1225" style="stop-color:#8a8a8a;stop-opacity:1" id="stop57"/>
    <stop offset="0.20119999" style="stop-color:#888888;stop-opacity:1" id="stop59"/>
    <stop offset="1" style="stop-color:#686868;stop-opacity:1" id="stop63"/>
  </linearGradient>
  <linearGradient gradientUnits="userSpaceOnUse" xlink:href="#XMLID_3_" id="linearGradient11424" y2="44.057598" x2="98.418404" y1="119.0576" x1="11.9185"/>
  <linearGradient gradientTransform="translate(229.83849,405.96228)" gradientUnits="userSpaceOnUse" id="XMLID_11_" y2="80.671898" x2="32.347698" y1="80.0439" x1="31.4995">
    <stop offset="0" style="stop-color:#000000;stop-opacity:1" id="stop183"/>
    <stop offset="1" style="stop-color:#000000;stop-opacity:0" id="stop185"/>
  </linearGradient>
  <linearGradient gradientTransform="translate(229.83849,405.96228)" gradientUnits="userSpaceOnUse" xlink:href="#XMLID_11_" id="linearGradient11422" y2="80.671898" x2="32.347698" y1="80.0439" x1="31.4995"/>
  <linearGradient gradientTransform="translate(229.83849,405.96228)" gradientUnits="userSpaceOnUse" id="XMLID_10_" y2="109.8655" x2="12.7283" y1="120.7646" x1="23.9844">
    <stop offset="0" style="stop-color:#eeeeee;stop-opacity:1" id="stop176"/>
    <stop offset="1" style="stop-color:#535353;stop-opacity:1" id="stop178"/>
  </linearGradient>
  <linearGradient gradientTransform="translate(229.83849,405.96228)" gradientUnits="userSpaceOnUse" xlink:href="#XMLID_10_" id="linearGradient11420" y2="107.20945" x2="18.875885" y1="123.23078" x1="17.509325"/>
  <linearGradient gradientTransform="translate(229.83849,405.96228)" gradientUnits="userSpaceOnUse" id="XMLID_9_" y2="114.6055" x2="18.776899" y1="129.5986" x1="18.776899">
    <stop offset="0" style="stop-color:#000000;stop-opacity:1" id="stop169"/>
    <stop offset="1" style="stop-color:#000000;stop-opacity:0" id="stop171"/>
  </linearGradient>
  <linearGradient gradientTransform="translate(229.83849,405.96228)" gradientUnits="userSpaceOnUse" xlink:href="#XMLID_9_" id="linearGradient11418" y2="114.6055" x2="18.776899" y1="129.5986" x1="18.776899"/>
  <radialGradient gradientTransform="translate(229.83849,405.96228)" gradientUnits="userSpaceOnUse" id="XMLID_8_" r="19.6182" cy="15.9429" cx="64.988297">
    <stop offset="0" style="stop-color:#ffffff;stop-opacity:1" id="stop162"/>
    <stop offset="1" style="stop-color:#888a85;stop-opacity:1" id="stop164"/>
  </radialGradient>
  <radialGradient gradientTransform="translate(229.83849,405.96228)" gradientUnits="userSpaceOnUse" xlink:href="#XMLID_8_" id="radialGradient11416" r="19.6182" cy="15.9429" cx="64.988297"/>
  <linearGradient gradientTransform="translate(229.83849,405.96228)" gradientUnits="userSpaceOnUse" id="XMLID_7_" y2="80.899803" x2="48.5495" y1="75.171898" x1="40.711899">
    <stop offset="0.213" style="stop-color:#555753;stop-opacity:1" id="stop155"/>
    <stop offset="1" style="stop-color:#000000;stop-opacity:1" id="stop157"/>
  </linearGradient>
  <linearGradient gradientTransform="translate(229.83849,405.96228)" gradientUnits="userSpaceOnUse" xlink:href="#XMLID_7_" id="linearGradient11414" y2="80.899803" x2="48.5495" y1="75.171898" x1="40.711899"/>
  <linearGradient gradientTransform="translate(229.83849,405.96228)" gradientUnits="userSpaceOnUse" id="path30758_1_" y2="80.697304" x2="67.723602" y1="80.697304" x1="16.7803">
    <stop offset="0" style="stop-color:#888888;stop-opacity:1" id="stop149"/>
    <stop offset="0.89349997" style="stop-color:#dddddd;stop-opacity:1" id="stop151"/>
  </linearGradient>
  <linearGradient gradientTransform="translate(229.83849,405.96228)" gradientUnits="userSpaceOnUse" xlink:href="#path30758_1_" id="linearGradient11412" y2="80.697304" x2="67.723602" y1="80.697304" x1="16.7803"/>
  <linearGradient gradientTransform="translate(229.83849,405.96228)" gradientUnits="userSpaceOnUse" id="path34280_1_" y2="25.928699" x2="93.023399" y1="39.3867" x1="93.023399">
    <stop offset="0" style="stop-color:#555555;stop-opacity:1" id="stop141"/>
    <stop offset="0.39649999" style="stop-color:#888888;stop-opacity:1" id="stop143"/>
    <stop offset="1" style="stop-color:#555555;stop-opacity:1" id="stop145"/>
  </linearGradient>
  <linearGradient gradientTransform="translate(229.83849,405.96228)" gradientUnits="userSpaceOnUse" xlink:href="#path34280_1_" id="linearGradient11410" y2="25.928699" x2="93.023399" y1="39.3867" x1="93.023399"/>
  <radialGradient gradientTransform="matrix(0.523,-0.2146,-2.627,-7.0521,27.4228,356.0237)" gradientUnits="userSpaceOnUse" id="rect14944_1_" r="6.8733001" cy="36.065399" cx="274.56641">
    <stop offset="0" style="stop-color:#888a85;stop-opacity:1" id="stop127"/>
    <stop offset="0.62129998" style="stop-color:#ffffff;stop-opacity:1" id="stop129"/>
    <stop offset="1" style="stop-color:#555753;stop-opacity:1" id="stop131"/>
  </radialGradient>
  <radialGradient gradientTransform="matrix(0.523,-0.2146,-2.627,-7.0521,27.4228,356.0237)" gradientUnits="userSpaceOnUse" xlink:href="#rect14944_1_" id="radialGradient11406" r="6.8733001" cy="36.065399" cx="274.56641"/>
  <radialGradient gradientTransform="matrix(0.4892,-0.2059,-2.5913,-7.0931,29.692,361.6149)" gradientUnits="userSpaceOnUse" id="rect14938_1_" r="6.8736" cy="36.069801" cx="290.8428">
    <stop offset="0" style="stop-color:#888a85;stop-opacity:1" id="stop119"/>
    <stop offset="0.62129998" style="stop-color:#ffffff;stop-opacity:1" id="stop121"/>
    <stop offset="1" style="stop-color:#555753;stop-opacity:1" id="stop123"/>
  </radialGradient>
  <radialGradient gradientTransform="matrix(0.4892,-0.2059,-2.5913,-7.0931,29.692,361.6149)" gradientUnits="userSpaceOnUse" xlink:href="#rect14938_1_" id="radialGradient11404" r="6.8736" cy="36.069801" cx="290.8428"/>
  <radialGradient gradientTransform="matrix(0.498,-0.2212,-2.9368,-8.3284,56.2613,466.2682)" gradientUnits="userSpaceOnUse" id="rect10553_1_" r="6.8727999" cy="43.388699" cx="292.49219">
    <stop offset="0" style="stop-color:#888a85;stop-opacity:1" id="stop111"/>
    <stop offset="0.62129998" style="stop-color:#ffffff;stop-opacity:1" id="stop113"/>
    <stop offset="1" style="stop-color:#555753;stop-opacity:1" id="stop115"/>
  </radialGradient>
  <radialGradient gradientTransform="matrix(0.498,-0.2212,-2.9368,-8.3284,56.2613,466.2682)" gradientUnits="userSpaceOnUse" xlink:href="#rect10553_1_" id="radialGradient11402" r="6.8727999" cy="43.388699" cx="292.49219"/>
  <radialGradient gradientTransform="matrix(0.6131,-0.2916,-5.2659,-7.9645,125.0096,227.992)" gradientUnits="userSpaceOnUse" id="rect14950_1_" r="4.1451998" cy="20.4307" cx="92.734398">
    <stop offset="0" style="stop-color:#ffffff;stop-opacity:1" id="stop103"/>
    <stop offset="0.5266" style="stop-color:#babdb6;stop-opacity:1" id="stop105"/>
    <stop offset="1" style="stop-color:#888a85;stop-opacity:1" id="stop107"/>
  </radialGradient>
  <radialGradient gradientTransform="matrix(0.6131,-0.2916,-5.2659,-7.9645,125.0096,227.992)" gradientUnits="userSpaceOnUse" xlink:href="#rect14950_1_" id="radialGradient11400" r="4.1451998" cy="20.4307" cx="92.734398"/>
  <radialGradient gradientUnits="userSpaceOnUse" id="rect10551_3_" r="14.3205" cy="44.608398" cx="78.776398">
    <stop offset="0" style="stop-color:#2e3436;stop-opacity:1" id="stop95"/>
    <stop offset="0.72189999" style="stop-color:#000000;stop-opacity:1" id="stop97"/>
    <stop offset="1" style="stop-color:#2e3436;stop-opacity:1" id="stop99"/>
  </radialGradient>
  <radialGradient gradientUnits="userSpaceOnUse" xlink:href="#rect10551_3_" id="radialGradient11398" r="14.3205" cy="44.608398" cx="78.776398"/>
  <linearGradient gradientUnits="userSpaceOnUse" id="rect10551_1_" y2="30.555201" x2="73.449203" y1="44.765598" x1="77.216797">
    <stop offset="0.72189999" style="stop-color:#dddddd;stop-opacity:1" id="stop89"/>
    <stop offset="1" style="stop-color:#eeeeec;stop-opacity:1" id="stop91"/>
  </linearGradient>
  <linearGradient gradientUnits="userSpaceOnUse" xlink:href="#rect10551_1_" id="linearGradient11396" y2="30.555201" x2="73.449203" y1="44.765598" x1="77.216797"/>
  <radialGradient gradientTransform="translate(229.83849,405.96228)" gradientUnits="userSpaceOnUse" id="XMLID_6_" fy="13.140214" fx="77.004028" r="64.405701" cy="13.140214" cx="77.004028">
    <stop offset="0" style="stop-color:#ffffff;stop-opacity:1" id="stop82"/>
    <stop offset="0.5" style="stop-color:#c3c4c2;stop-opacity:1" id="stop13256"/>
    <stop offset="1" style="stop-color:#000000;stop-opacity:1" id="stop84"/>
  </radialGradient>
  <radialGradient gradientTransform="matrix(0.4337031,0.4442839,-0.7150071,0.6987259,282.84098,375.70944)" gradientUnits="userSpaceOnUse" xlink:href="#XMLID_6_" id="radialGradient11394" fy="13.140214" fx="77.004028" r="64.405701" cy="13.140214" cx="77.004028"/>
  <linearGradient gradientTransform="translate(-80,0)" gradientUnits="userSpaceOnUse" id="XMLID_5_" y2="108.3428" x2="24.9356" y1="125.7861" x1="15.7207">
    <stop offset="0" style="stop-color:#000000;stop-opacity:1" id="stop75"/>
    <stop offset="0.89349997" style="stop-color:#ffffff;stop-opacity:1" id="stop77"/>
  </linearGradient>
  <linearGradient gradientTransform="translate(-80,0)" gradientUnits="userSpaceOnUse" xlink:href="#XMLID_5_" id="linearGradient10549" y2="108.3428" x2="24.9356" y1="125.7861" x1="15.7207"/>
  <mask id="mask10545">
    <path style="fill:url(#linearGradient10549)" id="path10547" d="M -0.051,18.554 -0.847,9.66 c 0,0 8.988,-5.178 11.227,-6.467 C 3.985,-0.79 -3.654,1.07 -3.741,1.093 c -7.162,1.903 -12.167,7.772 -12.167,14.129 0,0.239 0.007,0.479 0.021,0.718 0,0.001 0,0.001 0,0.002 0,0.357 -0.363,20.788 -3.366,26.896 -1.081,2.198 -11.148,15.342 -22.805,30.562 -12.137,15.847 -27.242,35.568 -28.24,38.04 -0.541,1.338 -0.781,2.686 -0.781,3.995 0,3.786 2.019,7.228 4.596,9.186 0.4,-0.701 0.828,-1.443 1.286,-2.229 -1.823,-1.291 -3.266,-3.318 -3.698,-5.609 -0.396,-2.096 0.064,-4.303 1.264,-6.057 1.171,-1.713 2.972,-2.871 5.07,-3.263 1.626,-0.303 3.379,0.13 4.94,1.219 0.193,0.135 0.376,0.284 0.558,0.436 10.748,-16.885 29.125,-43.768 60.258,-85.294 -1.872,-3.04 -3.246,-5.27 -3.246,-5.27 z"/>
  </mask>
  <linearGradient gradientTransform="translate(-80,0)" gradientUnits="userSpaceOnUse" id="XMLID_4_" y2="64.646004" x2="52.981899" y1="55.75" x1="40.527802">
    <stop offset="0" style="stop-color:#ffffff;stop-opacity:0" id="stop68"/>
    <stop offset="0.89349997" style="stop-color:#ffffff;stop-opacity:1" id="stop70"/>
  </linearGradient>
  <linearGradient gradientTransform="translate(-80,0)" gradientUnits="userSpaceOnUse" xlink:href="#XMLID_4_" id="linearGradient11392" y2="64.646004" x2="52.981899" y1="55.75" x1="40.527802"/>
  <linearGradient gradientTransform="translate(229.83849,405.96228)" gradientUnits="userSpaceOnUse" id="path2388_1_" y2="-17.989599" x2="107.7549" y1="124.6768" x1="14.9214">
    <stop offset="0" style="stop-color:#dddddd;stop-opacity:1" id="stop32"/>
    <stop offset="0.6864" style="stop-color:#888888;stop-opacity:1" id="stop34"/>
    <stop offset="0.89349997" style="stop-color:#dddddd;stop-opacity:1" id="stop36"/>
  </linearGradient>
  <linearGradient gradientTransform="translate(229.83849,405.96228)" gradientUnits="userSpaceOnUse" xlink:href="#path2388_1_" id="linearGradient11388" y2="-17.989599" x2="107.7549" y1="124.6768" x1="14.9214"/>
  <radialGradient gradientTransform="matrix(6.7917,-1.4855,-1.2014,-5.506,-845.12621,725.19548)" gradientUnits="userSpaceOnUse" id="path5936_1_" r="4.6967001" cy="4.7476001" cx="172.123">
    <stop offset="0" style="stop-color:#ffffff;stop-opacity:1" id="stop26"/>
    <stop offset="1" style="stop-color:#3e3e3e;stop-opacity:1" id="stop28"/>
  </radialGradient>
  <radialGradient gradientTransform="matrix(6.7917,-1.4855,-1.2014,-5.506,-845.12621,725.19548)" gradientUnits="userSpaceOnUse" xlink:href="#path5936_1_" id="radialGradient11386" r="4.6967001" cy="4.7476001" cx="172.123"/>
  <linearGradient gradientTransform="translate(229.83849,405.96228)" gradientUnits="userSpaceOnUse" id="XMLID_1_" y2="31.2349" x2="104.5325" y1="26.589399" x1="92.627899">
    <stop offset="0" style="stop-color:#ffffff;stop-opacity:1" id="stop19"/>
    <stop offset="0.63910002" style="stop-color:#888888;stop-opacity:1" id="stop21"/>
  </linearGradient>
  <linearGradient gradientTransform="translate(229.83849,405.96228)" gradientUnits="userSpaceOnUse" xlink:href="#XMLID_1_" id="linearGradient11384" y2="31.2349" x2="104.5325" y1="26.589399" x1="92.627899"/>
  <linearGradient gradientTransform="matrix(0.9065,-0.2414,-0.2421,-0.9089,10.723991,214.40698)" gradientUnits="userSpaceOnUse" id="rect25493_1_" y2="-287.6532" x2="286.16019" y1="-326.0903" x1="258.88379">
    <stop offset="0" style="stop-color:#555555;stop-opacity:1" id="stop5"/>
    <stop offset="0.6864" style="stop-color:#888888;stop-opacity:1" id="stop7"/>
  </linearGradient>
  <linearGradient gradientTransform="matrix(0.9065,-0.2414,-0.2421,-0.9089,10.723991,214.40698)" gradientUnits="userSpaceOnUse" xlink:href="#rect25493_1_" id="linearGradient11382" y2="-287.6532" x2="286.16019" y1="-326.0903" x1="258.88379"/>
  <filter id="filter12490" color-interpolation-filters="sRGB">
    <feGaussianBlur stdDeviation="2.3509538" id="feGaussianBlur12492"/>
  </filter>
  <linearGradient id="linearGradient4046">
    <stop offset="0" style="stop-color:#ffffff;stop-opacity:1" id="stop4048"/>
    <stop offset="1" style="stop-color:#ffffff;stop-opacity:0" id="stop4050"/>
  </linearGradient>
  <linearGradient id="linearGradient6774">
    <stop offset="0" style="stop-color:#ffffff;stop-opacity:1" id="stop6776"/>
    <stop offset="1" style="stop-color:#ffffff;stop-opacity:0" id="stop6778"/>
  </linearGradient>
  <linearGradient id="linearGradient6454">
    <stop offset="0" style="stop-color:#ffffff;stop-opacity:1" id="stop6456"/>
    <stop offset="1" style="stop-color:#ffffff;stop-opacity:0" id="stop6458"/>
  </linearGradient>
  <filter id="filter3860" color-interpolation-filters="sRGB" height="1.5977528" width="1.0996255" y="-0.29887643" x="-0.049812734">
    <feGaussianBlur id="feGaussianBlur3862" stdDeviation="2.6055845"/>
  </filter>
  <filter id="filter3793" color-interpolation-filters="sRGB" height="1.2274027" width="1.0869915" y="-0.11370137" x="-0.043495763">
    <feGaussianBlur id="feGaussianBlur3795" stdDeviation="2.881027"/>
  </filter>
  <linearGradient id="linearGradient3142">
    <stop offset="0" style="stop-color:#62cdf2;stop-opacity:1" id="stop3144"/>
    <stop offset="1" style="stop-color:#141b7c;stop-opacity:1" id="stop3146"/>
  </linearGradient>
  <linearGradient id="linearGradient3820">
    <stop offset="0" style="stop-color:#000000;stop-opacity:1" id="stop3822"/>
    <stop offset="0.5" style="stop-color:#000000;stop-opacity:0.49803922" id="stop3864"/>
    <stop offset="1" style="stop-color:#000000;stop-opacity:0" id="stop3824"/>
  </linearGradient>
  <linearGradient id="linearGradient3927">
    <stop offset="0" style="stop-color:#4fd6ff;stop-opacity:1" id="stop3929"/>
    <stop offset="1" style="stop-color:#4fd6ff;stop-opacity:0" id="stop3931"/>
  </linearGradient>
  <filter id="filter6740" color-interpolation-filters="sRGB" height="1.0991408" width="1.2106742" y="-0.049570385" x="-0.10533709">
    <feGaussianBlur stdDeviation="0.20714785" id="feGaussianBlur6742"/>
  </filter>
  <radialGradient gradientTransform="matrix(-0.9348919,0.6335063,-0.6475658,-0.9556402,296.98881,169.25459)" gradientUnits="userSpaceOnUse" xlink:href="#rect25493_1_" id="radialGradient6538" fy="148.28578" fx="103.40186" r="92.351021" cy="78.609802" cx="106.91693"/>
  <radialGradient gradientTransform="matrix(1,0,0,0.1666667,0,155.14216)" gradientUnits="userSpaceOnUse" xlink:href="#linearGradient3820" id="radialGradient6540" fy="186.17059" fx="99.157013" r="62.769119" cy="186.17059" cx="99.157013"/>
  <linearGradient gradientUnits="userSpaceOnUse" xlink:href="#linearGradient3927" id="linearGradient6542" y2="379.85718" x2="-1100.7981" y1="457.99292" x1="-1100.7981"/>
  <linearGradient gradientUnits="userSpaceOnUse" xlink:href="#linearGradient6454" id="linearGradient6544" y2="11.567216" x2="37.594189" y1="51.70039" x1="97.525558"/>
  <linearGradient gradientUnits="userSpaceOnUse" xlink:href="#linearGradient6454" id="linearGradient6546" y2="6.6882758" x2="-5.1976047" y1="-9.8108644" x1="108.6741"/>
  <linearGradient gradientUnits="userSpaceOnUse" xlink:href="#linearGradient6454" id="linearGradient6548" y2="8.7593908" x2="-6.8489757" y1="1.5653529" x1="119.58466"/>
  <linearGradient gradientTransform="translate(0.90625,-1.8125)" gradientUnits="userSpaceOnUse" xlink:href="#linearGradient6774" id="linearGradient6550" y2="59.069134" x2="96.163017" y1="45.795101" x1="100.88267"/>
  <linearGradient gradientTransform="matrix(0.9683983,0,0,0.9646258,-3.7932298,0.03985734)" gradientUnits="userSpaceOnUse" xlink:href="#linearGradient4046" id="linearGradient6552" y2="35.567139" x2="51.625942" y1="-3.0905473" x1="22.196054"/>
  <linearGradient gradientUnits="userSpaceOnUse" xlink:href="#linearGradient6454" id="linearGradient6554" y2="6.6882758" x2="-5.1976047" y1="-9.8108644" x1="108.6741"/>
  <linearGradient gradientUnits="userSpaceOnUse" xlink:href="#linearGradient6454" id="linearGradient6556" y2="8.7593908" x2="-6.8489757" y1="1.5653529" x1="119.58466"/>
  <linearGradient gradientTransform="matrix(0.785268,-0.07367722,0.03946254,0.4492806,22.778321,70.710911)" gradientUnits="userSpaceOnUse" xlink:href="#linearGradient6959" id="linearGradient8078" y2="117.27959" x2="128.16121" y1="117.27959" x1="0.16120911"/>
  <linearGradient id="linearGradient6959">
    <stop offset="0" style="stop-color:#000000;stop-opacity:1" id="stop6961"/>
    <stop offset="1" style="stop-color:#000000;stop-opacity:0" id="stop6963"/>
  </linearGradient>
  <linearGradient gradientTransform="matrix(1.1764954,0,0,1.1833613,-4.7978353,-79.665581)" gradientUnits="userSpaceOnUse" xlink:href="#linearGradient2334" id="linearGradient4970" y2="67.754272" x2="-59.581383" y1="67.754272" x1="-70.588905"/>
  <linearGradient id="linearGradient2334">
    <stop offset="0" style="stop-color:#8d8d8d;stop-opacity:1" id="stop2336"/>
    <stop offset="0.2767916" style="stop-color:#e2dcdc;stop-opacity:1" id="stop2342"/>
    <stop offset="0.71460712" style="stop-color:#ffffff;stop-opacity:1" id="stop2348"/>
    <stop offset="0.80711305" style="stop-color:#dfd9df;stop-opacity:1" id="stop2344"/>
    <stop offset="1" style="stop-color:#888888;stop-opacity:1" id="stop2338"/>
  </linearGradient>
  <linearGradient gradientTransform="matrix(1.1764965,0,0,1.1833623,-4.7827195,-79.650397)" gradientUnits="userSpaceOnUse" xlink:href="#linearGradient2352" id="linearGradient4949" y2="75.717079" x2="-66.905724" y1="77.09996" x1="-66.905724"/>
  <linearGradient id="linearGradient2352">
    <stop offset="0" style="stop-color:#000000;stop-opacity:1" id="stop2354"/>
    <stop offset="1" style="stop-color:#000000;stop-opacity:0" id="stop2356"/>
  </linearGradient>
  <linearGradient gradientTransform="matrix(-0.9676045,-0.6692381,-0.6740154,0.9726479,144.54699,27.4304)" gradientUnits="userSpaceOnUse" xlink:href="#linearGradient3058" id="linearGradient4967" y2="94.734375" x2="55.089256" y1="94.734375" x1="34.91254"/>
  <linearGradient id="linearGradient3058">
    <stop offset="0" style="stop-color:#9a7600;stop-opacity:1" id="stop3060"/>
    <stop offset="0.32522252" style="stop-color:#e3ad00;stop-opacity:1" id="stop3066"/>
    <stop offset="0.6670348" style="stop-color:#ffcd2c;stop-opacity:1" id="stop3070"/>
    <stop offset="0.91571385" style="stop-color:#e3ad00;stop-opacity:1" id="stop3068"/>
    <stop offset="1" style="stop-color:#b98d00;stop-opacity:1" id="stop3062"/>
  </linearGradient>
  <linearGradient gradientTransform="matrix(-0.9676045,-0.6692381,-0.6740154,0.9726479,144.36527,27.463989)" gradientUnits="userSpaceOnUse" xlink:href="#linearGradient2310" id="linearGradient4964" y2="62.415165" x2="45.24057" y1="61.083416" x1="45.24057"/>
  <linearGradient id="linearGradient2310">
    <stop offset="0" style="stop-color:#020202;stop-opacity:1" id="stop2312"/>
    <stop offset="1" style="stop-color:#020202;stop-opacity:0" id="stop2314"/>
  </linearGradient>
  <linearGradient gradientTransform="matrix(-0.9676045,-0.6692381,-0.6740154,0.9726479,144.54699,27.4304)" gradientUnits="userSpaceOnUse" xlink:href="#linearGradient2310" id="linearGradient4961" y2="125.89983" x2="45.615768" y1="128.00496" x1="45.615768"/>
  <linearGradient gradientTransform="matrix(-0.9676045,-0.6692381,-0.6740154,0.9726479,144.44832,27.448631)" gradientUnits="userSpaceOnUse" xlink:href="#linearGradient2322" id="linearGradient4958" y2="75.479614" x2="38.61475" y1="75.415688" x1="37.235054"/>
  <linearGradient id="linearGradient2322">
    <stop offset="0" style="stop-color:#000000;stop-opacity:1" id="stop2324"/>
    <stop offset="1" style="stop-color:#000000;stop-opacity:0" id="stop2326"/>
  </linearGradient>
  <linearGradient gradientTransform="matrix(0.983361,0.6663259,-0.6582589,0.9697357,55.439719,-32.927491)" gradientUnits="userSpaceOnUse" xlink:href="#linearGradient2322" id="linearGradient4955" y2="75.479614" x2="38.451817" y1="75.415688" x1="36.909187"/>
  <linearGradient gradientTransform="matrix(1.1764954,0,0,1.1833612,-4.797835,-79.665584)" gradientUnits="userSpaceOnUse" xlink:href="#linearGradient2352" id="linearGradient4952" y2="65.268829" x2="-58.206917" y1="49.46249" x1="-74.01326"/>
  <linearGradient gradientTransform="matrix(1.1764954,0,0,1.1833613,-4.7978353,-75.354716)" gradientUnits="userSpaceOnUse" xlink:href="#linearGradient2352" id="linearGradient4946" y2="77.232819" x2="-66.905724" y1="78.000954" x1="-66.905724"/>
  <radialGradient gradientTransform="matrix(1,0,0,0.636364,0,30.62293)" gradientUnits="userSpaceOnUse" xlink:href="#linearGradient2370" id="radialGradient2167" fy="83.803413" fx="-67.047073" r="1.4498374" cy="84.213043" cx="-67.615143"/>
  <linearGradient id="linearGradient2370">
    <stop offset="0" style="stop-color:#000000;stop-opacity:1" id="stop2378"/>
    <stop offset="1" style="stop-color:#2a2a2a;stop-opacity:0.29537368" id="stop2374"/>
  </linearGradient>
  <radialGradient gradientTransform="matrix(1,0,0,0.636364,0,30.62293)" gradientUnits="userSpaceOnUse" xlink:href="#linearGradient2370" id="radialGradient2169" fy="83.803413" fx="-67.047073" r="1.4498374" cy="84.213043" cx="-67.615143"/>
  <radialGradient gradientTransform="matrix(1,0,0,0.636364,0,30.62293)" gradientUnits="userSpaceOnUse" xlink:href="#linearGradient2370" id="radialGradient2171" fy="83.803413" fx="-67.047073" r="1.4498374" cy="84.213043" cx="-67.615143"/>
  <radialGradient gradientTransform="matrix(1,0,0,0.636364,0,30.62293)" gradientUnits="userSpaceOnUse" xlink:href="#linearGradient2370" id="radialGradient2173" fy="83.803413" fx="-67.047073" r="1.4498374" cy="84.213043" cx="-67.615143"/>
  <radialGradient gradientTransform="matrix(1,0,0,0.636364,0,30.62293)" gradientUnits="userSpaceOnUse" xlink:href="#linearGradient2370" id="radialGradient2175" fy="83.803413" fx="-67.047073" r="1.4498374" cy="84.213043" cx="-67.615143"/>
  <radialGradient gradientTransform="matrix(1,0,0,0.636364,0,30.62293)" gradientUnits="userSpaceOnUse" xlink:href="#linearGradient2370" id="radialGradient2177" fy="83.803413" fx="-67.047073" r="1.4498374" cy="84.213043" cx="-67.615143"/>
  <radialGradient gradientTransform="matrix(1,0,0,0.636364,0,30.62293)" gradientUnits="userSpaceOnUse" xlink:href="#linearGradient2370" id="radialGradient2179" fy="83.803413" fx="-67.047073" r="1.4498374" cy="84.213043" cx="-67.615143"/>
  <radialGradient gradientTransform="matrix(1,0,0,0.636364,0,30.62293)" gradientUnits="userSpaceOnUse" xlink:href="#linearGradient2370" id="radialGradient2181" fy="83.803413" fx="-67.047073" r="1.4498374" cy="84.213043" cx="-67.615143"/>
  <radialGradient gradientTransform="matrix(1,0,0,0.636364,0,30.62293)" gradientUnits="userSpaceOnUse" xlink:href="#linearGradient2370" id="radialGradient2183" fy="83.803413" fx="-67.047073" r="1.4498374" cy="84.213043" cx="-67.615143"/>
  <radialGradient gradientTransform="matrix(1,0,0,0.636364,0,30.62293)" gradientUnits="userSpaceOnUse" xlink:href="#linearGradient2370" id="radialGradient2185" fy="83.803413" fx="-67.047073" r="1.4498374" cy="84.213043" cx="-67.615143"/>
  <radialGradient gradientTransform="matrix(1,0,0,0.636364,0,30.62293)" gradientUnits="userSpaceOnUse" xlink:href="#linearGradient2370" id="radialGradient2187" fy="83.803413" fx="-67.047073" r="1.4498374" cy="84.213043" cx="-67.615143"/>
  <radialGradient gradientTransform="matrix(1,0,0,0.636364,0,30.62293)" gradientUnits="userSpaceOnUse" xlink:href="#linearGradient2370" id="radialGradient2189" fy="83.803413" fx="-67.047073" r="1.4498374" cy="84.213043" cx="-67.615143"/>
  <radialGradient gradientTransform="matrix(1,0,0,0.636364,0,30.62293)" gradientUnits="userSpaceOnUse" xlink:href="#linearGradient2370" id="radialGradient2191" fy="83.803413" fx="-67.047073" r="1.4498374" cy="84.213043" cx="-67.615143"/>
  <radialGradient gradientTransform="matrix(1,0,0,0.636364,0,30.62293)" gradientUnits="userSpaceOnUse" xlink:href="#linearGradient2370" id="radialGradient2193" fy="83.803413" fx="-67.047073" r="1.4498374" cy="84.213043" cx="-67.615143"/>
  <radialGradient gradientTransform="matrix(1,0,0,0.636364,0,30.62293)" gradientUnits="userSpaceOnUse" xlink:href="#linearGradient2370" id="radialGradient2195" fy="83.803413" fx="-67.047073" r="1.4498374" cy="84.213043" cx="-67.615143"/>
  <radialGradient gradientTransform="matrix(1,0,0,0.636364,0,30.62293)" gradientUnits="userSpaceOnUse" xlink:href="#linearGradient2370" id="radialGradient2197" fy="83.803413" fx="-67.047073" r="1.4498374" cy="84.213043" cx="-67.615143"/>
  <radialGradient gradientTransform="matrix(1,0,0,0.636364,0,30.62293)" gradientUnits="userSpaceOnUse" xlink:href="#linearGradient2370" id="radialGradient2199" fy="83.803413" fx="-67.047073" r="1.4498374" cy="84.213043" cx="-67.615143"/>
  <radialGradient gradientTransform="matrix(1,0,0,0.636364,0,30.62293)" gradientUnits="userSpaceOnUse" xlink:href="#linearGradient2370" id="radialGradient2201" fy="83.803413" fx="-67.047073" r="1.4498374" cy="84.213043" cx="-67.615143"/>
  <radialGradient gradientTransform="matrix(1,0,0,0.636364,0,30.62293)" gradientUnits="userSpaceOnUse" xlink:href="#linearGradient2370" id="radialGradient2203" fy="83.803413" fx="-67.047073" r="1.4498374" cy="84.213043" cx="-67.615143"/>
  <radialGradient gradientTransform="matrix(1,0,0,0.636364,0,30.62293)" gradientUnits="userSpaceOnUse" xlink:href="#linearGradient2370" id="radialGradient2205" fy="83.803413" fx="-67.047073" r="1.4498374" cy="84.213043" cx="-67.615143"/>
  <radialGradient gradientTransform="matrix(1,0,0,0.636364,0,30.62293)" gradientUnits="userSpaceOnUse" xlink:href="#linearGradient2370" id="radialGradient2207" fy="83.803413" fx="-67.047073" r="1.4498374" cy="84.213043" cx="-67.615143"/>
  <radialGradient gradientTransform="matrix(1,0,0,0.636364,0,30.62293)" gradientUnits="userSpaceOnUse" xlink:href="#linearGradient2370" id="radialGradient2209" fy="83.803413" fx="-67.047073" r="1.4498374" cy="84.213043" cx="-67.615143"/>
  <radialGradient gradientTransform="matrix(1,0,0,0.636364,0,30.62293)" gradientUnits="userSpaceOnUse" xlink:href="#linearGradient2370" id="radialGradient2211" fy="83.803413" fx="-67.047073" r="1.4498374" cy="84.213043" cx="-67.615143"/>
  <radialGradient gradientTransform="matrix(1,0,0,0.636364,0,30.62293)" gradientUnits="userSpaceOnUse" xlink:href="#linearGradient2370" id="radialGradient2213" fy="83.803413" fx="-67.047073" r="1.4498374" cy="84.213043" cx="-67.615143"/>
  <radialGradient gradientTransform="matrix(1,0,0,0.636364,0,30.62293)" gradientUnits="userSpaceOnUse" xlink:href="#linearGradient2370" id="radialGradient2215" fy="83.803413" fx="-67.047073" r="1.4498374" cy="84.213043" cx="-67.615143"/>
  <radialGradient gradientTransform="matrix(1,0,0,0.636364,0,30.62293)" gradientUnits="userSpaceOnUse" xlink:href="#linearGradient2370" id="radialGradient2217" fy="83.803413" fx="-67.047073" r="1.4498374" cy="84.213043" cx="-67.615143"/>
  <radialGradient gradientTransform="matrix(1,0,0,0.636364,0,30.62293)" gradientUnits="userSpaceOnUse" xlink:href="#linearGradient2370" id="radialGradient2219" fy="83.803413" fx="-67.047073" r="1.4498374" cy="84.213043" cx="-67.615143"/>
  <radialGradient gradientTransform="matrix(1,0,0,0.636364,0,30.62293)" gradientUnits="userSpaceOnUse" xlink:href="#linearGradient2370" id="radialGradient2221" fy="83.803413" fx="-67.047073" r="1.4498374" cy="84.213043" cx="-67.615143"/>
  <radialGradient gradientTransform="matrix(1,0,0,0.636364,0,30.62293)" gradientUnits="userSpaceOnUse" xlink:href="#linearGradient2370" id="radialGradient2223" fy="83.803413" fx="-67.047073" r="1.4498374" cy="84.213043" cx="-67.615143"/>
  <radialGradient gradientTransform="matrix(1,0,0,0.636364,0,30.62293)" gradientUnits="userSpaceOnUse" xlink:href="#linearGradient2370" id="radialGradient2225" fy="83.803413" fx="-67.047073" r="1.4498374" cy="84.213043" cx="-67.615143"/>
  <radialGradient gradientTransform="matrix(1,0,0,0.636364,0,30.62293)" gradientUnits="userSpaceOnUse" xlink:href="#linearGradient2370" id="radialGradient2227" fy="83.803413" fx="-67.047073" r="1.4498374" cy="84.213043" cx="-67.615143"/>
  <radialGradient gradientTransform="matrix(1,0,0,0.636364,0,30.62293)" gradientUnits="userSpaceOnUse" xlink:href="#linearGradient2370" id="radialGradient2229" fy="83.803413" fx="-67.047073" r="1.4498374" cy="84.213043" cx="-67.615143"/>
  <radialGradient gradientTransform="matrix(1,0,0,0.636364,0,30.62293)" gradientUnits="userSpaceOnUse" xlink:href="#linearGradient2370" id="radialGradient2231" fy="83.803413" fx="-67.047073" r="1.4498374" cy="84.213043" cx="-67.615143"/>
  <linearGradient gradientTransform="matrix(-0.9676045,-0.6692381,-0.6740154,0.9726479,196.65813,26.204038)" gradientUnits="userSpaceOnUse" xlink:href="#linearGradient2803" id="linearGradient4910" y2="62.350033" x2="118.02947" y1="46.469597" x1="62.987843"/>
  <linearGradient id="linearGradient2803">
    <stop offset="0" style="stop-color:#e2dcdc;stop-opacity:1" id="stop2809"/>
    <stop offset="0.39074388" style="stop-color:#ffffff;stop-opacity:1" id="stop2811"/>
    <stop offset="0.82692307" style="stop-color:#dfd9df;stop-opacity:1" id="stop2813"/>
    <stop offset="1" style="stop-color:#c3c3c3;stop-opacity:1" id="stop2815"/>
  </linearGradient>
  <clipPath id="clipPath5354">
    <path style="fill:#00583f;fill-opacity:1;fill-rule:evenodd;stroke:none" id="path5356" d="m 103.98397,-1.574449 c 1.36631,-0.217784 5.00076,-1.340215 2.18696,-4.117706 -29.997586,-21.599248 -54.17578,-12.631544 -63.234504,-6.467284 10.162526,-5.731586 35.835522,-9.765684 61.047544,10.58499 z"/>
  </clipPath>
  <filter id="filter5739" color-interpolation-filters="sRGB" height="1.5084833" width="1.1183428" y="-0.25424162" x="-0.059171364">
    <feGaussianBlur stdDeviation="1.5280665" id="feGaussianBlur5741"/>
  </filter>
  <radialGradient gradientTransform="matrix(-1.7759891,-0.8986225,-1.0601326,2.082617,285.11609,4.6753809)" gradientUnits="userSpaceOnUse" xlink:href="#linearGradient2830" id="radialGradient4903" fy="43.249184" fx="92.496124" r="16.633095" cy="43.249184" cx="92.496124"/>
  <linearGradient id="linearGradient2830">
    <stop offset="0" style="stop-color:#111111;stop-opacity:1" id="stop2832"/>
    <stop offset="0.14285715" style="stop-color:#6e6e70;stop-opacity:1" id="stop2838"/>
    <stop offset="0.5714286" style="stop-color:#101010;stop-opacity:1" id="stop2864"/>
    <stop offset="1" style="stop-color:#0d0d0d;stop-opacity:1" id="stop2834"/>
  </linearGradient>
  <radialGradient gradientTransform="matrix(-1.7759891,-0.8986225,-1.0601326,2.082617,285.11609,4.6753809)" gradientUnits="userSpaceOnUse" xlink:href="#linearGradient2830" id="radialGradient4900" fy="42.850105" fx="92.990265" r="16.633095" cy="42.850105" cx="92.990265"/>
  <radialGradient gradientTransform="matrix(-1.7759891,-0.8986225,-1.0601326,2.082617,285.11609,4.6753809)" gradientUnits="userSpaceOnUse" xlink:href="#linearGradient2830" id="radialGradient4897" fy="43.102612" fx="93.747849" r="16.633095" cy="43.102612" cx="93.747849"/>
  <radialGradient gradientTransform="matrix(-1.7759891,-0.8986225,-1.0601326,2.082617,285.11609,4.6753809)" gradientUnits="userSpaceOnUse" xlink:href="#linearGradient2830" id="radialGradient4894" fy="43.032188" fx="94.932045" r="16.633095" cy="43.032188" cx="94.932045"/>
  <radialGradient gradientTransform="matrix(-2.2134389,-1.5580054,-0.9195638,1.2855562,320.80105,101.437)" gradientUnits="userSpaceOnUse" xlink:href="#linearGradient2830" id="radialGradient4891" fy="42.709927" fx="94.435982" r="16.633095" cy="42.709927" cx="94.435982"/>
  <linearGradient gradientTransform="matrix(-0.9676045,-0.6692381,-0.6740154,0.9726479,196.65813,26.204038)" gradientUnits="userSpaceOnUse" xlink:href="#linearGradient2854" id="linearGradient4888" y2="55.574818" x2="108.78728" y1="59.273457" x1="106.03028"/>
  <linearGradient id="linearGradient2854">
    <stop offset="0" style="stop-color:#ffffff;stop-opacity:1" id="stop2856"/>
    <stop offset="1" style="stop-color:#ffffff;stop-opacity:0" id="stop2858"/>
  </linearGradient>
  <linearGradient gradientTransform="matrix(-0.9676045,-0.6692381,-0.6740154,0.9726479,196.65813,26.204038)" gradientUnits="userSpaceOnUse" xlink:href="#linearGradient2938" id="linearGradient4880" y2="40.550549" x2="61.870293" y1="33.318996" x1="61.870293"/>
  <linearGradient id="linearGradient2938">
    <stop offset="0" style="stop-color:#000000;stop-opacity:1" id="stop2940"/>
    <stop offset="1" style="stop-color:#000000;stop-opacity:0" id="stop2942"/>
  </linearGradient>
  <clipPath id="clipPath6914">
    <path style="fill:#34176e;fill-opacity:1;fill-rule:evenodd;stroke:none" id="path6916" d="m 82.925411,-3.435412 -1.608519,-1.191903 c 0.522849,-11.067495 9.171738,-20.603215 22.621818,-22.256029 3.3472,0.424353 5.5593,6.169237 6.88688,9.944766 l 10.54667,3.578078 5.87361,4.357131 c -2.56833,5.111207 -5.64222,9.878481 -9.57227,14.063318 l -6.4593,-3.71208 -7.48772,-9.862628 C 97.52863,-10.498934 89.700195,-9.79438 82.925411,-3.435412 z"/>
  </clipPath>
  <filter id="filter7303" color-interpolation-filters="sRGB" height="1.2340316" width="1.1627673" y="-0.11701577" x="-0.081383675">
    <feGaussianBlur stdDeviation="1.5574454" id="feGaussianBlur7305"/>
  </filter>
  <linearGradient gradientTransform="matrix(-0.9676045,-0.6692381,-0.6740154,0.9726479,196.65813,26.204038)" gradientUnits="userSpaceOnUse" xlink:href="#linearGradient2948" id="linearGradient4874" y2="41.511894" x2="75.465431" y1="41.758987" x1="45.277409"/>
  <linearGradient id="linearGradient2948">
    <stop offset="0" style="stop-color:#000000;stop-opacity:1" id="stop2950"/>
    <stop offset="0.14835165" style="stop-color:#000000;stop-opacity:0" id="stop2956"/>
    <stop offset="0.42443547" style="stop-color:#000000;stop-opacity:0.39607844" id="stop2960"/>
    <stop offset="0.57417583" style="stop-color:#000000;stop-opacity:0.79061371" id="stop2958"/>
    <stop offset="0.78708792" style="stop-color:#000000;stop-opacity:0.09386282" id="stop2962"/>
    <stop offset="1" style="stop-color:#000000;stop-opacity:0" id="stop2952"/>
  </linearGradient>
  <radialGradient gradientTransform="matrix(-2.9412787,-1.1615663,-0.2846191,0.7136661,292.2596,68.533501)" gradientUnits="userSpaceOnUse" xlink:href="#linearGradient2916" id="radialGradient4871" fy="51.985794" fx="60.050133" r="15.014902" cy="51.897194" cx="58.079144"/>
  <linearGradient id="linearGradient2916">
    <stop offset="0" style="stop-color:#000000;stop-opacity:1" id="stop2918"/>
    <stop offset="1" style="stop-color:#000000;stop-opacity:0" id="stop2920"/>
  </linearGradient>
  <radialGradient spreadMethod="reflect" gradientTransform="matrix(-2.2908472,-1.2912538,-0.4877278,0.8613771,257.00005,93.121214)" gradientUnits="userSpaceOnUse" xlink:href="#linearGradient2926" id="radialGradient4868" fy="-16.594898" fx="59.887943" r="15.014902" cy="-16.594898" cx="59.887943"/>
  <linearGradient id="linearGradient2926">
    <stop offset="0" style="stop-color:#ffffff;stop-opacity:1" id="stop2928"/>
    <stop offset="0.31868133" style="stop-color:#ffffff;stop-opacity:0" id="stop2934"/>
    <stop offset="1" style="stop-color:#ffffff;stop-opacity:0" id="stop2930"/>
  </linearGradient>
  <radialGradient gradientTransform="matrix(1,0,0,140,0,-6071.644)" gradientUnits="userSpaceOnUse" xlink:href="#linearGradient2878" id="radialGradient2257" fy="43.681263" fx="47.817745" r="0.046902865" cy="43.680889" cx="47.794022"/>
  <linearGradient id="linearGradient2878">
    <stop offset="0" style="stop-color:#ffffff;stop-opacity:1" id="stop2880"/>
    <stop offset="1" style="stop-color:#ffffff;stop-opacity:0" id="stop2882"/>
  </linearGradient>
  <linearGradient gradientTransform="matrix(-0.8205678,0.1491734,0.1491734,0.8205678,119.95493,-30.558073)" gradientUnits="userSpaceOnUse" xlink:href="#linearGradient3168" id="linearGradient6134" y2="54.610104" x2="5.8861146" y1="35.892609" x1="29.344007"/>
  <linearGradient id="linearGradient3168">
    <stop offset="0" style="stop-color:#ffffff;stop-opacity:1" id="stop3170"/>
    <stop offset="1" style="stop-color:#ffffff;stop-opacity:0" id="stop3172"/>
  </linearGradient>
  <clipPath id="clipPath6130">
    <path style="fill:#e20071;fill-opacity:1;fill-rule:evenodd;stroke:none" id="path6132" d="M 125.16669,12.099598 C 122.19641,9.254864 111.282,2.992388 109.84175,5.187905 c -1.73662,2.647316 8.0971,9.68305 11.90231,11.399234 1.3031,0.587714 4.41979,-3.532532 3.42263,-4.487541 z"/>
  </clipPath>
  <filter id="filter6906" color-interpolation-filters="sRGB" height="1.218774" width="1.1710647" y="-0.10938701" x="-0.085532367">
    <feGaussianBlur stdDeviation="0.5212367" id="feGaussianBlur6908"/>
  </filter>
  <linearGradient gradientTransform="matrix(-0.8205678,0.1491734,0.1491734,0.8205678,119.95493,-30.558073)" gradientUnits="userSpaceOnUse" xlink:href="#linearGradient3168" id="linearGradient3207" y2="54.610104" x2="5.8861146" y1="35.892609" x1="29.344007"/>
  <filter id="filter4347" color-interpolation-filters="sRGB">
    <feGaussianBlur id="feGaussianBlur4349" stdDeviation="1.9134187"/>
  </filter>
</defs>
<path style="fill:#000000" id="path2197" d=""/>
<g style="display:none" id="Frame_copy" transform="translate(765.45726,-314.1164)">
  <g style="display:inline" id="g3978">
    <g id="g3982">
      <circle id="circle3984" r="275.909" cy="278.93399" cx="279.51501"/>
    </g>
  </g>
  <g style="display:inline" id="Frame_copy_1_"/>
</g>
<g style="display:none" id="Frame_copy_2" transform="translate(765.45726,-314.1164)">
  <circle style="fill:#ffffff;display:inline" id="circle3988" r="275.909" cy="278.93399" cx="279.51501"/>
  <g style="display:inline" id="Frame_copy_2_1_"/>
</g>
<g id="Foreground_Grid_1_" transform="matrix(0.333692,0,0,0.333692,-887.39857,-185.51889)"/>
<g id="g6526" transform="translate(-1.1452281,1.5059399)">
  <g id="g5356">
    <path d="m 161.92613,186.17059 c 0.006,5.77847 -28.09832,10.46339 -62.769118,10.46339 -34.670803,0 -62.775307,-4.68492 -62.769118,-10.46339 -0.0062,-5.77847 28.098315,-10.46339 62.769118,-10.46339 34.670798,0 62.775308,4.68492 62.769118,10.46339 z" transform="matrix(0.5453898,0,0,0.6876656,4.0196942,-21.677551)" id="path3818" style="fill:url(#radialGradient6540);fill-opacity:1;stroke:none;filter:url(#filter3860)"/>
    <path d="m 231.16084,147.785 c 0,51.00406 -41.34696,92.35102 -92.35102,92.35102 -51.004065,0 -92.351027,-41.34696 -92.351026,-92.35102 -10e-7,-51.004062 41.346961,-92.351024 92.351026,-92.351024 51.00406,0 92.35102,41.346962 92.35102,92.351024 l 0,0 z" id="path2285" style="fill:url(#radialGradient6538);fill-opacity:1.0;stroke:none" transform="matrix(0.5691599,0,0,0.5691599,-19.859752,-29.43174)"/>
    <path d="m 94.556879,5.3128309 c 0,46.0785201 -37.354021,83.4325411 -83.432541,83.4325411 -46.07852,0 -83.432541,-37.354021 -83.432541,-83.4325411 0,-46.0785199 37.354021,-83.4325409 83.432541,-83.4325409 46.07852,0 83.432541,37.354021 83.432541,83.4325409 l 0,0 z" transform="matrix(0.2721535,0.2721535,-0.4467004,0.4467004,58.84723,48.265545)" id="path5867" style="fill:none;stroke:url(#linearGradient6544);stroke-width:2.40597677;stroke-linecap:round;stroke-linejoin:round;stroke-miterlimit:4;stroke-opacity:1;stroke-dasharray:none;stroke-dashoffset:1.08779998"/>
    <path d="m 94.556879,5.3128309 c 0,46.0785201 -37.354021,83.4325411 -83.432541,83.4325411 -46.07852,0 -83.432541,-37.354021 -83.432541,-83.4325411 0,-46.0785199 37.354021,-83.4325409 83.432541,-83.4325409 46.07852,0 83.432541,37.354021 83.432541,83.4325409 l 0,0 z" transform="matrix(-0.3333186,0.1924416,-0.3158649,-0.5470941,64.8876,54.43215)" id="path6498" style="fill:none;stroke:url(#linearGradient6546);stroke-width:1.85075164;stroke-linecap:round;stroke-linejoin:round;stroke-miterlimit:4;stroke-opacity:1;stroke-dasharray:none;stroke-dashoffset:1.08779998"/>
    <path d="m 94.556879,5.3128309 c 0,46.0785201 -37.354021,83.4325411 -83.432541,83.4325411 -46.07852,0 -83.432541,-37.354021 -83.432541,-83.4325411 0,-46.0785199 37.354021,-83.4325409 83.432541,-83.4325409 46.07852,0 83.432541,37.354021 83.432541,83.4325409 l 0,0 z" transform="matrix(-0.09961508,-0.3717685,0.6102042,-0.1635038,57.36776,58.670663)" id="path6502" style="fill:none;stroke:url(#linearGradient6548);stroke-width:1.85075164;stroke-linecap:round;stroke-linejoin:round;stroke-miterlimit:4;stroke-opacity:1;stroke-dasharray:none;stroke-dashoffset:1.08779998"/>
    <path d="m 101.78892,43.9826 -4.719656,6.882833 3.343096,3.146438 1.37656,-10.029271 z" transform="matrix(1.7602915,-0.1537115,0.1537115,1.7602915,-81.183145,-26.152315)" id="path6694" style="fill:url(#linearGradient6550);fill-opacity:1;fill-rule:evenodd;stroke:none;filter:url(#filter6740)"/>
    <path d="m 59.309493,2.662434 c -22.675284,10e-8 -41.892406,14.84672 -48.396226,35.299277 4.915785,7.062312 13.911644,12.817697 25.177733,16.157483 0.311292,-1.390809 0.628829,-2.784276 0.994245,-4.190093 C 43.818279,24.025865 57.525097,4.7548606 69.193436,3.6270598 65.996046,2.9974918 62.691662,2.662434 59.309493,2.662434 z" id="path4041" style="fill:url(#linearGradient6552);fill-opacity:1;stroke:none"/>
    <path d="m 94.556879,5.3128309 c 0,46.0785201 -37.354021,83.4325411 -83.432541,83.4325411 -46.07852,0 -83.432541,-37.354021 -83.432541,-83.4325411 0,-46.0785199 37.354021,-83.4325409 83.432541,-83.4325409 46.07852,0 83.432541,37.354021 83.432541,83.4325409 l 0,0 z" transform="matrix(0.3333186,-0.1924416,0.3158649,0.5470941,45.05293,52.900484)" id="path3087" style="fill:none;stroke:url(#linearGradient6554);stroke-width:1.85075164;stroke-linecap:round;stroke-linejoin:round;stroke-miterlimit:4;stroke-opacity:1;stroke-dasharray:none;stroke-dashoffset:1.08779998"/>
    <path d="m 94.556879,5.3128309 c 0,46.0785201 -37.354021,83.4325411 -83.432541,83.4325411 -46.07852,0 -83.432541,-37.354021 -83.432541,-83.4325411 0,-46.0785199 37.354021,-83.4325409 83.432541,-83.4325409 46.07852,0 83.432541,37.354021 83.432541,83.4325409 l 0,0 z" transform="matrix(0.09961508,0.3717685,-0.6102042,0.1635038,61.63528,48.661971)" id="path3090" style="fill:none;stroke:url(#linearGradient6556);stroke-width:1.85075164;stroke-linecap:round;stroke-linejoin:round;stroke-miterlimit:4;stroke-opacity:1;stroke-dasharray:none;stroke-dashoffset:1.08779998"/>
  </g>
</g>
<path d="M 88.307073,73.689672 C 84.616754,65.050361 78.796399,58.614301 73.8228,54.299068 c 5.68172,-0.263334 12.917764,-2.127729 21.062083,-7.741364 1.230561,-0.848852 1.749338,-2.649633 1.157434,-4.023031 -0.59203,-1.37453 -2.069022,-1.80007 -3.299208,-0.952067 -7.875949,5.42863 -14.718411,6.902578 -19.816599,6.915793 4.236928,-2.538648 9.662731,-7.218603 16.334792,-15.634391 0.98213,-1.237777 1.007671,-3.081914 0.05917,-4.117561 -0.951515,-1.036232 -2.514736,-0.87332 -3.495911,0.365985 -10.323427,13.022298 -16.76973,15.7946 -19.823826,16.241756 0.147837,-1.251306 0.01172,-2.408575 -0.386692,-3.305148 0.214727,-0.276945 0.412462,-0.592565 0.57381,-0.951106 0.596167,-1.324778 0.546144,-2.720654 -0.0493,-3.428757 l -1.646511,3.003533 c -0.05949,-0.03892 -0.116423,-0.08165 -0.179146,-0.115186 -0.06268,-0.03366 -0.128539,-0.05655 -0.193889,-0.08425 l 1.171155,-3.257713 c -0.878536,-0.07902 -1.921453,0.731423 -2.517625,2.056207 -0.16135,0.358537 -0.269978,0.721799 -0.339413,1.076427 -0.894293,0.205355 -1.817166,0.796368 -2.634456,1.689708 -1.544976,-2.906322 -3.479169,-10.158744 -0.351067,-27.029483 0.297199,-1.60503 -0.545416,-3.054369 -1.874294,-3.237483 -1.333204,-0.184438 -2.654106,0.967095 -2.951585,2.570958 -2.011083,10.844806 -2.0951,18.364744 -1.356506,23.568956 -3.110032,-4.417527 -6.22593,-11.208153 -7.101416,-21.233631 -0.138063,-1.580669 -1.351837,-2.592886 -2.709413,-2.260832 -1.358524,0.330517 -2.347755,1.880757 -2.209325,3.46061 0.913404,10.45995 3.990517,17.840945 7.279238,22.898822 -6.173419,-1.647226 -14.403264,-2.729062 -22.935021,-0.620941 -1.358025,0.33487 -2.344323,1.887698 -2.202515,3.467315 0.0875,0.964983 0.575288,1.717546 1.252013,2.079398 0.429801,0.229818 0.936009,0.3026 1.463538,0.171459 8.49396,-2.098753 16.858584,-0.610218 22.685416,1.162854 -6.66074,2.502569 -16.129834,8.850413 -28.410882,23.75291 -1.00146,1.215227 -1.061851,3.062154 -0.13365,4.124682 0.180924,0.20589 0.385489,0.368349 0.605337,0.485908 0.910474,0.486735 2.081853,0.215297 2.88875,-0.7641 10.834093,-13.145082 19.027963,-18.994414 24.695932,-21.493241 -1.003186,1.342816 -1.916119,2.865499 -2.680306,4.563619 -3.61367,8.030095 -2.630354,16.632873 2.197142,19.214209 4.826844,2.58096 11.669746,-1.837103 15.283412,-9.867178 0.763813,-1.697301 1.310813,-3.418714 1.670249,-5.105746 1.655816,6.41493 2.427609,17.060317 -0.477951,34.444879 -0.216651,1.295093 0.304061,2.471325 1.213838,2.957821 0.219777,0.117726 0.462853,0.194615 0.723024,0.224381 1.33932,0.14911 2.641894,-1.032793 2.911153,-2.639476 3.297475,-19.729689 2.095566,-31.785453 -0.173649,-39.057861 4.850135,3.928875 11.053559,10.229006 14.745118,18.871021 0.228805,0.53451 0.590434,0.926816 1.02087,1.156979 0.676697,0.361847 1.521529,0.322895 2.274855,-0.193546 1.230798,-0.845664 1.753623,-2.646322 1.165921,-4.021577 z" id="path3-1" style="fill:#e3e2db"/>
</svg>