<svg xmlns:dc="http://purl.org/dc/elements/1.1/" xmlns:cc="http://creativecommons.org/ns#" xmlns:svg="http://www.w3.org/2000/svg" xmlns="http://www.w3.org/2000/svg" version="1.1" width="128" height="128" viewBox="0 0 2048 2048" id="crm" xml:space="preserve" style="fill-rule:evenodd">
  <defs id="defs4">
    <style type="text/css" id="style6" />
  </defs>
  <g transform="matrix(1.2,0,0,1.2,-204.80004,-204.79995)" id="Layer_x0020_1">
    <g id="_337335048">
      <circle cx="1024" cy="1024" r="460.452" id="_337336272" style="fill:#fffffe" />
      <circle cx="1024" cy="1024" r="299.82599" id="_337335816" style="fill:#00afef" />
      <path d="m 959.848,1789.29 c -393.174,-32.7815 -703.849,-363.892 -703.849,-765.288 0,-158.307 48.3307,-305.686 130.978,-428.149 l 214.324,384.455 77.9894,139.896 c 42.1985,150.656 180.894,261.695 344.71,261.695 81.1571,0 156.137,-27.2681 216.288,-73.0902 l -280.441,480.481 z" id="_337334928" style="fill:#a8cf45" />
      <path d="m 913.942,1784.06 0.0295,-0.045 c 2.91024,0.4217 5.81457,0.861 8.7319,1.2591 -2.92559,-0.3886 -5.84528,-0.7937 -8.76142,-1.2142 z m 223.028,-1099.62 576.788,2.45551 c 50.0634,101.868 78.2434,216.292 78.2434,337.10499 0,423 -345.001,768.001 -768.001,768.001 -33.9792,0 -67.441,-2.2724 -100.273,-6.5953 11.9528,1.5851 23.9988,2.8713 36.1205,3.8823 l 280.441,-480.481 c 85.9501,-65.4733 141.608,-168.842 141.608,-284.807 0,-157.67498 -102.875,-292.07498 -244.928,-339.55998 z" id="_337335432" style="fill:#fff212" />
      <path d="m 1024,255.998 c 302.129,0 564.419,176.021 689.666,430.745 L 1172.8,684.43985 c 0.2953,0.0992 0.5882,0.19724 0.8823,0.29528 l -36.2729,-0.15355 c -35.6622,-11.9799 -73.7977,-18.4784 -113.41,-18.4784 -197.12302,0 -357.89702,160.774 -357.89702,357.89702 0,33.3107 4.60748,65.5725 13.1894,96.2068 l -77.9918,-139.90102 -214.303,-384.42 c 138.186,-204.769 372.301,-339.888 637.00202,-339.888 z" id="_337335240" style="fill:#ed3237" />
    </g>
  </g>
  <rect width="2048" height="2048" x="0" y="0" id="rect15" style="fill:none" />
</svg>