<svg xmlns:dc="http://purl.org/dc/elements/1.1/" xmlns:cc="http://creativecommons.org/ns#" xmlns:svg="http://www.w3.org/2000/svg" xmlns="http://www.w3.org/2000/svg" version="1.1" width="128" height="128" viewBox="0 0 48 48" id="fox">
  <defs id="defs4">
    <linearGradient x1="-226.75" x2="-170.39" id="5" gradientUnits="userSpaceOnUse">
      <stop id="stop7" style="stop-color:#de4000;stop-opacity:1" offset="0" />
      <stop id="stop9" style="stop-color:#fab600;stop-opacity:1" offset="1" />
    </linearGradient>
    <linearGradient x1="-335.91" y1="120.49" x2="-268.98999" y2="82.480003" id="4" gradientUnits="userSpaceOnUse">
      <stop id="stop12" style="stop-color:#ec3a00;stop-opacity:1" offset="0" />
      <stop id="stop14" style="stop-color:#ffb900;stop-opacity:0.016" offset="1" />
    </linearGradient>
    <linearGradient x1="-262.73999" y1="196.2" x2="-132.2" y2="241.35001" id="6" gradientUnits="userSpaceOnUse" gradientTransform="matrix(1,0,0,1.0085,2.747,1.166)">
      <stop id="stop17" style="stop-color:#f24d00;stop-opacity:1" offset="0" />
      <stop id="stop19" style="stop-color:#ffb000;stop-opacity:1" offset="1" />
    </linearGradient>
    <linearGradient x1="276.07001" y1="521.29999" x2="263.67999" y2="24.896" id="3" gradientUnits="userSpaceOnUse">
      <stop id="stop22" style="stop-color:#fc5500;stop-opacity:1" offset="0" />
      <stop id="stop24" style="stop-color:#ffc200;stop-opacity:1" offset="1" />
    </linearGradient>
    <linearGradient y1="537.65002" x2="0" y2="494.01999" id="1" gradientUnits="userSpaceOnUse">
      <stop id="stop27" style="stop-color:#178aff;stop-opacity:1" offset="0" />
      <stop id="stop29" style="stop-color:#1bbded;stop-opacity:1" offset="1" />
    </linearGradient>
    <linearGradient y1="542.20001" x2="0" y2="526.20001" id="0" gradientUnits="userSpaceOnUse">
      <stop id="stop32" style="stop-color:#d0d0d0;stop-opacity:1" offset="0" />
      <stop id="stop34" style="stop-color:#f1eeee;stop-opacity:1" offset="1" />
    </linearGradient>
    <linearGradient x1="395.92999" y1="539.09003" x2="396.04999" y2="513.03003" id="2" gradientUnits="userSpaceOnUse">
      <stop id="stop37" style="stop-color:#5043e2;stop-opacity:1" offset="0" />
      <stop id="stop39" style="stop-color:#418dff;stop-opacity:1" offset="1" />
    </linearGradient>
  </defs>
  <g transform="matrix(0.12911,0,0,0.12911,45.519,-3.628)" id="g41" style="fill:url(#1)">
    <circle cx="396.62" cy="526.60999" r="13.408" transform="matrix(13.0743,0,0,13.0743,-5346.94,-6674.14)" id="circle43" style="fill:url(#2)" />
    <path d="m 334.58,501.66 c -2.546,0 -4.969,0.486 -7.209,1.338 -0.163,0.15 -0.375,0.265 -0.542,0.25 -0.023,-0.002 -0.046,-0.017 -0.069,-0.026 -1.104,0.462 -2.151,1.028 -3.144,1.67 0.129,0.209 0.167,0.443 -0.099,0.556 -0.045,0.019 -0.606,0.076 -0.802,0.071 -2.824,2.052 -5.089,4.811 -6.536,8.03 0.023,-0.003 0.043,-0.014 0.067,-0.016 0.22,-0.003 0.536,0.06 0.747,0.104 0.195,0.04 0.352,0.171 0.52,0.183 0.478,0.036 0.593,-0.336 0.984,-0.544 0.403,0.057 0.671,-0.068 1.035,-0.028 0.248,0.028 0.427,0.293 0.621,0.308 0.163,0.016 0.306,-0.152 0.463,-0.128 0.153,0.024 0.417,0.357 0.442,0.544 0.032,0.233 -0.171,0.442 -0.104,0.698 0.244,0.248 0.687,0.299 1.035,0.442 0.227,-0.187 0.03,-0.534 0,-0.804 -0.003,-0.119 0.016,-0.225 0,-0.335 -0.021,-0.186 -0.101,-0.357 -0.103,-0.516 -0.003,-0.736 0.594,-1.081 1.088,-1.372 0.214,-0.127 0.382,-0.349 0.568,-0.442 0.262,-0.131 0.457,-0.162 0.674,-0.284 0.392,-0.22 0.728,-0.397 1.035,-0.647 0.142,-0.334 0.014,-0.782 0.026,-1.112 0.142,-0.087 0.264,0.038 0.414,0.026 0.237,-0.049 0.256,-0.383 0.39,-0.516 0.078,-0.077 0.291,-0.131 0.388,-0.207 0.236,-0.185 0.312,-0.464 0.518,-0.544 0.074,-0.03 0.244,-0.022 0.361,-0.053 0.153,-0.041 0.371,-0.222 0.621,-0.308 0.163,-0.057 0.535,-0.068 0.597,-0.13 0.077,-0.078 -10e-5,-0.297 0.026,-0.414 0.125,-0.584 1.01,-0.708 1.526,-0.905 0.365,-0.138 0.739,-0.391 1.139,-0.313 -0.079,0.278 -0.452,0.179 -0.388,0.516 0.087,0.468 0.714,-0.134 0.879,-0.203 0.316,-0.133 0.857,-0.214 1.271,-0.365 0.363,-0.133 1.015,-0.335 0.672,-0.751 -0.286,-0.016 -0.423,0.335 -0.672,0.442 -0.172,0.028 -0.139,-0.144 -0.286,-0.158 -0.139,-0.016 -0.217,0.129 -0.361,0.104 -0.142,-0.024 -0.342,-0.247 -0.365,-0.414 -0.057,-0.432 0.365,-0.61 0.544,-0.932 -0.118,-0.391 -0.659,-0.08 -0.986,-0.233 0.031,-0.233 0.272,-0.393 0.544,-0.438 0.223,-0.038 0.723,-0.018 0.855,0.1 0.077,0.065 0.004,0.229 0.13,0.337 0.132,0.119 0.294,0.107 0.465,0.079 0.062,-0.295 -0.383,-0.221 -0.335,-0.416 0.35,-0.229 0.918,-0.041 1.346,-0.104 0.246,-0.036 0.505,-0.21 0.723,-0.333 0.208,-0.118 0.477,-0.324 0.698,-0.13 0.06,0.211 -0.192,0.281 -0.309,0.386 -0.396,0.352 -0.804,0.756 -1.112,1.165 0.189,0.184 0.532,0.092 0.852,0.13 0.125,0.016 0.282,0.053 0.414,0.077 0.154,0.028 0.319,0.02 0.44,0.051 0.217,0.053 0.276,0.286 0.491,0.286 0.354,-1e-4 0.358,-0.384 0.158,-0.623 0.063,-0.244 0.163,-0.371 0.077,-0.542 -0.159,-0.319 -0.745,-0.016 -0.775,-0.414 -0.019,-0.258 0.216,-0.247 0.309,-0.44 -0.043,-0.499 0.409,-0.535 0.361,-0.982 -0.021,-0.187 -0.179,-0.19 -0.309,-0.365 -0.065,-0.086 -0.1,-0.251 -0.175,-0.325 -0.604,-0.054 -1.215,-0.087 -1.833,-0.087 m -10.416,4.072 h 0.002 c 0.121,0.017 0.266,0.147 0.412,0.158 0.138,0.003 0.252,-0.076 0.337,-0.053 0.216,0.057 0.308,0.384 0.104,0.544 -0.169,0.021 -0.235,-0.074 -0.363,-0.051 -0.351,0.06 -0.486,0.748 -0.749,0.725 -0.248,-0.021 -0.382,-0.625 -0.13,-0.804 0.016,-0.157 -0.114,-0.182 -0.106,-0.337 0.075,-0.095 0.287,-0.198 0.493,-0.181 m -1.165,0.081 c 0.072,0.002 0.126,0.02 0.154,0.051 -0.034,0.276 -0.25,0.258 -0.463,0.386 -0.368,0.222 -0.581,0.56 -0.698,1.035 -0.034,0.138 -0.397,0.504 -0.572,0.467 -0.41,-0.087 0.113,-0.843 0.207,-0.958 0.104,-0.127 0.243,-0.239 0.365,-0.386 0.118,-0.142 0.195,-0.335 0.309,-0.414 0.125,-0.087 0.482,-0.19 0.698,-0.181 m 3.063,0.93 c 0.131,0.002 0.25,0.024 0.304,0.077 -0.084,0.342 -0.821,0.252 -1.09,0.128 0.017,-0.129 0.219,-0.164 0.388,-0.181 0.119,-0.003 0.267,-0.028 0.398,-0.024 m -1.675,0.631 c 0.087,-0.002 0.176,0.017 0.268,0.041 -0.238,0.199 -0.496,0.312 -0.905,0.442 -0.197,0.062 -0.536,0.139 -0.57,-0.081 -0.041,-0.269 0.288,-0.207 0.467,-0.231 0.226,-0.031 0.474,-0.163 0.739,-0.171 m 25.704,1.534 c -0.031,0.073 -0.053,0.146 -0.049,0.217 0.016,0.125 0.153,0.245 0.183,0.414 0.016,0.089 -0.042,0.283 0,0.365 0.125,0.242 0.451,0.068 0.684,0.081 -0.265,-0.365 -0.53,-0.731 -0.818,-1.076 m 1.323,1.78 c -0.037,0.178 -0.158,0.411 -0.256,0.56 -0.226,0.343 -0.532,0.359 -0.855,0.542 -0.27,0.153 -0.386,0.408 -0.544,0.674 -0.171,0.287 -0.278,0.461 -0.207,0.877 -0.231,0.459 -0.581,0.74 -1.06,0.958 -0.142,0.064 -0.335,0.087 -0.465,0.181 -0.104,0.074 -0.162,0.274 -0.309,0.44 -0.182,0.202 -0.372,0.287 -0.467,0.442 -0.074,0.119 -0.1,0.356 -0.181,0.516 -0.11,0.217 -0.346,0.324 -0.491,0.544 -0.066,0.102 -0.11,0.308 -0.183,0.442 -0.164,0.298 -0.444,0.513 -0.414,0.775 0.03,0.253 0.317,0.298 0.337,0.518 0.003,0.125 -0.082,0.201 -0.077,0.337 0.003,0.199 0.138,0.338 0.154,0.491 0.038,0.384 -0.131,0.538 -0.203,0.8 -0.034,0.125 -0.02,0.267 -0.053,0.365 -0.063,0.192 -0.332,0.366 -0.337,0.593 -0.002,0.162 0.166,0.292 0.179,0.518 0.003,0.156 -0.077,0.323 -0.049,0.467 0.055,0.282 0.558,0.609 0.777,0.828 0.293,0.293 0.676,0.519 0.802,0.828 0.106,0.262 0.105,0.603 0.309,0.8 0.151,0.146 0.402,0.237 0.595,0.388 0.18,0.142 0.377,0.264 0.57,0.414 0.315,0.246 0.791,0.738 1.293,0.7 0.262,-0.019 0.531,-0.233 0.828,-0.286 0.306,-0.055 0.703,-0.083 1.011,-0.051 0.236,0.024 0.48,0.165 0.725,0.154 0.259,-0.016 0.557,-0.208 0.852,-0.337 0.237,-0.103 0.528,-0.218 0.848,-0.302 0.146,-0.985 0.225,-1.993 0.225,-3.02 0,-4.133 -1.236,-7.964 -3.351,-11.157 m -33.383,6.783 c -0.43,0.024 -0.712,0.043 -0.956,0.154 -0.56,0.255 -0.452,1.012 -1.011,1.191 -0.194,0.062 -0.459,0.065 -0.672,0.104 -0.184,0.034 -0.408,0.134 -0.597,0.13 -0.053,-10e-5 -0.127,-0.04 -0.193,-0.061 -0.05,0.355 -0.091,0.714 -0.122,1.074 0.532,0.102 0.807,0.807 1.277,1.041 0.129,0.064 0.297,0.067 0.463,0.104 0.134,0.03 0.236,0.087 0.365,0.13 0.274,0.093 0.609,0.082 0.828,0.179 0.33,0.146 0.572,0.766 0.855,0.932 0.016,0.167 -0.033,0.392 0.026,0.516 0.134,0.182 0.323,0.142 0.544,0.26 0.264,0.142 0.345,0.51 0.595,0.623 0.087,0.038 0.303,0.034 0.44,0.075 0.343,0.104 0.455,0.501 0.749,0.414 0.193,-0.057 0.178,-0.255 0.209,-0.44 0.127,-0.138 0.267,-0.357 0.465,-0.361 0.322,-0.016 0.35,0.332 0.467,0.645 0.066,0.176 0.239,0.33 0.284,0.516 0.08,0.322 0.04,1.284 -0.028,1.476 -0.081,0.236 -0.4,0.336 -0.597,0.597 -0.093,0.123 -0.137,0.302 -0.207,0.388 -0.127,0.154 -0.315,0.195 -0.41,0.337 -0.053,0.08 -0.105,0.252 -0.158,0.361 -0.155,0.329 -0.363,0.563 -0.233,0.958 0.055,0.163 0.309,0.272 0.309,0.463 10e-5,0.225 -0.479,0.427 -0.516,0.674 -0.028,0.184 0.149,0.512 0.207,0.751 0.043,0.181 0.384,0.294 0.491,0.414 0.182,0.204 0.327,0.493 0.493,0.749 0.328,0.504 0.585,1.118 0.905,1.606 0.169,0.256 0.406,0.486 0.518,0.751 0.057,0.134 0.05,0.294 0.102,0.414 0.185,0.417 1,0.853 1.423,1.06 0.197,0.096 0.416,0.13 0.597,0.231 0.274,0.153 0.818,0.564 0.956,0.804 0.123,0.216 0.2,0.742 0.26,1.086 0.08,0.454 10e-5,0.803 0.026,1.295 0.016,0.266 0.102,0.534 0.104,0.8 10e-5,0.093 -0.049,0.163 -0.053,0.258 0,0.016 0.004,0.033 0.004,0.049 2.542,1.15 5.359,1.806 8.34,1.806 0.539,0 1.071,-0.028 1.599,-0.069 0.023,-0.04 0.044,-0.081 0.073,-0.118 0.121,-0.159 0.229,-0.299 0.309,-0.44 0.077,-0.473 -0.188,-0.803 -0.077,-1.216 0.124,-0.465 0.766,-0.748 1.216,-0.958 0.155,-0.072 0.313,-0.189 0.44,-0.233 0.312,-0.108 0.701,-0.05 0.986,-0.154 0.485,-0.177 0.536,-0.698 0.775,-1.139 0.113,-0.209 0.262,-0.419 0.284,-0.568 0.019,-0.134 -0.049,-0.26 -0.028,-0.418 0.023,-0.156 0.164,-0.291 0.207,-0.463 0.057,-0.224 0.081,-0.553 0.081,-0.802 0,-0.205 -0.096,-0.385 -0.104,-0.57 -0.034,-0.671 0.242,-0.746 0.491,-1.112 0.125,-0.181 0.171,-0.388 0.258,-0.518 0.417,-0.622 1.14,-0.922 1.088,-1.863 -0.017,-0.311 -0.213,-1.014 -0.442,-1.114 -0.131,-0.057 -0.431,-0.003 -0.621,-0.077 -0.612,-0.228 -0.971,-0.986 -1.605,-1.035 -0.135,-0.016 -0.26,0.055 -0.412,0.053 -0.251,-0.016 -0.629,-0.176 -0.907,-0.207 -0.176,-0.019 -0.412,0.053 -0.518,0 -0.162,-0.079 -0.178,-0.376 -0.309,-0.465 -0.104,-0.072 -0.307,-0.096 -0.465,-0.158 -0.255,-0.098 -0.457,-0.212 -0.751,-0.233 -0.091,-0.003 -0.204,0.044 -0.309,0.028 -0.163,-0.028 -0.291,-0.22 -0.442,-0.311 -0.188,-0.114 -0.362,-0.17 -0.44,-0.333 0.17,-0.557 -0.3,-0.713 -0.414,-1.035 -0.055,-0.151 -0.03,-0.333 -0.077,-0.467 -0.068,-0.193 -0.258,-0.304 -0.467,-0.465 -0.374,-0.288 -0.707,-0.559 -1.242,-0.625 -0.235,-0.03 -0.469,0.071 -0.753,0.053 -0.301,-0.019 -0.679,-0.283 -0.905,-0.54 -0.219,-0.251 -0.326,-0.477 -0.516,-0.597 -0.181,-0.116 -0.421,-0.113 -0.544,-0.231 -0.055,-0.051 -0.046,-0.139 -0.104,-0.26 -0.091,-0.188 -0.243,-0.293 -0.13,-0.518 -0.206,-0.106 -0.212,0.197 -0.438,0.158 -0.201,-0.286 -0.371,-0.421 -0.828,-0.337 -0.209,0.038 -0.326,0.303 -0.57,0.309 -0.2,0.016 -0.357,-0.223 -0.621,-0.26 -0.199,-0.028 -0.426,0.054 -0.568,0.028 -0.221,-0.044 -0.289,-0.228 -0.491,-0.361 -0.148,-0.097 -0.435,-0.263 -0.518,-0.26 -0.26,0.016 -0.445,0.553 -0.804,0.363 -0.174,-0.221 0.284,-0.337 0.077,-0.544 -0.157,-0.157 -0.289,0.071 -0.414,0.158 -0.144,0.099 -0.279,0.197 -0.438,0.256 -0.355,0.133 -0.578,0.063 -0.855,0.207 -0.257,0.133 -0.268,0.356 -0.414,0.621 -0.119,0.217 -0.391,0.533 -0.57,0.546 -0.217,0.016 -0.424,-0.303 -0.621,-0.388 -0.593,-0.257 -0.88,0.228 -1.372,0.235 -0.457,0.016 -1.109,-0.738 -1.086,-1.167 0.003,-0.262 0.151,-0.659 0.181,-0.984 0.028,-0.258 0.204,-0.413 0.207,-0.649 0.003,-0.314 -0.417,-0.556 -0.621,-0.593 -0.483,-0.089 -1.155,0.195 -1.709,-0.028 -0.106,-0.175 0.124,-0.297 0.183,-0.467 0.034,-0.097 0.014,-0.226 0.049,-0.333 0.061,-0.165 0.234,-0.293 0.311,-0.467 0.058,-0.133 0.072,-0.325 0.13,-0.491 0.068,-0.188 0.192,-0.309 0.207,-0.442 0.019,-0.174 -0.047,-0.376 -0.183,-0.491 m 6.918,5.478 c 0.175,0.016 0.197,0.379 0.018,0.408 -0.194,0.03 -0.292,-0.303 -0.104,-0.39 0.032,-0.016 0.062,-0.017 0.087,-0.016 v -0.002" transform="matrix(8.69668,0,0,8.69668,-3070.7,-4327.53)" id="path45" style="opacity:0.447;fill:#272370" />
    <path d="m 532.57,174.03 -6.178,39.625 c 0,0 -8.829,-73.36 -19.651,-100.79 -16.587,-42.03 -23.966,-41.688 -24.02,-41.626 11.11,28.23 9.09,43.4 9.09,43.4 0,0 -19.683,-53.645 -71.72,-70.71 -57.649,-18.897 -88.84,-13.73 -92.44,-12.753 -0.547,-0.004 -1.075,-0.005 -1.577,-0.005 0.424,0.033 0.839,0.077 1.263,0.11 -0.019,0.011 -0.047,0.022 -0.042,0.028 0.233,0.285 63.7,11.09 74.956,26.56 0,0 -26.958,0 -53.787,7.731 -1.213,0.347 98.71,12.481 119.14,112.33 0,0 -10.955,-22.852 -24.502,-26.733 8.909,27.1 6.622,78.53 -1.862,104.09 -1.092,3.287 -2.209,-14.209 -18.921,-21.745 5.355,38.36 -0.32,99.2 -26.931,115.95 -2.074,1.305 16.682,-60.06 3.771,-36.33 -74.33,113.96 -162.19,52.59 -201.69,25.579 20.243,4.406 58.674,-0.686 75.68,-13.341 0.022,-0.015 0.04,-0.028 0.062,-0.045 18.473,-12.631 29.412,-21.854 39.24,-19.672 9.83,2.194 16.374,-7.671 8.739,-16.423 -7.644,-8.769 -26.2,-20.821 -51.31,-14.254 -17.708,4.638 -39.654,24.23 -73.15,4.392 -25.71,-15.234 -28.13,-27.889 -28.359,-36.654 0.634,-3.107 1.434,-6.01 2.383,-8.659 2.959,-8.265 11.933,-10.759 16.924,-12.728 8.467,1.454 15.761,4.095 23.421,8.02 0.099,-2.549 0.131,-5.933 -0.009,-9.771 0.734,-1.459 0.28,-5.86 -0.897,-11.24 -0.678,-5.369 -1.781,-10.924 -3.517,-15.985 0.006,-1e-4 0.001,-0.005 0.016,-0.007 0.029,-0.001 0.056,-0.021 0.082,-0.037 0.041,-0.023 0.076,-0.059 0.108,-0.099 0.006,-0.001 0.016,-0.017 0.023,-0.027 0.043,-0.064 0.08,-0.142 0.103,-0.243 0.531,-2.405 6.262,-7.04 13.395,-12.03 6.392,-4.469 13.907,-9.217 19.827,-12.892 5.24,-3.254 9.229,-5.668 10.08,-6.301 0.321,-0.243 0.707,-0.527 1.127,-0.852 0.078,-0.061 0.156,-0.121 0.236,-0.185 0.049,-0.038 0.099,-0.077 0.149,-0.117 2.817,-2.244 7.02,-6.483 7.905,-15.405 0.002,-0.022 0.005,-0.042 0.006,-0.064 0.026,-0.262 0.048,-0.528 0.067,-0.799 0.015,-0.188 0.026,-0.378 0.038,-0.571 0.007,-0.148 0.017,-0.295 0.023,-0.445 0.016,-0.352 0.026,-0.711 0.031,-1.075 0,-0.021 1e-4,-0.04 0.002,-0.061 0.012,-0.864 -0.003,-1.764 -0.054,-2.709 -0.028,-0.528 -0.065,-1 -0.155,-1.438 -0.004,-0.023 -10e-4,-0.048 -0.015,-0.071 -0.009,-0.042 -0.019,-0.085 -0.03,-0.127 -0.019,-0.076 -0.04,-0.152 -0.063,-0.224 -0.003,-0.009 -0.006,-0.017 -0.009,-0.024 -0.027,-0.083 -0.058,-0.164 -0.09,-0.242 -0.002,-0.003 -0.002,-0.005 -0.003,-0.008 -0.913,-2.139 -4.333,-2.947 -18.459,-3.187 -0.013,-1e-4 -0.026,-1e-4 -0.039,-1e-4 -5.764,-0.098 -13.301,-0.102 -23.18,-0.062 -17.317,0.07 -26.889,-16.929 -29.944,-23.506 4.188,-23.16 16.29,-39.657 36.17,-50.847 0.376,-0.212 0.302,-0.387 -0.142,-0.509 3.887,-2.352 -47,-0.064 -70.41,29.707 -20.775,-5.164 -38.882,-4.816 -54.49,-1.154 -2.997,-0.084 -6.731,-0.458 -11.164,-1.381 -10.379,-9.404 -25.24,-26.772 -26.03,-47.5 0,0 -0.048,0.038 -0.131,0.106 -0.011,-0.199 -0.03,-0.396 -0.038,-0.595 0,0 -31.623,24.304 -26.89,90.56 -0.012,1.061 -0.034,2.076 -0.062,3.06 -8.558,11.608 -12.805,21.365 -13.12,23.519 -7.581,15.44 -15.276,38.675 -21.538,73.949 0,0 4.379,-13.888 13.169,-29.618 -6.464,19.803 -11.544,50.603 -8.561,96.8 0,0 0.789,-10.243 3.58,-24.997 2.181,28.652 11.729,64.02 35.864,105.62 46.33,79.85 117.54,120.18 196.25,126.36 13.977,1.152 28.15,1.179 42.41,0.096 1.311,-0.092 2.621,-0.188 3.931,-0.299 16.13,-1.132 32.361,-3.568 48.562,-7.481 221.44,-53.54 197.37,-320.94 197.37,-320.94" transform="matrix(0.6971,0,0,0.69604,-352.55,42.24)" id="path47" style="fill:url(#3)" />
    <g id="g49" style="fill-rule:evenodd">
      <path d="m -328.74,133.5 c 9.444,-17.436 18.319,-28.874 37.579,-32.29 -10.833,-10.328 -13.918,-16.07 -18.906,-33.725 -19.268,20.841 -19.14,42.494 -18.673,66.01" id="path51" style="fill:url(#4)" />
      <path d="m -208.66,177.1 c 11.229,-14.766 46.34,-22.761 36.03,-43.12 -24.18,-6.162 -39.33,5.305 -48.945,-17.389 -8.297,31.981 2.876,47.39 12.917,60.51" id="path53" style="fill:url(#5)" />
      <path d="m -228.84,197.98 c -47.28,4.698 -39.13,30.09 -35.778,55.49 l 12.11,-10.09 c 8.495,24.705 58.644,20.754 86.45,12.11 12.664,-3.938 23.918,-2.969 28.817,-0.962 13.796,2.961 12.874,-8.73 6.842,-12.208 -33.02,-37.592 -63.52,34.659 -104.22,-26.704 -2.488,-3.752 -0.037,-9.9 5.786,-17.635" id="path55" style="fill:url(#6)" />
    </g>
  </g>
</svg>