<svg xmlns:dc="http://purl.org/dc/elements/1.1/" xmlns:cc="http://creativecommons.org/ns#" xmlns:svg="http://www.w3.org/2000/svg" xmlns="http://www.w3.org/2000/svg" version="1.1" width="128" height="128" viewBox="0 0 256 256" id="svg2" xml:space="preserve">
  <defs id="defs52" />
  <style type="text/css" id="style4" />
  <filter color-interpolation-filters="sRGB" id="AI_GaussianBlur_4">
    <feGaussianBlur id="feGaussianBlur7" stdDeviation="4" />
  </filter>
  <g id="the_e">
    <radialGradient cx="143.5159" cy="115.7612" r="104.4259" fx="138.9545" fy="113.5903" id="SVGID_1_" gradientUnits="userSpaceOnUse" gradientTransform="matrix(0.6237,0.7816,-0.7859,0.6271,144.9713,-69.0107)">
      <stop id="stop11" style="stop-color:#89eafe;stop-opacity:1" offset="0" />
      <stop id="stop13" style="stop-color:#86e8fd;stop-opacity:1" offset="0.2624" />
      <stop id="stop15" style="stop-color:#7ddff9;stop-opacity:1" offset="0.4357" />
      <stop id="stop17" style="stop-color:#6ed2f2;stop-opacity:1" offset="0.58319998" />
      <stop id="stop19" style="stop-color:#59bee9;stop-opacity:1" offset="0.71630001" />
      <stop id="stop21" style="stop-color:#3ea5dd;stop-opacity:1" offset="0.83969998" />
      <stop id="stop23" style="stop-color:#1c87cf;stop-opacity:1" offset="0.9544" />
      <stop id="stop25" style="stop-color:#0d79c8;stop-opacity:1" offset="1" />
    </radialGradient>
    <path d="m 100.5,117.8 c 2.6,-23.3 21,-42 43.9,-42 25.7,0 43.4,18 45,42 h -88.9 z m 84.2,49.2 c -6.5,13.4 -20,22.1 -40.4,22.6 -28.3,0.7 -43.2,-23.4 -43.9,-44.1 h 84 4.9 56.9 c 0.5,-4.2 0.8,-8.4 0.8,-12.8 C 247,76.3 201.3,30.6 144.9,30.6 88.5,30.6 42.8,76.3 42.8,132.7 c 0,56.4 45.7,102.1 102.1,102.1 44.4,0 82.1,-28.3 96.2,-67.8 h -56.4 z" id="path27" style="fill:url(#SVGID_1_);stroke:#2064a9;stroke-miterlimit:10" />
  </g>
  <g id="halo">
    <linearGradient x1="237.8817" y1="64.2799" x2="234.5647" y2="79.694397" id="SVGID_2_" gradientUnits="userSpaceOnUse">
      <stop id="stop31" style="stop-color:#ffb700;stop-opacity:1" offset="0" />
      <stop id="stop33" style="stop-color:#ffb700;stop-opacity:0" offset="0.8599" />
    </linearGradient>
    <path d="m 235.5,63.7 c -0.8,3.1 -1.6,5.8 -2.1,8.1 -0.4,1.8 -0.6,7.1 -0.6,7.1 0,0 3.8,-2.4 4.7,-3.6 0.8,-1.1 1.9,-5.8 2.9,-10.5 l -4.9,-1.1 z" id="path35" style="fill:url(#SVGID_2_);fill-opacity:0.95" />
    <path d="m 240.6,65 c 0.7,-3.1 1.3,-6.3 1.6,-8.5 1.3,-8.1 4,-51.3 -53.7,-39 C 111.1,33.9 68.3,94.6 61.5,103 48.6,119 10.2,180.8 20.3,218.8 26.2,241 49.8,240.9 67,237.4 l -1.2,-6.1 C 36.6,236 32.2,213.8 36.2,196.5 41.1,174.9 57,139.4 108.4,89.4 154,45 202.4,20.2 227.6,32.5 241,39 238.4,53.1 235.5,63.9 l 5.1,1.1 z" id="path37" style="fill:#ffb700;fill-opacity:0.95" />
    <g id="g39" style="filter:url(#AI_GaussianBlur_4)">
      <path d="M 188.5,17.5 C 111.1,33.9 68.3,94.6 61.5,103 c -8.1,10 -26.1,38 -36,66.8 -0.6,2.3 -1.3,4.6 -2.1,6.6 0,0 0,0 0,0 C 55.2,94.9 134.2,37.2 191.6,16.9 c -1,0.2 -2.1,0.4 -3.1,0.6 z" id="path41" style="fill:#ffffa6" />
    </g>
    <linearGradient x1="66.431" y1="235.12711" x2="87.932899" y2="226.49921" id="SVGID_3_" gradientUnits="userSpaceOnUse">
      <stop id="stop44" style="stop-color:#ffb700;stop-opacity:1" offset="0" />
      <stop id="stop46" style="stop-color:#ffb700;stop-opacity:0" offset="1" />
    </linearGradient>
    <path d="m 67,237.3 c 9.4,-2 17.1,-5 18.8,-5.9 1.6,-0.9 7.1,-3.9 12.1,-6.9 L 93.5,222 c -2.4,0.9 -5.2,2 -8.3,3.3 -7.3,3 -13.9,4.9 -19.4,5.7 l 1.2,6.3 z" id="path48" style="fill:url(#SVGID_3_);fill-opacity:0.95" />
  </g>
</svg>