<?xml version="1.0" encoding="UTF-8" standalone="no"?>
<svg xmlns:dc="http://purl.org/dc/elements/1.1/" xmlns:cc="http://creativecommons.org/ns#" xmlns:svg="http://www.w3.org/2000/svg" xmlns="http://www.w3.org/2000/svg" version="1.1" id="mxt" height="128" width="128">
<defs id="defs19"/>
<filter height="1.3" id="dropshadow">
  <feGaussianBlur id="feGaussianBlur5" stdDeviation="2" in="SourceAlpha"/>
  <feOffset id="feOffset7" result="offsetblur" dy="1" dx="0"/>
</filter>
<g transform="matrix(0.475,0,0,0.475,3.1999973,4.307503)" id="g4149">
  <path d="M 5,3 251,3 251,249 5,249 5,3 Z" style="opacity:0.6;filter:url(#dropshadow)" id="path9"/>
  <path d="M 5,3 251,3 251,249 5,249 5,3 Z" style="fill:#ffffff" id="path11"/>
  <path d="m 10.5,208 c 47,-24 48,-24 106,-34 17,-10 95,20 130,30 l 0,40 -238,0 1.5,-36 z" style="fill:#a6d3fc" id="path13"/>
  <path d="M 5,3 251,3 251,249 5,249 5,3 Z m 241,201 c -2,0 -10,2 -16,6 0,4 0,6 -2,9 -8,-28 -35,-35 -55,-21 l 3,-9 c -40,-30 -80,-12 -101,14 0,0 -1,-5 5,-14 -13,-6 -36,3 -42,11 l 8,7 c -12,-5 -27,-1 -36,2 l 0,35 236,0 0,-39 z m -157,-94 79,0 0,64 6,4 33,0 0,-73 C 207,78 180,70 167,70 l -117,0 0,108 39,0 0,-68 z m 59,58 0,-38 -39,0 0,38 c 10,-3 26,-4 39,-1 z" style="fill:#0080f5" id="path15"/>
</g>
</svg>