<svg xmlns:dc="http://purl.org/dc/elements/1.1/" xmlns:cc="http://creativecommons.org/ns#" xmlns:svg="http://www.w3.org/2000/svg" xmlns="http://www.w3.org/2000/svg" xmlns:xlink="http://www.w3.org/1999/xlink" version="1.0" id="nsf" height="128" width="128">
  <defs id="defs2814">
    <linearGradient id="linearGradient3974">
      <stop style="stop-color:#ffffff;stop-opacity:1" offset="0" id="stop3976" />
      <stop style="stop-color:#ffffff;stop-opacity:0" offset="1" id="stop3978" />
    </linearGradient>
    <linearGradient id="linearGradient3723">
      <stop style="stop-color:#97b5fe;stop-opacity:1" offset="0" id="stop3725" />
      <stop id="stop3741" offset="0.93684876" style="stop-color:#cd891c;stop-opacity:1" />
      <stop id="stop3739" offset="0.96844876" style="stop-color:#b76617;stop-opacity:1" />
      <stop style="stop-color:#902207;stop-opacity:1" offset="1" id="stop3727" />
    </linearGradient>
    <filter style="color-interpolation-filters:sRGB" id="filter3868">
      <feGaussianBlur stdDeviation="1.4023757" id="feGaussianBlur3870" />
    </filter>
    <linearGradient id="linearGradient3714">
      <stop style="stop-color:#ffffff;stop-opacity:1;" offset="0" id="stop3716" />
      <stop style="stop-color:#ffffff;stop-opacity:0;" offset="1" id="stop3718" />
    </linearGradient>
    <linearGradient xlink:href="#linearGradient3714" id="linearGradient3725" gradientUnits="userSpaceOnUse" x1="3031.7656" y1="193.06755" x2="3310.2007" y2="369.84424" gradientTransform="translate(-998.9043,45.797892)" />
    <linearGradient id="linearGradient3595">
      <stop style="stop-color:#63220f;stop-opacity:1;" offset="0" id="stop3597" />
      <stop id="stop3603" offset="0.5" style="stop-color:#711107;stop-opacity:1;" />
      <stop style="stop-color:#63220f;stop-opacity:1" offset="0.94999999" id="stop3605" />
      <stop style="stop-color:#2b2014;stop-opacity:1" offset="1" id="stop3599" />
    </linearGradient>
    <radialGradient xlink:href="#linearGradient3595" id="radialGradient3601" cx="2692.6335" cy="291.09601" fx="2692.6335" fy="291.09601" r="196.68086" gradientTransform="matrix(1.9235854,1.1863505,-1.4772521,2.3952623,-3092.7663,-3644.6948)" gradientUnits="userSpaceOnUse" />
    <linearGradient id="linearGradient3925">
      <stop style="stop-color:#3a3204;stop-opacity:1" offset="0" id="stop3927" />
      <stop style="stop-color:#aa8f00;stop-opacity:1" offset="1" id="stop3929" />
    </linearGradient>
    <radialGradient xlink:href="#linearGradient3925" id="radialGradient3593" gradientUnits="userSpaceOnUse" gradientTransform="matrix(2.8539077,-0.4364077,1.2940248,8.4568759,-522.3293,-1748.8054)" cx="661.41833" cy="554.65344" fx="661.41833" fy="554.65344" r="70.120392" />
    <clipPath clipPathUnits="userSpaceOnUse" id="clipPath3695">
      <circle r="300" cy="-116.20924" cx="114.28571" transform="matrix(1.0654523,0,0,1.0661205,2765.1432,512.27121)" id="path3697" style="opacity:1;fill:url(#radialGradient3699);fill-opacity:1;stroke:none;stroke-width:16.68700027;stroke-linejoin:round;stroke-miterlimit:4;stroke-dasharray:none;stroke-opacity:1" />
    </clipPath>
    <filter id="filter3943" x="-0.74333668" width="2.4866734" y="-0.74333668" height="2.4866734">
      <feGaussianBlur stdDeviation="33.62542" id="feGaussianBlur3945" />
    </filter>
    <clipPath clipPathUnits="userSpaceOnUse" id="clipPath3957">
      <circle r="300" cy="-116.20924" cx="114.28571" transform="matrix(0.5953998,0,0,0.9433077,2355.0119,735.995)" id="path3959" style="opacity:1;fill:url(#radialGradient3961);fill-opacity:1;stroke:none;stroke-width:16.68700027;stroke-linejoin:round;stroke-miterlimit:4;stroke-dasharray:none;stroke-opacity:1" />
    </clipPath>
    <linearGradient id="linearGradient3947">
      <stop style="stop-color:#e1e5ee;stop-opacity:1" offset="0" id="stop3949" />
      <stop style="stop-color:#14e5e5;stop-opacity:0;" offset="1" id="stop3951" />
    </linearGradient>
    <linearGradient xlink:href="#linearGradient3947" id="linearGradient3953" x1="2417.0195" y1="907.40247" x2="2417.0195" y2="757.06" gradientUnits="userSpaceOnUse" />
    <linearGradient id="linearGradient3623">
      <stop style="stop-color:#ffffff;stop-opacity:1;" offset="0" id="stop3625" />
      <stop id="stop3631" offset="0.65929979" style="stop-color:#ffffff;stop-opacity:0.49803922;" />
      <stop style="stop-color:#ffffff;stop-opacity:0;" offset="1" id="stop3627" />
    </linearGradient>
    <linearGradient xlink:href="#linearGradient3623" id="linearGradient3629" x1="114.28571" y1="-416.20926" x2="114.28571" y2="30.625751" gradientUnits="userSpaceOnUse" />
    <linearGradient id="linearGradient4094">
      <stop style="stop-color:#ffffff;stop-opacity:1;" offset="0" id="stop4096" />
      <stop style="stop-color:#ffffff;stop-opacity:0;" offset="1" id="stop4098" />
    </linearGradient>
    <linearGradient xlink:href="#linearGradient4094" id="linearGradient4100" x1="2643.0312" y1="48.46875" x2="2643.0312" y2="486.83426" gradientUnits="userSpaceOnUse" />
    <linearGradient id="linearGradient3473">
      <stop style="stop-color:#d5cece;stop-opacity:1" offset="0" id="stop3475" />
      <stop id="stop3481" offset="0.33733538" style="stop-color:#94b2fd;stop-opacity:1" />
      <stop style="stop-color:#444470;stop-opacity:1" offset="0.86746705" id="stop3483" />
      <stop style="stop-color:#344671;stop-opacity:1" offset="1" id="stop3477" />
    </linearGradient>
    <radialGradient xlink:href="#linearGradient3473" id="radialGradient3479" cx="2540.5825" cy="236.37978" fx="2540.5825" fy="236.37978" r="290.58035" gradientTransform="matrix(0.8877745,1.5376705,-1.6555648,0.9558408,-154.50548,-3907.7931)" gradientUnits="userSpaceOnUse" />
    <linearGradient id="linearGradient3463">
      <stop id="stop3465" offset="0" style="stop-color:#94b2fd;stop-opacity:1" />
      <stop style="stop-color:#345ec5;stop-opacity:1" offset="0.24937803" id="stop3471" />
      <stop style="stop-color:#050560;stop-opacity:1" offset="0.83126009" id="stop3467" />
      <stop id="stop3469" offset="1" style="stop-color:#0b2e83;stop-opacity:1" />
    </linearGradient>
    <radialGradient xlink:href="#linearGradient3463" id="radialGradient3727" gradientUnits="userSpaceOnUse" gradientTransform="matrix(0.8652191,1.4976642,-1.4995434,0.8652191,-431.55972,-14.98531)" cx="-15.766444" cy="-286.37698" fx="-15.766444" fy="-286.37698" r="300" />
    <linearGradient y2="369.84424" x2="3310.2007" y1="193.06755" x1="3031.7656" gradientTransform="translate(-2484.341,2.237608)" gradientUnits="userSpaceOnUse" id="linearGradient3781" xlink:href="#linearGradient3714" />
    <radialGradient r="196.68086" fy="291.09601" fx="2692.6335" cy="291.09601" cx="2692.6335" gradientTransform="matrix(1.9235854,1.1863505,-1.4772521,2.3952623,-4578.203,-3688.2551)" gradientUnits="userSpaceOnUse" id="radialGradient3784" xlink:href="#linearGradient3595" />
    <radialGradient r="70.120392" fy="554.65344" fx="661.41833" cy="554.65344" cx="661.41833" gradientTransform="matrix(2.8539077,-0.4364077,1.2940248,8.4568759,-2007.766,-1792.3657)" gradientUnits="userSpaceOnUse" id="radialGradient3787" xlink:href="#linearGradient3925" />
    <radialGradient r="290.58035" fy="236.37978" fx="2540.5825" cy="236.37978" cx="2540.5825" gradientTransform="matrix(0.8877745,1.5376705,-1.6555648,0.9558408,-1639.9422,-3951.3534)" gradientUnits="userSpaceOnUse" id="radialGradient3795" xlink:href="#linearGradient3473" />
    <radialGradient r="300" fy="-286.37698" fx="-15.766444" cy="-286.37698" cx="-15.766444" gradientTransform="matrix(0.8652191,1.4976642,-1.4995434,0.8652191,-431.55972,-14.98531)" gradientUnits="userSpaceOnUse" id="radialGradient3842" xlink:href="#linearGradient3463" />
    <linearGradient y2="486.83426" x2="2643.0312" y1="48.46875" x1="2643.0312" gradientUnits="userSpaceOnUse" id="linearGradient3846" xlink:href="#linearGradient4094" />
    <linearGradient y2="30.625751" x2="114.28571" y1="-416.20926" x1="114.28571" gradientUnits="userSpaceOnUse" id="linearGradient3848" xlink:href="#linearGradient3623" />
    <linearGradient y2="757.06" x2="2417.0195" y1="907.40247" x1="2417.0195" gradientUnits="userSpaceOnUse" id="linearGradient3850" xlink:href="#linearGradient3947" />
    <radialGradient r="290.58035" fy="236.37978" fx="2540.5825" cy="236.37978" cx="2540.5825" gradientTransform="matrix(0.8877745,1.5376705,-1.6555648,0.9558408,-1637.0851,-3951.3534)" gradientUnits="userSpaceOnUse" id="radialGradient6995" xlink:href="#linearGradient3473" />
    <radialGradient r="70.120392" fy="554.65344" fx="661.41833" cy="554.65344" cx="661.41833" gradientTransform="matrix(2.4740756,-0.3784474,1.1218005,7.3336992,-1700.4475,-3218.6514)" gradientUnits="userSpaceOnUse" id="radialGradient7103" xlink:href="#linearGradient3925" />
    <radialGradient r="64.849998" fy="487.79675" fx="521.68762" cy="487.79675" cx="521.68762" gradientTransform="matrix(3.0327535,3.0327535,-4.2755994,4.2755994,761.13945,-3310.5094)" gradientUnits="userSpaceOnUse" id="radialGradient7105" xlink:href="#linearGradient3723" />
    <linearGradient y2="472.44424" x2="637.41968" y1="443.93588" x1="624.82196" gradientTransform="matrix(2.5028529,0,0,2.5028529,-1099.9524,-869.65473)" gradientUnits="userSpaceOnUse" id="linearGradient7107" xlink:href="#linearGradient3974" />
    <linearGradient y2="464.69778" x2="658.98041" y1="456.05359" x1="619.42517" gradientTransform="matrix(2.3931278,0.7329475,-0.7329475,2.3931278,-761.12228,-1172.0837)" gradientUnits="userSpaceOnUse" id="linearGradient7109" xlink:href="#linearGradient3974" />
    <linearGradient y2="477.94122" x2="648.41357" y1="448.05859" x1="615.20227" gradientTransform="matrix(1.3009036,0,0,1.3009036,-451.46256,-104.59291)" gradientUnits="userSpaceOnUse" id="linearGradient7111" xlink:href="#linearGradient3974" />
    <linearGradient y2="465.31543" x2="636.02899" y1="439.26407" x1="613.49371" gradientTransform="matrix(1.1310487,-0.6427126,0.6427126,1.1310487,-652.77859,453.67786)" gradientUnits="userSpaceOnUse" id="linearGradient7113" xlink:href="#linearGradient3974" />
    <linearGradient y2="463.80276" x2="648.10144" y1="451.34958" x1="621.26678" gradientTransform="matrix(-2.4175702,-0.6477859,-0.6477859,2.4175702,2473.1425,-363.85328)" gradientUnits="userSpaceOnUse" id="linearGradient7115" xlink:href="#linearGradient3974" />
    <linearGradient y2="464.69778" x2="658.98041" y1="456.05359" x1="619.42517" gradientTransform="matrix(-2.2443257,-1.1078245,-1.1078245,2.2443257,2565.0415,173.28444)" gradientUnits="userSpaceOnUse" id="linearGradient7117" xlink:href="#linearGradient3974" />
    <linearGradient y2="477.94122" x2="648.41357" y1="448.05859" x1="615.20227" gradientTransform="matrix(-0.7941259,-1.0303953,-1.0303953,0.7941259,1563.7034,840.7514)" gradientUnits="userSpaceOnUse" id="linearGradient7119" xlink:href="#linearGradient3974" />
    <linearGradient y2="468.9613" x2="636.58539" y1="448.05859" x1="615.20227" gradientTransform="matrix(-0.7941259,-1.0303953,-1.0303953,0.7941259,1508.73,906.00435)" gradientUnits="userSpaceOnUse" id="linearGradient7121" xlink:href="#linearGradient3974" />
    <linearGradient y2="458.77438" x2="624.63568" y1="439.23151" x1="608.88257" gradientTransform="matrix(0.3133331,-1.2626055,-1.2626055,-0.3133331,860.61322,1553.9765)" gradientUnits="userSpaceOnUse" id="linearGradient7123" xlink:href="#linearGradient3974" />
    <linearGradient y2="460.20789" x2="643.65839" y1="438.06747" x1="608.29437" gradientTransform="matrix(-0.4106284,-1.2343965,-1.2343965,0.4106284,1270.5145,1226.0468)" gradientUnits="userSpaceOnUse" id="linearGradient7125" xlink:href="#linearGradient3974" />
    <linearGradient y2="472.60571" x2="685.43713" y1="448.05859" x1="615.20227" gradientTransform="matrix(0.2353491,2.0707732,0.7640493,-0.6378577,78.444092,-907.3041)" gradientUnits="userSpaceOnUse" id="linearGradient7127" xlink:href="#linearGradient3974" />
  </defs>
  <metadata id="metadata2817"></metadata>
  <g transform="translate(-34.285713,-575.79075)" id="layer1">
    <g transform="matrix(0.18,0,0,0.18,29.783849,576.9564)" id="g4237">
      <g id="g7055">
        <circle style="fill:url(#radialGradient3842);fill-opacity:1;stroke:none;stroke-width:16.68700027;stroke-linejoin:round;stroke-miterlimit:4;stroke-dasharray:none;stroke-opacity:1" id="path2649" transform="matrix(1.0654523,0,0,1.0661205,246.65214,468.71093)" cx="114.28571" cy="-116.20924" r="300" />
        <path style="fill:#000000;fill-opacity:1;stroke:none;stroke-width:16.68700027;stroke-linejoin:round;stroke-miterlimit:4;stroke-dasharray:none;stroke-opacity:1" d="m 369.85934,39.448395 c -6.0977,0 -12.427,-2.5158 -18.4699,-2.1596 l -2.461,0.188 c 0,10e-5 -9.2679,-0.7716 -12.4155,-0.247 0.7675,0.7494 0.0298,0.3758 0.0416,1.0731 0.0707,0.8734 -0.8196,0.4359 0.2689,0.3847 3.2656,-0.1531 4.2022,-0.4492 3.4143,1.6043 -0.413,1.0762 -2.1526,1.4426 -6.6404,1.4384 -6.5648,-0.0064 -14.3824,1.812 -14.3824,3.3355 10e-5,0.5176 1.322,0.9487 2.9376,0.9487 2.7744,-10e-5 2.9378,0.2173 2.9378,3.9168 10e-5,3.3093 0.3053,3.9169 2.0196,3.9169 1.1159,-10e-5 3.8699,-1.0765 6.1201,-2.3869 2.2503,-1.3107 6.6343,-3.3465 9.7313,-4.4983 3.0968,-1.1518 5.6303,-2.4501 5.6303,-2.9069 1e-4,-1.3409 5.4041,-2.1565 9.3945,-1.4078 l 3.6722,0.7037 -3.1213,2.785 c -1.7208,1.5373 -3.7908,2.815 -4.5902,2.815 -0.7993,-10e-5 -1.4382,0.6612 -1.4382,1.4689 10e-5,0.8079 0.8391,1.469 1.8973,1.469 2.418,-1e-4 4.6067,3.6555 3.0906,5.171401 -0.5784,0.5783 -3.5947,1.3608 -6.7015,1.7442 -6.3156,0.7797 -9.0585,1.8239 -13.7704,5.2636 -1.7738,1.2945 -6.4008,3.0954 -10.282,3.978 -7.3956,1.6815 -18.0703,4.8151 -22.2163,6.5179 -2.3963,0.9843 -2.4049,1.0076 -0.4895,2.4176 1.404,1.0334 3.327,1.2858 6.8545,0.8569 8.9509,-1.0893 15.6054,-2.6636 19.2786,-4.5291 4.7614,-2.4183 8.6028,-2.4775 7.9869,-0.1224 -0.3194,1.2214 0.4056,2.0326 2.4786,2.8153 2.2888,0.8639 3.0767,1.8951 3.6109,4.7431 0.5384,2.8695 1.3321,3.9286 3.7945,4.9574 3.2189,1.3447 8.3847,7.732 8.3847,10.3737 10e-5,1.1001 -0.7707,1.3586 -2.9377,1.0404 -3.1768,-0.4663 -3.6826,0.5505 -1.8973,3.886304 0.9403,1.7566 0.8267,1.9197 -0.979,1.3466 -1.1233,-0.3567 -2.8591,-0.3875 -3.8864,-0.0613 -4.2559,1.3508 -2.935,3.3485 7.3441,10.9856 7.0875,5.2656 9.7588,7.7471 8.5377,7.9563 -3.1894,0.5463 -9.4583,3.2169 -12.332,5.2634 -2.523,1.7964 -2.7417,2.3864 -2.1729,5.753 0.6078,3.5971 0.4823,3.8251 -2.9987,5.5082 -3.0707,1.4845 -4.04,2.783 -6.2426,8.3847 -1.435,3.6489 -3.7264,7.7654 -5.0798,9.1189 -2.3209,2.321 -2.6159,2.3836 -5.2634,1.0098 -1.5442,-0.801 -3.1684,-1.2526 -3.611,-0.9791 -1.2903,0.7975 -0.9434,5.136 0.6734,8.2623 1.3884,2.6849 1.3377,3.1588 -0.7346,7.0383 -1.4624,2.7379 -2.2032,5.8712 -2.2032,9.0884 1e-4,4.808 -0.0573,4.9008 -3.1824,5.202 -3.3812,0.3263 -4.1511,2.0675 -1.775,4.0393 2.1947,1.8214 0.6921,3.9642 -2.754,3.9477 -3.4642,-0.0166 -16.811,-9.12 -15.7901,-10.7715 0.3242,-0.5244 3.8396,-0.9486 7.8032,-0.9486 7.1262,0 7.226,-0.0437 9.2415,-3.3049 1.1212,-1.814 2.0502,-4.8595 2.0502,-6.7628 10e-5,-3.0015 -0.4161,-3.5967 -3.0907,-4.5291 -1.6958,-0.5913 -4.8909,-1.1037 -7.0993,-1.1321 -3.7766,-0.0491 -10.7706,-1.1546 -24.6644,-3.8558 -8.1161,-1.5781 -12.2222,-0.3045 -19.7682,6.0896 -6.7966,5.759 -10.396,10.5277 -11.3835,15.0251 -0.5701,2.5967 -1.0413,2.9377 -3.3355,2.601 -1.9141,-0.2809 -3.3101,0.3235 -5.0186,2.1421 -1.3038,1.3879 -1.9136,2.5399 -1.3465,2.5399 0.5672,0 1.5791,1.2954 2.2341,2.8764 0.9864,2.3815 0.9211,3.3474 -0.3673,5.6306 -0.8553,1.5158 -2.4057,4.7368 -3.4274,7.1607 -1.0212,2.4235 -6.5325,10.7957 -12.2403,18.6054 -12.9034,17.6545 -14.5583,20.953 -15.0862,30.05 -0.3481,5.998 -0.0769,7.58 1.7442,10.5266 1.179,1.9073 2.7896,3.4885 3.5801,3.4885 2.5545,0 6.6633,-2.6746 8.9968,-5.8448 1.7357,-2.3573 2.8976,-3.0155 4.8962,-2.7845 2.097,0.2425 2.6716,0.8709 2.9376,3.2131 0.183,1.6099 1.6149,4.6926 3.1825,6.8239 3.5079,4.7698 3.5911,6.87 0.3366,11.659 -1.4599,2.1488 -2.3318,4.5226 -2.0501,5.6 0.2695,1.0311 0.1019,1.8974 -0.3674,1.8974 -1.758,0 -2.8763,-3.9959 -2.8763,-10.2515 1e-4,-8.259 -1.7293,-9.3565 -6.5179,-4.1312 -2.9075,3.1727 -3.2745,4.1807 -3.2745,9.0886 1e-4,3.0423 0.5181,7.3037 1.1629,9.4556 1.1365,3.7929 1.061,4.007 -1.989,6.7323 -1.7304,1.5461 -3.9772,2.8154 -5.0187,2.8154 -2.2192,0 -5.8569,4.5549 -8.5988,10.7714 -2.2877,5.1865 -5.5383,8.3912 -9.4556,9.3637 l -2.8154,0.7041 0.704,-6.4569 c 0.6756,-6.3086 0.6284,-6.4452 -2.0809,-8.1706 -3.6587,-2.3297 -3.9415,-2.7704 -6.0896,-9.8228 -1.0138,-3.3283 -3.2188,-8.1183 -4.9267,-10.6492 l -3.1215,-4.6205 1.9585,-2.0503 c 3.9824,-4.2519 4.9434,-10.4043 1.6218,-10.4043 -1.8392,0 -1.8525,-0.0949 -0.0917,-3.4888 2.2222,-4.2833 0.7356,-4.7459 -3.3661,-1.0401 -5.3245,4.8103 -7.8572,6.0477 -8.9354,4.3758 -0.7074,-1.0967 -1.0382,-1.0626 -1.836,0.1531 -1.2634,1.9246 -1.2368,3.5854 0.1222,7.3441 1.3108,3.6247 0.4451,9.5614 -1.7136,11.7202 -0.8251,0.8252 -2.5531,1.4994 -3.8251,1.4994 -3.0286,0 -9.2721,7.5073 -9.2721,11.1387 10e-5,1.4429 -0.6609,4.2174 -1.4687,6.1508 -0.808,1.9335 -1.4691,5.0049 -1.4691,6.8241 1e-4,3.9856 1.0759,4.1403 7.9258,1.1934 5.5325,-2.38 8.7212,-7.121 8.7212,-13.0055 1e-4,-3.7214 1.73,-8.3845 3.1213,-8.3845 0.4789,0 2.175,0.6471 3.7638,1.4687 4.0146,2.0763 4.0893,6.4593 0.1224,7.9564 -2.3828,0.8995 -3.0365,1.9829 -4.437,7.5582 -0.9714,3.8672 -1.3935,8.0125 -1.0405,10.2209 0.44,2.7503 0.2072,4.0592 -0.9485,5.0185 -2.0803,1.7266 -1.9888,3.2979 0.153,2.63171 3.7439,-1.16431 23.2625,-3.49071 24.9091,-2.96841 1.5779,0.5009 1.5977,0.8179 0.3672,3.18259 -0.7523,1.44622 -2.4477,3.63832 -3.7945,4.89614 -1.9636,1.8341 -2.8347,2.11014 -4.3758,1.28534 -2.2847,-1.22276 -3.152,-0.58351 -3.152,2.35623 1e-4,2.55696 -3.8773,4.46146 -8.3235,4.10051 -2.5994,-0.21102 -2.9802,0.10508 -3.2743,2.69288 -0.2654,2.33821 0.3356,3.51614 3.0602,5.87539 2.8791,2.49301 3.8846,4.58387 6.4567,13.37265 3.6312,12.40753 3.6781,13.26661 0.8263,16.83041 l -2.2034,2.75418 -6.3343,-1.43829 c -3.4777,-0.80345 -6.4517,-1.84663 -6.6099,-2.29512 -1.1035,-3.12767 -2.0564,-3.57037 -4.988,-2.35621 -3.2535,1.34769 -5.6145,0.56813 -9.731,-3.18251 l -2.2338,-2.01965 -2.1725,2.17259 c -2.7398,2.7397 -2.7266,8.03 0.0304,13.43386 1.7595,3.44886 1.8552,4.19934 0.6732,6.33444 -0.7379,1.33293 -1.3579,3.42791 -1.3771,4.62069 -0.0189,1.19291 -0.9117,2.63658 -1.989,3.21317 -1.384,0.74068 -1.9584,2.05265 -1.9584,4.46763 1e-4,2.99096 0.3493,3.47881 2.8458,3.97821 2.6207,0.52408 2.9446,1.06854 4.1006,6.88518 1.3246,6.66354 2.7781,8.39472 9.2108,10.95512 2.0412,0.81236 3.4608,2.43916 4.6514,5.32454 2.1166,5.12942 2.0865,7.14702 -0.092,11.23061 -1.5823,2.96668 -1.8572,3.09318 -3.6413,1.74419 -4.2205,-3.19091 -7.2758,-1.45973 -12.5464,7.03822 -2.8971,4.67122 -3.2504,7.29498 -1.1629,9.02722 1.7108,1.41969 3.4762,0.5754 3.5191,-1.71365 0.0564,-2.9932 2.9072,1.80826 2.9072,4.89615 1e-4,2.09263 -0.9711,3.41653 -4.07,5.66122 -2.2351,1.61907 -4.6498,2.96834 -5.3552,2.96834 -0.7052,-1e-4 -1.8188,1.87268 -2.4787,4.16173 -0.6595,2.28886 -1.7702,5.02716 -2.4785,6.08953 -0.7084,1.06236 -1.2853,3.32997 -1.2853,5.04921 1e-4,1.71904 -1.3517,6.67158 -2.9989,10.98569 l -2.999,7.83383 2.1727,4.22292 c 5.6711,11.07352 10.3791,23.33612 9.9148,25.76598 -0.3565,1.86476 0.3651,3.58251 2.601,6.365 1.9948,2.48216 3.0584,4.95784 3.0906,7.06877 0.0444,2.87922 0.8348,3.80724 7.0993,8.29288 3.8777,2.77621 12.3945,9.60733 18.9116,15.20861 15.2376,13.09652 20.4043,16.85931 27.449,19.9518 3.1552,1.38513 8.6172,3.77964 12.118,5.32467 3.5009,1.54494 12.4256,4.38979 19.8599,6.3037 11.8444,3.04922 14.9951,3.47519 25.4601,3.4886 12.078,0.0154 14.399,0.41774 31.5495,5.38576 4.8472,1.40401 12.4947,3.18338 17.0141,3.94748 4.5194,0.76409 8.2978,1.50419 8.3847,1.65245 0.0869,0.14826 0.8914,1.47549 1.8054,2.93768 0.9143,1.46219 1.6831,4.15233 1.6831,5.99778 1e-4,2.96678 0.4253,3.52249 3.6721,4.80441 2.0199,0.79738 6.977,2.2289 11.0165,3.18247 4.0393,0.9533 9.5474,2.53778 12.2402,3.51906 2.693,0.9813 6.2181,2.08714 7.8338,2.44809 2.5477,0.56903 4.8473,1.98264 5.8448,3.45795 0.004,0.006 -0.004,0.0245 0,0.0306 3.8857,1.42214 8.0589,0.76676 13.3932,2.66803 62.9903,-2.00379 108.7488,-23.07578 161.4207,-51.93054 -3.4809,0.67082 -4.3327,0.68256 -7.1514,0.42343 -2.2456,-0.58205 -5.1089,-4.39668 -5.0947,-9.64182 0.01,-3.61053 2.7452,-5.65846 12.0411,-19.0312 5.8033,-8.34804 13.0853,-18.48296 16.1879,-22.52228 8.3992,-10.93535 15.9168,-26.59597 16.7694,-34.94635 0.3752,-3.67525 1.3118,-8.84999 2.0808,-11.50594 2.0341,-7.02551 1.6552,-17.19763 -0.6427,-17.19763 -0.46,-1e-4 -8.1508,7.42569 -17.0752,16.52449 -8.9246,9.09881 -16.9816,16.75022 -17.9015,16.98347 -2.7479,0.69654 -7.909,-1.11945 -8.9968,-3.15184 -0.8465,-1.58204 -0.5044,-2.26114 2.0502,-4.13118 3.0661,-2.24429 24.452,-28.33606 34.0895,-41.58671 2.8158,-3.8711 5.3415,-8.39659 5.6,-10.0371 0.4782,-3.03356 3.368,-9.66783 12.5769,-28.94838 l 5.1411,-10.77152 0.5507,-13.70922 c 0.31,-7.54005 0.3511,-14.88193 0.0613,-16.31033 -0.7583,-3.73881 -4.4713,-4.12845 -11.4448,-1.19339 -6.3549,2.67485 -8.5388,2.432 -12.5771,-1.34644 -5.8417,-5.46615 -5.9107,-12.00555 -0.0916,-8.56827 l 2.8458,1.65236 6.7934,-5.01855 c 7.3817,-5.47712 12.465,-11.07999 20.7169,-22.8282 8.0167,-11.41361 9.999,-12.25995 19.86,-8.44585 9.9582,3.85161 11.3129,3.9032 15.3002,0.73441 1.9616,-1.55853 3.9512,-2.81528 4.4374,-2.81528 1.9325,0 7.184,4.71284 11.4752,10.31247 4.3544,5.68198 19.7167,21.02288 21.0536,21.02288 0.8721,0 2.5625,-4.54636 3.366,-9.02732 3.6704,-8.85077 5.3195,-17.99393 3.0965,-21.79286 C 669.22964,169.8592 542.63364,41.426495 369.85934,39.448395 Z m -169.9434,46.417601 c -38.5921,27.474104 -63.7924,51.577704 -90.9044,87.470504 0.2787,2.15 -2.5206,4.8414 1.2794,2.792 1.1947,-0.612 2.3753,-0.5586 5.2341,-3.9245 2.8587,-3.3663 12.9425,-11.9564 21.2164,-20.1268 10.474,-10.3423 15.6347,-16.168 16.9835,-19.2175 1.0657,-2.4088 2.5773,-4.6356 3.3356,-4.9266 0.7585,-0.2911 4.8743,-3.1893 9.1497,-6.4569 7.1103,-5.4341 11.0163,-7.2431 11.0163,-5.1102 1e-4,0.4549 -0.9272,1.646 -2.0504,2.6621 -1.1229,1.0163 -3.6463,4.0604 -5.5998,6.763 -1.9535,2.7023 -8.8712,11.0957 -15.3618,18.6359 -6.4902,7.54 -13.5513,15.9145 -15.6981,18.6053 -2.147,2.6907 -5.1126,6.2159 -6.6098,7.834 -7.3252,7.9155 -22.8101,34.1854 -25.1235,42.6575 -1.3818,5.0615 -1.1265,9.885 0.5508,10.4349 0.6171,0.2025 3.2478,-2.3554 5.8449,-5.6611 2.5973,-3.3059 8.054,-8.488 12.118,-11.5365 7.5701,-5.6789 8.723,-6.2857 28.9177,-14.9028 13.0724,-5.5777 15.3072,-7.2314 18.6361,-13.7703 1.2631,-2.4813 6.1282,-8.6505 10.8021,-13.7092 4.6742,-5.0589 11.4251,-12.8966 14.9945,-17.4427 3.5692,-4.546 10.5634,-12.6422 15.5453,-17.9626 4.9818,-5.3204 9.0578,-10.2999 9.0578,-11.0775 1e-4,-0.7777 -0.5319,-2.2335 -1.1627,-3.2437 -0.939,-1.5036 -0.6641,-2.8583 1.5604,-7.4055 1.4951,-3.0554 2.5782,-5.7148 2.3871,-5.906 -0.4193,-0.4192 -8.4577,1.0571 -10.8634,1.9891 -1.4048,0.5442 -1.7138,0.1173 -1.7138,-2.3562 1e-4,-2.362404 0.6379,-3.339704 2.9378,-4.528904 1.6157,-0.8358 2.9376,-1.9618 2.9376,-2.4787 1e-4,-0.517 -2.754,-2.3215 -6.1201,-4.0087 -3.3659,-1.6874 -6.3274,-3.2253 -6.5486,-3.4273 l -4.1311,-1.4995 c -2.9637,-1.4628 -0.7975,1.5485 -2.6176,0.8354 z m 91.7885,5.2541 c -5.0568,0.2225 -7.7419,2.7293 -7.7419,7.3442 2e-4,2.150004 -0.6865,3.577004 -2.2033,4.590304 -2.1787,1.4554 -2.1937,1.4839 -0.3366,3.5497 1.9876,2.2106 3.3769,2.1216 8.905,-0.612 4.9664,-2.4561 10.2817,-8.199904 10.2817,-11.108304 1e-4,-2.1471 -0.5488,-2.7108 -3.06,-3.2132 -2.1964,-0.4393 -4.1592,-0.6247 -5.8449,-0.5507 z m 27.5105,5.9061 c -1.7196,0.0053 -2.3307,0.7222 -3.7945,3.090704 -1.1582,1.8738 -2.0809,4.9069 -2.0809,6.7321 10e-5,4.9756 8.2099,24.4564 10.955,25.9801 3.4604,1.9207 9.4318,1.576 13.2198,-0.7649 3.7721,-2.3314 3.4954,-2.9696 -2.1421,-4.6208 -2.1543,-0.631 -5.0187,-2.0152 -6.3651,-3.0599 -2.3692,-1.8387 -2.4481,-2.2704 -2.4481,-13.6174 1e-4,-6.4489 -0.3138,-12.003604 -0.6732,-12.362904 -0.3593,-0.3596 -2.3808,-0.9093 -4.4983,-1.1934 -0.892,-0.1199 -1.5995,-0.1855 -2.1726,-0.1836 z m -57.2544,7.038104 c -0.9009,0.005 -2.0412,0.5649 -3.2743,1.7138 -2.7643,2.575 -1.894,4.0608 2.1115,3.6719 2.5588,-0.2483 3.0906,-0.7076 3.0906,-2.7232 10e-5,-1.7719 -0.7694,-2.6688 -1.9278,-2.6625 z m -5.8755,12.0569 c -0.1963,-0.007 -0.3986,0.004 -0.6119,0.0306 -1.4205,0.1735 -3.35,1.1232 -7.1912,3.2435 -5.9755,3.2986 -7.2542,4.4808 -8.1705,7.4665 -1.0117,3.2969 -0.8154,3.8766 2.5093,8.8133 1.9634,2.9152 4.0722,5.3247 4.7126,5.3247 0.6403,-1e-4 2.056,-1.4998 3.1212,-3.305 1.1605,-1.9666 3.7461,-4.1349 6.4568,-5.447 4.8168,-2.3318 4.9388,-2.674 3.917,-10.1288 -0.4733,-3.4531 -1.1492,-4.6822 -3.0295,-5.5389 -0.5901,-0.269 -1.1242,-0.4372 -1.7138,-0.4589 z m -102.9108,86.1722 c -0.7675,-0.0553 -1.39,1.3178 -2.7847,4.0699 -2.0349,4.0159 -2.5398,6.4619 -2.5398,11.8732 1e-4,6.1971 0.2246,6.9982 2.5705,8.8435 1.4191,1.1163 3.1386,2.0503 3.8249,2.0503 0.6867,0 4.0276,-1.8728 7.4363,-4.1617 3.4085,-2.2889 6.7641,-5.2634 7.436,-6.6098 1.3162,-2.6384 1.73,-12.7492 0.5201,-12.7299 -0.4038,0.006 -3.158,0.6683 -6.1201,1.4688 -4.9874,1.3474 -5.4852,1.3399 -6.5793,-0.2449 -2.0716,-3.0012 -2.9963,-4.5042 -3.7639,-4.5594 z m 286.0574,77.9403 c 1.286,-0.0282 15.0874,8.149 19.6764,11.6897 4.3346,3.3441 5.5924,3.8574 8.1093,3.3049 2.7548,-0.6051 3.6331,-0.0307 11.0776,7.3748 4.4391,4.4161 9.9076,9.5367 12.1486,11.3836 5.2729,4.3455 11.4977,13.3785 10.8327,15.6982 -0.2784,0.97077 -0.8056,2.54594 -1.1935,3.48865 -0.553,1.3435 -0.2277,1.71366 1.5607,1.71366 l 2.295,0 -2.2032,1.52994 c -1.3475,0.94398 -5.2819,1.7254 -10.2514,2.05032 -4.4369,0.29014 -9.0276,1.14521 -10.2207,1.89724 -2.8374,1.78898 -2.6177,1.88082 -5.5693,-1.9891 -2.3245,-3.04756 -2.54,-4.17846 -2.54,-12.11801 10e-5,-9.6323 -0.1985,-9.9759 -6.3649,-11.965 -9.4032,-3.0329 -19.0567,-8.9088 -24.4808,-14.9025 -4.824,-5.3309 -5.3856,-6.4378 -5.3856,-10.2819 1e-4,-3.4843 0.9592,-7.0202 2.4175,-8.8436 0.0145,-0.0184 0.0501,-0.0299 0.0916,-0.0309 z m -59.6412,32.1311 c 2.7926,-0.1147 5.1375,1.3224 6.2122,3.917 0.6791,1.6398 1.0638,3.1244 0.8567,3.2744 -2.9481,2.1333 -10.5525,6.4764 -11.2307,6.426 -0.4912,-0.0363 -1.879,-0.5172 -3.0906,-1.1016 -1.2116,-0.5844 -2.2032,-1.4079 -2.2032,-1.8055 10e-5,-1.685 6.6795,-10.2538 8.2316,-10.5572 0.4153,-0.0812 0.8252,-0.137 1.224,-0.1531 z m 6.0591,12.6995 c 2.0644,-0.0927 4.3705,0.2529 7.0076,0.9791 1.885,0.5192 8.0385,1.6359 13.6786,2.4788 11.2771,1.68511 14.0939,3.27486 15.2699,8.62937 0.5709,2.59987 0.2239,3.38266 -2.6318,5.81428 -1.8162,1.5465 -4.6784,4.13019 -6.3345,5.72232 -2.5896,2.49038 -4.134,3.00615 -11.0467,3.79452 -4.4196,0.5041 -8.4813,1.19261 -9.0275,1.53005 -0.5458,0.33745 -2.0989,-0.11947 -3.4578,-1.00978 -1.9383,-1.27017 -2.7852,-1.37279 -3.8863,-0.45906 -0.7718,0.6406 -1.377,1.82782 -1.377,2.63167 0,1.24783 -0.3938,1.22248 -2.5399,-0.18361 -2.8698,-1.88041 -4.7274,-0.96639 -5.6612,2.75409 -0.3075,1.2256 -1.6985,2.82097 -3.06,3.54972 -1.3617,0.72873 -3.3067,2.76875 -4.3454,4.52892 -2.5416,4.30764 -7.0794,6.45666 -14.7803,7.00766 l -6.4262,0.45897 -2.7847,-4.22292 c -2.7806,-4.20188 -2.8091,-4.28786 -2.2338,-15.72889 0.4133,-8.21839 1.1354,-12.6824 2.4786,-15.69832 1.034,-2.32116 2.1584,-5.43473 2.5094,-6.9157 0.5771,-2.43499 1.0476,-2.69289 4.9573,-2.69289 5.3163,0 9.3639,1.4405 9.3639,3.33546 1e-4,1.95532 4.6808,5.47759 7.2829,5.47759 1.3955,0 3.3085,-1.55442 5.5082,-4.49837 3.571,-4.77858 6.9953,-7.07918 11.5367,-7.28298 z m -130.8495,38.40406 c 0.8204,-0.0423 1.8226,0.48621 2.9988,1.59126 2.231,2.09596 2.3582,2.14217 5.5695,2.14217 1.2484,0 2.6286,1.30668 3.8556,3.6721 4.0269,7.76255 6.8054,9.89287 14.2905,11.01634 3.7703,0.5657 8.2483,1.49518 9.976,2.05022 3.8453,1.23529 7.1606,6.22407 7.1606,10.83271 10e-5,2.95728 0.7828,4.04227 6.365,8.66013 5.0761,4.19903 6.3649,5.8219 6.3649,8.01733 10e-5,2.09899 0.4676,2.75419 1.9586,2.75419 1.0755,-1e-4 3.6875,1.56736 5.8141,3.4884 3.0795,2.7821 4.5226,3.43005 7.0995,3.1825 3.4174,-0.32825 3.3979,-0.24305 2.0808,-6.91571 -0.5011,-2.53905 -0.3372,-2.69288 2.9991,-2.69288 1.9461,-10e-5 3.5468,0.3303 3.5495,0.73442 0.003,0.40383 1.0097,1.98941 2.2339,3.51906 2.1989,2.74762 2.2548,2.74095 4.4677,0.94859 1.8862,-1.52721 2.0729,-2.22356 1.2547,-4.3759 -0.7507,-1.9746 -2.8243,-3.31645 -9.1192,-5.93658 -6.5969,-2.74585 -8.7811,-4.20511 -11.4447,-7.68088 l -3.2744,-4.31468 2.9684,-0.76498 c 3.3373,-0.86475 4.5901,-2.25007 4.5901,-5.14094 1e-4,-1.48725 1.305,-2.3815 5.5693,-3.82519 5.2474,-1.77631 5.7117,-1.7957 8.0787,-0.24479 2.1881,1.4336 2.5094,2.35123 2.5094,7.00766 1e-4,4.91006 0.1879,5.39222 2.4786,5.96714 2.4011,0.60262 2.4213,0.67908 0.765,2.50926 -1.48,1.6356 -1.5057,2.037 -0.2755,2.81529 0.7867,0.49744 1.7688,0.90981 2.1728,0.91802 0.404,0.008 0.7343,0.91197 0.7343,1.98911 1e-4,1.57196 0.6499,1.95846 3.305,1.95846 2.3306,0 3.7266,0.6419 4.7432,2.17263 1.4372,2.1646 1.4539,2.1539 5.4164,0.36721 2.1876,-0.98649 4.4866,-1.48706 5.1103,-1.10163 0.6237,0.38542 3.1117,0.42518 5.5389,0.0612 3.7842,-0.56746 4.5846,-1.11112 5.4774,-3.67211 l 1.0405,-2.96824 7.2525,0.45897 c 6.7104,0.43067 7.5158,0.26771 10.8631,-2.17263 1.9915,-1.45179 5.5005,-4.68248 7.7727,-7.16071 l 4.1313,-4.49827 0.979,3.6109 c 0.5526,1.9893 1.0069,4.66789 1.0099,5.93658 0.003,1.26869 1.1363,3.63147 2.5094,5.26335 1.774,2.10819 2.3461,3.7199 1.9889,5.53881 -1.2886,6.56232 -0.934,10.56835 1.1934,13.55618 1.1845,1.66322 2.1728,4.1443 2.1728,5.53882 10e-5,3.72988 -6.2925,7.9199 -14.1071,9.39442 -5.6258,1.06148 -6.547,0.98658 -9.0578,-0.61201 -1.5386,-0.97973 -3.1497,-2.3434 -3.5804,-3.02944 -0.4305,-0.68625 -2.5238,-1.22403 -4.6514,-1.22403 -3.2405,-10e-5 -3.8556,0.31559 -3.8556,1.989 0,1.0986 -0.9106,3.7627 -2.0197,5.93659 -1.4756,2.89282 -1.7491,4.30526 -0.9792,5.23269 0.8138,0.98042 -0.0446,1.75294 -3.7946,3.36622 -2.666,1.14685 -6.4381,2.08084 -8.3846,2.08084 -1.9465,-9e-5 -4.8802,0.68324 -6.518,1.52996 -2.6242,1.35711 -3.3901,1.38541 -6.5486,0.15306 -2.4596,-0.95975 -4.5016,-1.13131 -6.518,-0.55082 -2.1324,0.61387 -3.9933,0.38689 -6.7321,-0.82627 l -3.7641,-1.68301 -6.3649,3.36611 c -7.9443,4.21343 -9.5074,6.3829 -8.8437,12.27092 0.4113,3.64781 0.1328,4.81616 -1.53,6.36499 -1.1167,1.04043 -2.2681,1.81628 -2.5704,1.7443 -0.3023,-0.0721 -2.7542,-0.91567 -5.447,-1.89726 -2.6928,-0.98157 -7.2441,-1.81255 -10.0982,-1.83605 -5.3514,-0.0443 -9.1747,-1.48139 -14.5969,-5.53872 -2.7298,-2.04286 -4.1068,-2.3335 -10.9243,-2.2339 -6.4201,0.0938 -8.7846,-0.33991 -13.1892,-2.35633 -6.7136,-3.0737 -7.9508,-5.84698 -4.0393,-8.96604 l 2.6928,-2.14206 -2.4784,-1.9278 c -3.8868,-3.05736 -6.0676,-7.99345 -4.7739,-10.83282 1.4257,-3.12876 1.403,-3.2436 -0.8873,-3.2436 -1.0844,-10e-5 -2.7942,-0.50755 -3.7947,-1.13229 -1.4743,-0.92088 -2.3479,-0.76567 -4.7125,0.91802 -2.5103,1.78749 -3.4558,1.94193 -6.6098,1.07108 -4.0204,-1.11015 -14.1176,-0.71425 -24.0217,0.94859 -3.5007,0.58773 -8.5651,1.3526 -11.2306,1.68299 -3.7738,0.46807 -5.5065,1.30532 -7.8339,3.79452 -1.6571,1.7727 -5.1125,3.91664 -7.7725,4.8044 -4.7123,1.57264 -4.9135,1.53445 -11.506,-1.04043 -5.9125,-2.30934 -6.7014,-2.91723 -6.7014,-5.1715 1e-4,-3.44122 5.0068,-5.42934 9.6086,-3.82518 2.5659,0.89443 3.6274,0.76224 6.2732,-0.76506 4.6787,-2.70082 6.6385,-7.32594 6.6404,-15.75944 l 0,-7.09941 6.8545,-6.82396 c 6.6203,-6.60716 6.8546,-7.00198 6.8546,-11.62836 1e-4,-3.91143 0.4037,-5.07406 2.2339,-6.27323 2.0164,-1.32118 2.5617,-1.29581 5.6,0.27545 3.2443,1.67772 3.5206,1.66597 6.824,-0.0306 1.8916,-0.97139 4.2241,-3.08888 5.1715,-4.71255 0.9474,-1.62365 3.6527,-4.02727 6.0284,-5.35521 l 4.3455,-2.41743 0.6119,2.5705 c 2.1965,8.93194 9.9105,15.37075 31.3047,26.10263 11.1978,5.61686 11.7762,6.04625 13.189,10.03709 1.6914,4.77729 3.074,4.87629 4.3759,0.33658 0.689,-2.40206 0.5147,-3.98792 -0.7649,-6.67101 -1.9571,-4.10415 -0.8648,-5.53363 3.4885,-4.62079 6.3712,1.33626 2.5311,-4.49555 -6.5181,-9.88405 -4.9759,-2.96305 -6.4446,-3.40733 -9.6086,-2.8765 -3.6716,0.61615 -3.8867,0.50461 -12.4851,-8.20104 -8.1388,-8.24012 -8.752,-9.16285 -8.752,-12.88294 1e-4,-3.02865 0.805,-4.64193 2.1728,-4.71265 z m 301.6944,20.01312 c 1.135,-0.0613 1.6046,1.42143 1.6218,4.52894 0.0164,2.93367 -5.7879,15.26589 -8.0785,17.16706 -2.2296,1.85055 -6.6868,2.10075 -11.9038,0.64258 -3.6208,-1.01175 -5.8521,-1.08979 -8.8437,-0.33657 -3.5811,0.90177 -4.6697,0.68869 -10.588,-2.08087 -6.5186,-3.05039 -6.5793,-3.13469 -6.5793,-6.97699 10e-5,-5.00152 1.4634,-7.69891 4.1924,-7.68079 1.1931,0.008 5.2364,1.53024 8.9969,3.366 6.4921,3.16957 7.0973,3.27083 12.2097,2.32566 7.0346,-1.3003 10.4864,-3.13939 15.0249,-8.01733 1.7711,-1.90353 3.0649,-2.89021 3.9476,-2.93769 z m -318.3414,1.59124 c -1.7299,-0.0378 -4.1311,7.84658 -4.1311,13.77032 1e-4,3.63902 -0.6755,6.93853 -1.8973,9.33334 -1.8527,3.63156 -1.8563,3.78158 -0.0613,6.51805 1.8296,2.78873 5.3116,5.2894 7.4973,5.3551 0.6349,0.0191 1.8735,-0.68017 2.7234,-1.53005 3.4098,-3.40977 3.4945,-4.78157 0.8877,-14.22938 -1.394,-5.05184 -2.8143,-11.36642 -3.1521,-14.01531 -0.3376,-2.64872 -1.1205,-4.97458 -1.7137,-5.17151 -0.0541,-0.018 -0.0972,-0.0295 -0.1529,-0.0306 z m 30.6315,35.12987 c -0.8386,0.0394 -1.4766,0.46405 -2.4174,1.31579 -1.0967,0.99244 -2.0027,1.40539 -2.0198,0.91802 -0.0715,-2.03718 -2.9069,3.09605 -2.9069,5.26337 0,2.14157 0.3064,2.33712 3.1824,1.8055 1.7504,-0.32363 4.5044,-0.21132 6.1201,0.27536 4.5609,1.37366 6.9269,1.21885 9.1191,-0.64258 1.48,-1.25663 1.8757,-2.43201 1.4688,-4.40653 -0.4596,-2.23067 -1.0656,-2.69289 -3.5498,-2.69289 -1.6489,-9e-5 -4.4429,-0.5232 -6.2118,-1.16292 -1.041,-0.37641 -1.7947,-0.62367 -2.4174,-0.67312 -0.1297,-0.0104 -0.2475,-0.006 -0.3673,0 z m 78.9503,3.02943 c -1.2324,-0.009 -2.2517,0.52468 -3.5496,1.7443 -1.7143,1.61045 -3.032,2.02075 -4.8657,1.56062 -2.0488,-0.51431 -2.4784,-0.29398 -2.4784,1.28523 1e-4,4.37325 8.8805,5.5249 13.3113,1.71364 3.1349,-2.6964 2.6892,-5.16875 -1.1016,-6.12017 -0.4705,-0.1181 -0.9051,-0.18067 -1.316,-0.18362 z m 84.3362,32.25338 c 3.2157,0.0359 9.4441,3.31508 16.9531,8.96602 5.3678,4.03991 8.345,5.52258 13.0359,6.51807 4.2476,0.90136 6.7119,2.03992 8.2315,3.79449 5.2502,6.06017 11.8223,11.90382 13.4033,11.90382 0.9456,-10e-5 4.9602,1.10839 8.9355,2.47863 3.9752,1.37023 9.1251,2.9606 11.414,3.51916 3.3519,0.81764 4.1618,1.41997 4.1618,3.18249 10e-5,1.50997 1.1321,2.82585 3.6721,4.25347 3.5165,1.97627 8.0787,7.00141 8.0787,8.90482 10e-5,1.8527 -2.6679,2.85446 -9.1191,3.42731 -6.3183,0.5612 -6.6707,0.47248 -7.6807,-1.74419 -1.3866,-3.04336 -4.3486,-3.73246 -7.9564,-1.86661 -2.8044,1.45013 -3.0143,1.39118 -6.0284,-1.53017 -2.298,-2.22744 -4.0353,-2.99878 -6.6098,-2.99878 -3.6841,-10e-5 -6.7336,-2.68348 -15.8817,-13.95401 -3.1885,-3.9283 -4.2943,-4.65135 -7.1609,-4.65135 -2.793,-1e-4 -4.4577,-1.02868 -9.425,-5.72243 -3.3193,-3.13687 -8.0358,-6.84325 -10.4654,-8.2316 -2.4296,-1.38845 -6.3569,-4.23624 -8.7213,-6.33443 -4.2059,-3.73243 -4.2584,-3.87364 -2.9071,-6.70166 0.7741,-1.62002 2.287,-3.01485 3.4579,-3.18249 0.1872,-0.0267 0.3977,-0.033 0.612,-0.0306 z m -292.9732,13.55625 c -0.5023,-1e-4 -1.1926,0.86467 -1.5301,1.92784 -0.3374,1.06313 -1.6101,2.71548 -2.8152,3.6721 -1.2054,0.95651 -2.5273,2.29492 -2.9376,2.96833 -1.2176,1.99724 5.2905,1.53025 6.8238,-0.48961 1.4859,-1.95737 1.8358,-8.07866 0.4591,-8.07866 z m 6.5792,86.29462 0.5202,0.79555 0.9181,0.76505 c -0.4884,-0.51605 -0.9463,-1.03288 -1.4383,-1.5606 z" id="path2651" />
        <path style="fill:url(#radialGradient6995);fill-opacity:1;stroke:none;stroke-width:16.68700027;stroke-linejoin:round;stroke-miterlimit:4;stroke-dasharray:none;stroke-opacity:1" d="m 368.41024,31.943795 -15.625,0.2187 c -0.8794,0.0107 -2.9421,0.9643 -6.2187,0.625 -2.3493,0.1624 -4.6966,0.3169 -7.0313,0.5313 0.1424,0.4315 0.1362,0.9444 -0.125,1.625 -0.4219,1.0989 -2.198,1.4731 -6.7812,1.4687 -6.704,-0.0065 -14.6875,1.8499 -14.6875,3.4063 -2e-4,0.5287 1.3499,0.9687 3,0.9687 2.8331,0 3,0.2222 3,4 -2e-4,3.3796 0.312,4 2.0625,4 1.1396,0 3.952,-1.0991 6.25,-2.4375 2.298,-1.3383 6.7749,-3.4173 9.9375,-4.5938 3.1623,-1.1761 5.75,-2.5019 5.75,-2.9687 -2e-4,-1.3691 5.5188,-2.202 9.5937,-1.4375 l 3.75,0.7188 -3.1874,2.8437 c -1.7577,1.5703 -3.8709,2.875 -4.6876,2.875 -0.8165,0 -1.4687,0.675 -1.4687,1.5 -2e-4,0.825 0.8569,1.5 1.9375,1.5 2.4693,0 4.7044,3.7327 3.1562,5.2813 -0.5909,0.5905 -3.6711,1.3895 -6.8437,1.7812 -6.4499,0.7963 -9.2504,1.8625 -14.0625,5.375001 -1.8115,1.3224 -6.5365,3.1614 -10.5,4.0625 -7.5525,1.7172 -18.4537,4.9171 -22.6875,6.6563 -2.4475,1.005 -2.456,1.0288 -0.5,2.4687 1.4336,1.0555 3.3975,1.3133 7,0.875 9.1404,-1.1122 15.9362,-2.7198 19.6875,-4.625 4.8625,-2.4694 8.7854,-2.53 8.1562,-0.125 -0.3264,1.2474 0.4143,2.076 2.5313,2.875 2.337,0.8822 3.1419,1.9357 3.6875,4.8437 0.5498,2.9304 1.3603,4.0116 3.875,5.0626 3.287,1.3733 8.5625,7.8961 8.5625,10.5937 -2e-4,1.1235 -0.7872,1.3873 -3,1.0625 -3.2446,-0.4762 -3.7606,0.5619 -1.9375,3.9688 0.9601,1.7938 0.8443,1.9599 -1,1.375 -1.1471,-0.3643 -2.9196,-0.3952 -3.9688,-0.0626 -4.3463,1.3794 -2.9972,3.419804 7.5,11.218804 7.2375,5.3774 9.966,7.9114 8.7188,8.125 -3.2571,0.5579 -9.6586,3.2851 -12.5938,5.375 -2.5767,1.8346 -2.7997,2.4368 -2.2187,5.875 0.6204,3.6734 0.4925,3.9063 -3.0625,5.625 -3.1356,1.516 -4.1254,2.8421 -6.375,8.5625 -1.4653,3.7265 -3.8053,7.9302 -5.1875,9.3125 -2.3704,2.3702 -2.6713,2.4343 -5.375,1.0312 -1.5771,-0.818 -3.2355,-1.2792 -3.6875,-1 -1.3177,0.8145 -0.9636,5.2445 0.6875,8.4376 1.4177,2.7419 1.3661,3.2256 -0.75,7.1874 -1.4938,2.7961 -2.25,5.9959 -2.25,9.2813 -2e-4,4.9101 -0.0586,5.0048 -3.25,5.3125 -3.4531,0.3329 -4.239,2.1112 -1.8125,4.125 2.2412,1.86 0.7067,4.0485 -2.8125,4.0312 -3.538,-0.017 -17.1676,-9.3127 -16.125,-11 0.3308,-0.5356 3.9213,-0.9687 7.9687,-0.9687 7.277,0 7.3792,-0.0446 9.4376,-3.375 1.1446,-1.8524 2.0937,-4.9623 2.0937,-6.9063 -2e-4,-3.0649 -0.4249,-3.6728 -3.1563,-4.625 -1.7322,-0.6037 -4.9944,-1.127 -7.25,-1.1562 -3.857,-0.0498 -10.999,-1.179 -25.1874,-3.9375 -8.2886,-1.6114 -12.4814,-0.3111 -20.1876,6.2187 -6.941,5.8815 -10.6163,10.7509 -11.625,15.3438 -0.5824,2.6519 -1.0633,3.0004 -3.4062,2.6562 -1.9547,-0.287 -3.3804,0.3305 -5.125,2.1876 -1.3316,1.4172 -1.9541,2.5937 -1.375,2.5937 0.5792,0 1.6128,1.323 2.2812,2.9375 1.0072,2.432 0.9412,3.4183 -0.375,5.75 -0.8737,1.548 -2.4568,4.8375 -3.5,7.3125 -1.0433,2.475 -6.6711,11.025 -12.5,19 -13.1772,18.029 -14.8669,21.3973 -15.4062,30.6875 -0.3554,6.1252 -0.0783,7.7407 1.7812,10.75 1.2037,1.9478 2.8487,3.5625 3.6563,3.5625 2.6082,0 6.8045,-2.7322 9.1875,-5.9687 1.7723,-2.4077 2.959,-3.0797 5,-2.8438 2.1414,0.2475 2.7284,0.8897 3,3.2812 0.1868,1.6441 1.6492,4.7921 3.25,6.9688 3.5823,4.8711 3.6669,7.0159 0.3438,11.9062 -1.4913,2.1942 -2.3816,4.6185 -2.0938,5.7188 0.2754,1.0529 0.1042,1.9375 -0.375,1.9375 -1.7954,0 -2.9375,-4.0811 -2.9375,-10.4687 -2e-4,-8.4345 -1.7655,-9.5551 -6.6563,-4.2188 -2.9692,3.2398 -3.3437,4.2694 -3.3437,9.2812 -2e-4,3.1067 0.5292,7.4589 1.1875,9.6563 1.1606,3.8734 1.0834,4.092 -2.0312,6.875 -1.7673,1.5789 -4.0618,2.875 -5.125,2.875 -2.2666,0 -5.9814,4.6517 -8.7813,11 -2.3364,5.2966 -5.6557,8.5691 -9.6563,9.5625 l -2.875,0.7188 0.7188,-6.5938 c 0.69,-6.4424 0.6418,-6.5819 -2.125,-8.3438 -3.7361,-2.3793 -4.0249,-2.8291 -6.2188,-10.0312 -1.0354,-3.3988 -3.2868,-8.2904 -5.0312,-10.875 l -3.1875,-4.7188 2,-2.0937 c 4.0666,-4.3421 5.0478,-10.625 1.6563,-10.625 -1.8786,0 -1.8918,-0.0967 -0.0938,-3.5625 2.2695,-4.3744 0.7511,-4.8467 -3.4375,-1.0625 -5.4377,4.9125 -8.024,6.1762 -9.125,4.4687 -0.7225,-1.1199 -1.0603,-1.085 -1.875,0.1563 -1.2904,1.9654 -1.263,3.6617 0.125,7.5 1.3383,3.7015 0.4544,9.7646 -1.75,11.9687 -0.8429,0.8426 -2.6071,1.5313 -3.9063,1.5313 -3.0932,0 -9.4687,7.6665 -9.4687,11.375 -2e-4,1.4735 -0.6751,4.3065 -1.5,6.2813 -0.8252,1.9743 -1.5,5.1109 -1.5,6.9687 -2e-4,4.0702 1.0986,4.228 8.0937,1.2187 5.6496,-2.4305 8.9063,-7.2719 8.9063,-13.2812 -2e-4,-3.8005 1.7668,-8.5625 3.1875,-8.5625 0.4891,0 2.2208,0.6609 3.8438,1.5 4.0993,2.12 4.1756,6.5961 0.125,8.125 -2.4339,0.9186 -3.1012,2.0249 -4.5313,7.7187 -0.9922,3.949 -1.423,8.1822 -1.0625,10.4376 0.4492,2.8084 0.2118,4.145 -0.9688,5.125 -2.1247,1.76289 -2.031,3.36779 0.1563,2.68739 3.8231,-1.1891 23.7562,-3.56489 25.4375,-3.03119 1.6114,0.5114 1.6316,0.835 0.375,3.24999 -0.7683,1.4768 -2.4996,3.7154 -3.875,5 -2.0052,1.873 -2.8946,2.1549 -4.4688,1.3125 -2.3333,-1.2486 -3.2187,-0.5959 -3.2187,2.4063 -2e-4,2.6109 -3.9596,4.5565 -8.5,4.1874 -2.6549,-0.2156 -3.0438,0.1076 -3.3437,2.75 -0.2715,2.3877 0.3423,3.5911 3.125,6 2.9399,2.546 3.967,4.6812 6.5937,13.6563 3.7079,12.67068 3.7564,13.5479 0.8437,17.1875 l -2.25,2.8125 -6.4687,-1.46875 c -3.5518,-0.82063 -6.5886,-1.88585 -6.75,-2.34375 -1.1273,-3.19412 -2.1002,-3.64635 -5.0937,-2.40625 -3.3229,1.37607 -5.7337,0.5798 -9.9376,-3.25 l -2.2812,-2.06255 -2.2188,2.2188 c -2.798,2.79778 -2.7842,8.20015 0.0313,13.71875 1.7966,3.52187 1.8946,4.28845 0.6875,6.46875 -0.7535,1.36118 -1.3869,3.50075 -1.4062,4.71875 -0.0198,1.21809 -0.9314,2.69255 -2.0313,3.28125 -1.4137,0.75648 -2,2.0961 -2,4.5625 -2e-4,3.05428 0.3566,3.5526 2.9063,4.0625 2.6759,0.53518 3.007,1.09095 4.1874,7.03125 1.3524,6.80477 2.8369,8.5728 9.4063,11.1875 2.0841,0.82959 3.534,2.4909 4.75,5.4375 2.1612,5.23807 2.1305,7.29855 -0.0937,11.46875 -1.6162,3.02958 -1.8966,3.15865 -3.7188,1.78125 -4.3099,-3.25863 -7.4303,-1.4905 -12.8125,7.1875 -2.9588,4.77029 -3.3192,7.44945 -1.1875,9.21875 1.7469,1.44968 3.5496,0.5875 3.5938,-1.75 0.0572,-3.05672 2.9687,1.8466 2.9687,5 -2e-4,2.13688 -0.9915,3.48915 -4.1563,5.78125 -2.2827,1.65349 -4.7484,3.03125 -5.4687,3.03125 -0.7206,-1.2e-4 -1.8572,1.9125 -2.5313,4.25 -0.6738,2.33738 -1.8078,5.13405 -2.5312,6.21875 -0.7233,1.08489 -1.3125,3.40055 -1.3125,5.15625 -2e-4,1.75558 -1.3801,6.81325 -3.0625,11.21875 l -3.0625,8 2.2187,4.3125 c 5.791,11.30837 10.5996,23.8314 10.125,26.3125 -0.3642,1.90429 0.3727,3.6588 2.6563,6.5 2.0368,2.53479 3.123,5.06295 3.1563,7.21875 0.0449,2.94018 0.8522,3.88795 7.25,8.46875 3.9593,2.83497 12.6572,9.81105 19.3124,15.53125 15.5605,13.37418 20.8371,17.2167 28.0313,20.375 3.2217,1.41438 8.7999,3.8598 12.375,5.4375 3.5748,1.57768 12.689,4.483 20.2813,6.4375 12.0951,3.11388 15.3129,3.5488 26,3.5625 12.3339,0.0157 14.7043,0.4268 32.2187,5.5 4.9498,1.43378 12.7597,3.25065 17.375,4.03125 4.615,0.78017 8.4739,1.5364 8.5625,1.6875 0.0888,0.15139 0.9101,1.507 1.8438,3 0.9333,1.49319 1.7187,4.2404 1.7187,6.125 -2e-4,3.02969 0.4342,3.59715 3.75,4.90625 2.0623,0.81428 7.1249,2.2764 11.25,3.25 4.1248,0.97348 9.75,2.59165 12.5,3.59375 2.7498,1.00209 6.3499,2.1314 8,2.5 2.4443,0.54599 4.6464,1.87375 5.75,3.28125 0.5039,0.19068 1.8868,0.67865 2.5,0.90625 1.2434,0.0145 2.4718,0.0937 3.7187,0.0937 5.3966,-2e-5 10.7639,-0.13575 16.0938,-0.40625 5.3301,-0.27041 10.6185,-0.68435 15.875,-1.21875 5.2567,-0.53442 10.4797,-1.17715 15.6562,-1.96875 5.1764,-0.79173 10.3162,-1.73885 15.4063,-2.78125 5.0898,-1.04242 10.128,-2.18215 15.125,-3.46875 4.9967,-1.28673 9.9467,-2.69445 14.8437,-4.21875 4.8971,-1.52432 9.7402,-3.1822 14.5313,-4.9375 4.7908,-1.75532 9.5407,-3.61405 14.2187,-5.59375 4.678,-1.97983 9.285,-4.08355 13.8438,-6.28125 4.5589,-2.19772 9.0671,-4.49715 13.5,-6.90625 4.433,-2.40901 8.7933,-4.91745 13.0938,-7.53125 2.6566,-1.61492 5.2394,-3.34025 7.8437,-5.03125 -1.6034,-0.0747 -3.1929,-0.0102 -4.8125,-0.25 -2.2932,-0.59453 -3.7022,-4.23735 -3.6875,-9.59375 0.01,-3.68722 1.288,-6.0311 10.7813,-19.6875 5.9259,-8.52512 13.3628,-18.8751 16.5312,-23 8.5774,-11.16722 16.2545,-27.1602 17.125,-35.6875 0.3832,-3.75322 1.3397,-9.0377 2.125,-11.75 2.0772,-7.17462 1.6905,-17.5625 -0.6562,-17.5625 -0.4702,-1.2e-4 -8.3234,7.5831 -17.4376,16.875 -9.1141,9.29178 -17.3416,17.10565 -18.2812,17.34375 -2.806,0.71129 -8.0768,-1.14325 -9.1875,-3.21875 -0.8648,-1.61562 -0.5152,-2.30925 2.0937,-4.21875 3.1308,-2.29203 24.9705,-28.93725 34.8126,-42.46875 2.8751,-3.95332 5.4547,-8.5749 5.7187,-10.25 0.488,-3.09802 3.4399,-9.8729 12.8437,-29.5625 l 5.25,-11 0.5626,-14 c 0.3162,-7.70002 0.3587,-15.19765 0.0624,-16.65625 -0.7746,-3.81821 -4.5662,-4.21595 -11.6874,-1.21875 -6.4902,2.73158 -8.72,2.4836 -12.8438,-1.375 -5.9657,-5.58212 -6.036,-12.2602 -0.0938,-8.75 l 2.9063,1.6875 6.9375,-5.125 c 7.5383,-5.5933 12.7294,-11.3149 21.1562,-23.3125 8.1865,-11.6556 10.2111,-12.5199 20.2813,-8.625 10.1692,3.9334 11.5529,3.986 15.625,0.75 2.0025,-1.5916 4.0347,-2.875 4.5313,-2.875 1.9732,0 7.3363,4.8128 11.7187,10.5313 4.4464,5.802 20.1347,21.4687 21.5,21.4687 0.8905,0 2.6169,-4.6427 3.4375,-9.2187 2.0574,-1.8401 3.6715,-3.8499 5.0938,-5.9063 0.2629,-5.2584 0.4062,-10.5204 0.4062,-15.8437 10e-5,-5.3969 -0.1359,-10.7638 -0.4062,-16.09379 -0.2707,-5.33 -0.653,-10.6499 -1.1876,-15.9062 -0.5345,-5.2567 -1.2082,-10.4486 -2,-15.625 -0.7918,-5.1767 -1.7074,-10.3163 -2.75,-15.4063 -1.0426,-5.09 -2.2132,-10.1592 -3.5,-15.1563 -1.2868,-4.9969 -2.6945,-9.9464 -4.2187,-14.8437 -1.5245,-4.8973 -3.1507,-9.74 -4.9063,-14.5313 -1.7555,-4.791 -3.645,-9.5095 -5.625,-14.1874 -1.9799,-4.6783 -4.0522,-9.3164 -6.25,-13.875 -2.1979,-4.559 -4.5284,-9.0359 -6.9374,-13.4688 -2.4093,-4.4329 -4.9176,-8.7933 -7.5313,-13.0938 -2.614,-4.3003 -5.3131,-8.5575 -8.125,-12.7187 -2.8122,-4.1612 -5.7151,-8.2344 -8.7187,-12.25 -3.0039,-4.0156 -6.1236,-7.9491 -9.3126,-11.8125 -3.1889,-3.8634 -6.4452,-7.6704 -9.8124,-11.375 -3.3675,-3.7046 -6.8361,-7.3358 -10.375,-10.875 -3.5394,-3.5392 -7.1705,-6.9762 -10.875,-10.3438 -3.7048,-3.3672 -7.4803,-6.6549 -11.3438,-9.8437 -3.8633,-3.1888 -7.7969,-6.277504 -11.8125,-9.281304 -4.0158,-3.0036 -8.1199,-5.9067 -12.2813,-8.7187 -4.1614,-2.812 -8.3871,-5.5421 -12.6874,-8.1563 -4.3006,-2.6138 -8.6609,-5.1221 -13.0938,-7.5312 -4.4328,-2.4091 -8.9412,-4.7088 -13.5,-6.9062 -4.5587,-2.1979 -9.1654,-4.3015 -13.8438,-6.2813 -4.6783,-1.979801 -9.4278,-3.838601 -14.2187,-5.593701 -4.7912,-1.7555 -9.6339,-3.4131 -14.5313,-4.9376 -4.8974,-1.5242 -9.8468,-2.9321 -14.8437,-4.2187 -4.9971,-1.2866 -10.0351,-2.4264 -15.125,-3.4687 -5.0902,-1.0426 -10.2297,-1.9585 -15.4063,-2.75 -5.1767,-0.7918 -10.3996,-1.4657 -15.6562,-2 -5.2564,-0.5345 -10.545,-0.9483 -15.875,-1.2188 -5.3299,-0.2705 -10.6969,-0.4063 -16.0938,-0.4062 z m -167.9062,49.000001 c -2.3264,1.484 -4.6846,2.9253 -6.9688,4.4687 -4.1611,2.812 -8.2656,5.7151 -12.2812,8.7187 -4.0157,3.0037 -7.9491,6.092504 -11.8125,9.281304 -3.8635,3.1888 -7.6394,6.4767 -11.3437,9.8437 -3.7047,3.3673 -7.336,6.8046 -10.875,10.3438 -3.5393,3.5392 -7.008,7.1704 -10.375,10.875 -3.3674,3.7046 -6.6238,7.5116 -9.8126,11.375 -3.1886,3.8634 -6.3089,7.7969 -9.3124,11.8125 -3.0038,4.0156 -5.9068,8.0888 -8.7188,12.25 -1.4037,2.077 -2.7079,4.2319 -4.0625,6.3437 1.1707,-0.6458 3.4938,-2.7678 6,-5.7187 2.9192,-3.4375 12.2063,-13.0939 20.6563,-21.4375 10.6958,-10.5617 15.9663,-16.5111 17.3437,-19.625 1.088,-2.4599 2.6316,-4.7341 3.4063,-5.0312 0.7743,-0.2974 4.9776,-3.257 9.3437,-6.5938 7.2611,-5.5494 11.25,-7.3967 11.25,-5.2188 -1e-4,0.4648 -0.947,1.6809 -2.0937,2.7188 -1.147,1.0379 -3.7238,4.1464 -5.7188,6.9062 -1.9951,2.7599 -9.0594,11.3313 -15.6875,19.0313 -6.6282,7.7 -13.8383,16.2522 -16.0313,19 -2.1924,2.7478 -5.221,6.3478 -6.75,8 -7.4806,8.0837 -23.2938,34.9103 -25.6562,43.5625 -1.411397,5.1688 -1.150497,10.0948 0.5625,10.6562 0.6299,0.2066 3.3167,-2.4052 5.9687,-5.7812 2.6525,-3.376 8.2254,-8.6684 12.375,-11.7812 7.7308,-5.7995 8.9081,-6.419 29.5313,-15.2188 13.3493,-5.6961 15.6315,-7.3849 19.0313,-14.0625 1.2898,-2.5339 6.2581,-8.8339 11.0312,-14 4.773,-5.1661 11.6675,-13.17 15.3125,-17.8125 3.6448,-4.6425 10.7875,-12.9103 15.875,-18.3438 5.0874,-5.4333 9.25,-10.5187 9.25,-11.3124 -1e-4,-0.7943 -0.5432,-2.2807 -1.1875,-3.3126 -0.959,-1.5353 -0.6781,-2.9193 1.5938,-7.5624 1.5264,-3.1204 2.633,-5.836104 2.4374,-6.031304 -0.428,-0.4281 -8.6369,1.0792 -11.0937,2.0313 -1.4349,0.5558 -1.75,0.1199 -1.75,-2.4063 -1e-4,-2.4123 0.6514,-3.4105 3,-4.625 1.6499,-0.8532 3,-2.0031 3,-2.5313 -1e-4,-0.5279 -2.8125,-2.3706 -6.25,-4.0937 -3.4376,-1.7231 -6.4617,-3.2935 -6.6875,-3.5 -0.0685,-0.0626 -0.1014,-0.1376 -0.125,-0.2187 -1.1703,-0.5744 -1.3912,-0.5598 -2.375,-1 z m 90.6875,5.875 c -0.4651,-0.0143 -0.9136,0.0123 -1.3437,0.0312 -5.1644,0.2272 -7.9063,2.7871 -7.9063,7.5 -10e-5,2.1956 -0.7012,3.6528 -2.25,4.6875 -2.2253,1.486404 -2.2405,1.515504 -0.3437,3.625004 2.0295,2.2575 3.4483,2.1666 9.0937,-0.625 5.0716,-2.508004 10.5,-8.374104 10.5,-11.343704 -10e-5,-2.1928 -0.5606,-2.7684 -3.125,-3.2813 -1.6826,-0.3364 -3.23,-0.5515 -4.625,-0.5937 z m 26.75,6.0624 c -1.7562,0.0058 -2.3802,0.7377 -3.875,3.1563 -1.1829,1.9137 -2.125,5.011104 -2.125,6.875004 -10e-5,5.0812 8.384,24.9751 11.1875,26.5313 3.5336,1.9613 9.6318,1.6094 13.5,-0.7813 3.8521,-2.3808 3.5698,-3.0328 -2.1875,-4.7187 -2.2001,-0.6445 -5.125,-2.0581 -6.5,-3.125 -2.4196,-1.8777 -2.5,-2.3184 -2.5,-13.9063 -10e-5,-6.5855 -0.3205,-12.257904 -0.6875,-12.625004 -0.3672,-0.3671 -2.4309,-0.9289 -4.5938,-1.2187 -0.911,-0.1223 -1.6334,-0.1894 -2.2187,-0.1876 z m -58.8125,7.187604 c -0.8566,0.1287 -1.8981,0.7233 -3,1.75 -2.823,2.6298 -1.934,4.1467 2.1562,3.75 2.6132,-0.2538 3.1563,-0.7228 3.1563,-2.7813 -10e-5,-1.8093 -0.7859,-2.7254 -1.9687,-2.7187 -0.1152,5e-4 -0.2214,-0.0186 -0.3438,0 z m -5.6562,12.3124 c -0.2009,-0.007 -0.4077,0.005 -0.625,0.0313 -1.4509,0.1773 -3.4212,1.1472 -7.3438,3.3125 -6.1024,3.3685 -7.4078,4.5756 -8.3438,7.625 -1.0331,3.3666 -0.833,3.9585 2.5626,9 2.0048,2.977 4.1586,5.4375 4.8124,5.4375 0.6541,0 2.0994,-1.5312 3.1876,-3.375 1.1847,-2.0083 3.8254,-4.2224 6.5937,-5.5625 4.9188,-2.3812 5.0435,-2.7306 4,-10.3438 -0.4834,-3.526 -1.1737,-4.7813 -3.0937,-5.6562 -0.6028,-0.2746 -1.1482,-0.4466 -1.75,-0.4688 z m -105.0938,88 c -0.7841,-0.0564 -1.4194,1.346 -2.8438,4.1563 -2.0781,4.1011 -2.5937,6.5991 -2.5937,12.125 -1e-4,6.3286 0.2294,7.1466 2.625,9.0313 1.4491,1.1397 3.2051,2.0937 3.9063,2.0937 0.7008,0 4.1129,-1.9125 7.5937,-4.25 3.4807,-2.3375 6.9079,-5.375 7.5937,-6.75 1.3443,-2.6944 1.767,-13.0196 0.5313,-13 -0.4126,0.007 -3.225,0.6827 -6.25,1.5 -5.0933,1.3761 -5.6019,1.3686 -6.7187,-0.25 -2.1158,-3.065 -3.0598,-4.5999 -3.8438,-4.6563 z m 292.125,79.5938 c 1.3133,-0.0292 15.407,8.3217 20.0938,11.9375 4.4261,3.4149 5.7109,3.9396 8.2812,3.375 2.8133,-0.6179 3.7101,-0.032 11.3125,7.5313 4.5331,4.5095 10.1178,9.7386 12.4063,11.625 5.3845,4.4374 11.742,13.6622 11.0624,16.03119 -0.2844,0.9912 -0.8226,2.6 -1.2187,3.5625 -0.565,1.372 -0.2324,1.75 1.5937,1.75 l 2.3438,0 -2.25,1.5625 c -1.3762,0.9639 -5.3935,1.7619 -10.4688,2.0938 -4.5313,0.296 -9.2194,1.1694 -10.4374,1.9374 -2.8979,1.8269 -2.6731,1.9208 -5.6876,-2.0312 -2.374,-3.1123 -2.5937,-4.267 -2.5937,-12.37499 -2e-4,-9.8367 -0.2029,-10.1873 -6.5,-12.2188 -9.603,-3.0975 -19.461,-9.0977 -25,-15.2187 -4.9267,-5.444 -5.5,-6.5742 -5.5,-10.5 -2e-4,-3.5582 0.9799,-7.1686 2.4687,-9.0313 0.0148,-0.0188 0.0515,-0.0303 0.0938,-0.0312 z m -54.7188,45.7812 c 2.1078,-0.0946 4.4634,0.2583 7.1563,1 1.9247,0.5302 8.2094,1.6706 13.9687,2.5313 11.5161,1.72089 14.3928,3.34439 15.5938,8.81249 0.5833,2.655 0.2287,3.4545 -2.6875,5.9375 -1.8551,1.5794 -4.7778,4.2179 -6.4687,5.8437 -2.645,2.5431 -4.2221,3.0702 -11.2813,3.875 -4.5135,0.515 -8.6613,1.2173 -9.2187,1.5626 -0.5578,0.3441 -2.1437,-0.1221 -3.5313,-1.0313 -1.9797,-1.297 -2.8444,-1.4023 -3.9687,-0.4687 -0.7885,0.6536 -1.4063,1.8669 -1.4063,2.6874 -2e-4,1.2744 -0.4022,1.2477 -2.5937,-0.1874 -2.9311,-1.9209 -4.8278,-0.9865 -5.7813,2.8124 -0.3143,1.2517 -1.7345,2.8811 -3.125,3.625 -1.3908,0.7445 -3.3769,2.8279 -4.4375,4.625 -2.5953,4.3993 -7.229,6.5936 -15.0938,7.1563 l -6.5624,0.4687 -2.8438,-4.3124 c -2.8395,-4.2915 -2.8688,-4.3785 -2.2812,-16.0626 0.4217,-8.3926 1.1596,-12.9515 2.5312,-16.0312 1.056,-2.3705 2.2039,-5.55 2.5625,-7.0625 0.589,-2.48639 1.0699,-2.74999 5.0625,-2.74999 5.4291,0 9.5625,1.47069 9.5625,3.40629 -2e-4,1.9964 4.7802,5.5937 7.4375,5.5937 1.425,0 3.3786,-1.5874 5.625,-4.5937 3.6467,-4.88019 7.1436,-7.22909 11.7812,-7.43759 z m -133.625,39.21879 c 0.8378,-0.0432 1.8613,0.4964 3.0626,1.625 2.278,2.1404 2.4086,2.1875 5.6874,2.1875 1.2749,0 2.6845,1.3346 3.9376,3.75 4.1121,7.92728 6.9497,10.1029 14.5937,11.25 3.8498,0.57768 8.4233,1.52695 10.1875,2.09375 3.9268,1.26139 7.3125,6.3558 7.3125,11.0625 -2e-4,3.01977 0.7993,4.12805 6.5,8.84375 5.1835,4.28808 6.5,5.9453 6.5,8.1875 -2e-4,2.14338 0.4773,2.8125 2,2.8125 1.0982,-1.2e-4 3.7658,1.6004 5.9375,3.5625 3.1448,2.84108 4.6186,3.5027 7.25,3.25 3.4899,-0.33532 3.4701,-0.2482 2.125,-7.0625 -0.5118,-2.59292 -0.3445,-2.75 3.0625,-2.75 1.9872,-1.2e-4 3.6221,0.3375 3.625,0.75 0.002,0.41238 1.0313,2.03165 2.2813,3.59375 2.2451,2.80589 2.3026,2.79885 4.5624,0.96875 1.9259,-1.55972 2.117,-2.27065 1.2813,-4.46875 -0.7669,-2.01651 -2.884,-3.3868 -9.3125,-6.0625 -6.7368,-2.80433 -8.9675,-4.29435 -11.6875,-7.84375 l -3.3437,-4.40625 3.0312,-0.78125 c 3.408,-0.88312 4.6875,-2.2977 4.6875,-5.25 -2e-4,-1.51872 1.3326,-2.43165 5.6875,-3.90625 5.3586,-1.81411 5.8328,-1.8339 8.25,-0.25 2.2344,1.46399 2.5625,2.40125 2.5625,7.15625 -2e-4,5.01428 0.1917,5.50675 2.5313,6.09375 2.4517,0.61529 2.4727,0.6932 0.7812,2.5625 -1.5115,1.67007 -1.5379,2.0799 -0.2812,2.875 0.8029,0.50787 1.8061,0.9292 2.2187,0.9375 0.4123,0.008 0.75,0.93125 0.75,2.03125 -2e-4,1.60528 0.6635,2 3.375,2 2.3796,-2e-5 3.8059,0.65575 4.8437,2.21875 1.4675,2.21049 1.4848,2.1997 5.5313,0.375 2.2338,-1.00731 4.5822,-1.5184 5.2187,-1.125 0.6367,0.39349 3.1777,0.4338 5.6563,0.0625 3.8643,-0.57973 4.6822,-1.1349 5.5937,-3.75 l 1.0626,-3.03125 7.4062,0.46875 c 6.853,0.43969 7.6751,0.27345 11.0938,-2.21875 2.0333,-1.48262 5.6174,-4.7818 7.9374,-7.3125 l 4.2188,-4.59375 1,3.6875 c 0.5643,2.03127 1.0284,4.7672 1.0312,6.0625 0.003,1.29559 1.1603,3.7086 2.5626,5.375 1.8112,2.15279 2.396,3.79885 2.0312,5.65625 -1.316,6.70148 -0.954,10.79275 1.2188,13.84375 1.2092,1.69859 2.2187,4.23205 2.2187,5.65625 -2e-4,3.80908 -6.4257,8.08815 -14.4063,9.59375 -5.7454,1.08409 -6.6856,1.0075 -9.25,-0.625 -1.5715,-1.00051 -3.2163,-2.39305 -3.6562,-3.09375 -0.4398,-0.70072 -2.5773,-1.25 -4.75,-1.25 -3.3093,-1.2e-4 -3.9375,0.32205 -3.9375,2.03125 -2e-4,1.12177 -0.9299,3.8425 -2.0625,6.0625 -1.507,2.95419 -1.7862,4.39645 -1,5.34375 0.831,1.00108 -0.0455,1.7901 -3.875,3.4375 -2.7226,1.17118 -6.5748,2.125 -8.5625,2.125 -1.9881,-1.2e-4 -4.9835,0.6976 -6.6563,1.5625 -2.6802,1.38588 -3.4619,1.41505 -6.6874,0.15625 -2.5122,-0.98011 -4.5973,-1.1552 -6.6563,-0.5625 -2.178,0.62677 -4.0781,0.39485 -6.875,-0.84375 l -3.8437,-1.71875 -6.5,3.4375 c -8.1131,4.30277 -9.7092,6.51815 -9.0313,12.53125 0.4197,3.72508 0.1356,4.918 -1.5625,6.5 -1.1403,1.06238 -2.3162,1.85475 -2.625,1.78125 -0.3087,-0.0735 -2.8125,-0.9353 -5.5625,-1.9375 -2.7502,-1.00253 -7.3976,-1.851 -10.3125,-1.875 -5.4647,-0.0452 -9.3692,-1.51285 -14.9062,-5.65625 -2.7881,-2.08622 -4.1941,-2.38295 -11.1563,-2.28125 -6.5565,0.0958 -8.9708,-0.34705 -13.4687,-2.40625 -6.8565,-3.13902 -8.1198,-5.97135 -4.125,-9.15625 l 2.75,-2.1875 -2.5313,-1.96875 c -3.9694,-3.12222 -6.1962,-8.163 -4.875,-11.0625 1.4556,-3.19522 1.4331,-3.3125 -0.9063,-3.3125 -1.1076,-1.2e-4 -2.8532,-0.51825 -3.875,-1.15625 -1.506,-0.94041 -2.3979,-0.7819 -4.8124,0.9375 -2.5639,1.82537 -3.5293,1.98295 -6.75,1.09375 -4.106,-1.13372 -14.4172,-0.72925 -24.5313,0.96875 -3.5752,0.60019 -8.747,1.38115 -11.4687,1.71875 -3.8542,0.47788 -5.6237,1.3329 -8,3.875 -1.6927,1.81018 -5.2209,3.99965 -7.9376,4.90625 -4.8125,1.60599 -5.0173,1.567 -11.75,-1.0625 -6.0381,-2.35843 -6.8437,-2.97915 -6.8437,-5.28125 -2e-4,-3.51422 5.1132,-5.54445 9.8125,-3.90625 2.6204,0.91339 3.7048,0.77825 6.4062,-0.78125 4.7778,-2.75822 6.7793,-7.48105 6.7813,-16.09375 l 0,-7.25 7,-6.96875 c 6.7604,-6.74732 7,-7.1503 7,-11.875 -2e-4,-3.99432 0.412,-5.18145 2.2813,-6.40625 2.0589,-1.34921 2.6158,-1.32325 5.7187,0.28125 3.3129,1.71328 3.5957,1.70145 6.9687,-0.0312 1.9313,-0.99211 4.3137,-3.1545 5.2813,-4.8125 0.9672,-1.65823 3.7297,-4.11265 6.1563,-5.46875 l 4.4374,-2.46875 0.625,2.625 c 2.2428,9.12129 10.121,15.69685 31.9688,26.65625 11.4352,5.73608 12.0257,6.1746 13.4688,10.25 1.727,4.87858 3.139,4.97975 4.4687,0.34375 0.7033,-2.45301 0.5257,-4.0725 -0.7813,-6.8125 -1.9988,-4.19133 -0.8832,-5.65115 3.5626,-4.71875 6.506,1.36448 2.5846,-4.59095 -6.6563,-10.09375 -5.0817,-3.02591 -6.5814,-3.48 -9.8125,-2.9375 -3.7493,0.62897 -3.969,0.5152 -12.75,-8.375 -8.3113,-8.41505 -8.9375,-9.35715 -8.9375,-13.15625 -2e-4,-3.0928 0.8223,-4.7404 2.2187,-4.8125 z m 308.0938,20.4375 c 1.1592,-0.0625 1.6391,1.4517 1.6562,4.625 0.0163,2.99588 -5.9102,15.58965 -8.25,17.53125 -2.2772,1.88957 -6.8284,2.14515 -12.1562,0.65625 -3.6974,-1.03332 -5.9765,-1.11285 -9.0312,-0.34375 -3.6575,0.92089 -4.7686,0.7034 -10.8126,-2.125 -6.6571,-3.11521 -6.7187,-3.2013 -6.7187,-7.125 -2e-4,-5.10761 1.4942,-7.86215 4.2813,-7.84375 1.2179,0.008 5.3478,1.5628 9.1874,3.4375 6.6297,3.23668 7.2482,3.3401 12.4688,2.375 7.1839,-1.32802 10.7087,-3.206 15.3438,-8.1875 1.8083,-1.94382 3.1298,-2.9514 4.0312,-3 z m -325.0938,1.625 c -1.7665,-0.0385 -4.2187,8.013 -4.2187,14.0625 -1e-4,3.71608 -0.6899,7.08565 -1.9375,9.53125 -1.8921,3.70859 -1.8956,3.86185 -0.0625,6.65625 1.8681,2.84788 5.4241,5.40175 7.6563,5.46875 0.648,0.0195 1.9133,-0.6949 2.7812,-1.5625 3.4819,-3.48213 3.5688,-4.88305 0.9062,-14.53125 -1.4234,-5.15902 -2.8737,-11.6075 -3.2187,-14.3125 -0.3451,-2.70502 -1.1443,-5.08025 -1.75,-5.28125 -0.0556,-0.0185 -0.0991,-0.0301 -0.1563,-0.0312 z m 31.2813,35.875 c -0.8565,0.0402 -1.508,0.47425 -2.4687,1.34375 -1.1201,1.01349 -2.045,1.435 -2.0626,0.9375 -0.073,-2.08043 -2.9687,3.1617 -2.9687,5.375 -10e-5,2.18687 0.3131,2.38665 3.25,1.84375 1.7874,-0.33052 4.6,-0.21595 6.25,0.28125 4.6574,1.40267 7.0738,1.24455 9.3125,-0.65625 1.5112,-1.28332 1.9156,-2.4835 1.5,-4.5 -0.4696,-2.27802 -1.0883,-2.75 -3.625,-2.75 -1.6845,-1.2e-4 -4.537,-0.5343 -6.3438,-1.1875 -1.063,-0.38452 -1.8327,-0.637 -2.4687,-0.6875 -0.1326,-0.0106 -0.2527,-0.006 -0.375,0 z m 80.1875,3.09375 c -1.0607,0.11529 -2.0276,0.69155 -3.1875,1.78125 -1.7508,1.64458 -3.0965,2.06385 -4.9687,1.59375 -2.0927,-0.52521 -2.5313,-0.3003 -2.5313,1.3125 -10e-5,4.46587 9.069,5.6422 13.5937,1.75 3.2013,-2.75373 2.7466,-5.2786 -1.125,-6.25 -0.4804,-0.12073 -0.9241,-0.1845 -1.3437,-0.1875 -0.1575,-10e-4 -0.286,-0.0163 -0.4375,0 z m 86.5625,32.9375 c 3.2836,0.0367 9.6445,3.38535 17.3125,9.15625 5.482,4.12548 8.5221,5.63985 13.3125,6.65625 4.3375,0.92059 6.854,2.0833 8.4063,3.875 5.3611,6.18879 12.0734,12.15625 13.6874,12.15625 0.9653,-1.2e-4 5.0658,1.13165 9.125,2.53125 4.0593,1.39917 9.3187,3.02345 11.6563,3.59375 3.4226,0.83498 4.25,1.45 4.25,3.25 -2e-4,1.54208 1.1559,2.88585 3.75,4.34375 3.5908,2.01829 8.25,7.14975 8.25,9.09375 -2e-4,1.89188 -2.7244,2.9148 -9.3125,3.5 -6.4523,0.57298 -6.8119,0.48225 -7.8438,-1.78125 -1.4163,-3.10803 -4.4404,-3.81155 -8.125,-1.90625 -2.8641,1.48088 -3.0782,1.4208 -6.1562,-1.5625 -2.3467,-2.27482 -4.121,-3.0625 -6.75,-3.0625 -3.7623,-1.2e-4 -6.8764,-2.7404 -16.2188,-14.25 -3.2562,-4.01152 -4.3854,-4.75 -7.3124,-4.75 -2.8528,-1.2e-4 -4.5526,-1.05065 -9.625,-5.84375 -3.3902,-3.20353 -8.2062,-6.98845 -10.6876,-8.40625 -2.4813,-1.41792 -6.4916,-4.32595 -8.9062,-6.46875 -4.2949,-3.81163 -4.3486,-3.95585 -2.9688,-6.84375 0.7904,-1.65442 2.3355,-3.0788 3.5313,-3.25 0.1907,-0.0274 0.4059,-0.0338 0.625,-0.0312 z m -299.1875,13.84375 c -0.5131,-1.2e-4 -1.218,0.88335 -1.5625,1.96875 -0.3447,1.08569 -1.6442,2.7732 -2.875,3.75 -1.231,0.97689 -2.5809,2.34375 -3,3.03125 -1.2435,2.03958 5.403,1.5628 6.9687,-0.5 1.5174,-1.99892 1.8748,-8.25 0.4688,-8.25 z" id="path2653" />
        <path style="opacity:0.09790213;fill:url(#linearGradient3846);fill-opacity:1;stroke:none;stroke-width:16.68700027;stroke-linejoin:round;stroke-miterlimit:4;stroke-dasharray:none;stroke-opacity:1" id="path2650" d="m 2644.9688,48.455078 c -162.5215,0 -293.9511,131.490452 -293.9512,294.138672 0,30.77915 4.9381,60.29105 13.7187,88.17969 3.5761,3.54828 7.1987,7.0327 10.9336,10.42968 4.1102,3.7383 8.298,7.37704 12.543,10.88282 4.205,3.47291 8.5666,6.87563 13.0644,10.24218 4.495,3.36439 8.9964,6.59625 13.5274,9.66016 4.5754,3.09383 9.2561,6.08805 14.0215,8.98633 4.7434,2.88501 9.5567,5.65571 14.4531,8.31836 4.9257,2.67858 9.8939,5.23907 14.8887,7.64844 5.0249,2.42391 10.1266,4.73216 15.2929,6.91992 5.1025,2.16072 10.3219,4.20018 15.668,6.16015 5.2824,1.93654 10.6432,3.75318 16.0449,5.43555 5.3954,1.68035 10.8451,3.22816 16.3653,4.65039 5.5399,1.42735 11.0952,2.72198 16.6836,3.86719 5.6455,1.15693 11.3298,2.18354 17.0097,3.05273 5.6617,0.86644 11.422,1.58622 17.2754,2.18164 5.8169,0.5917 11.6374,1.03952 17.5137,1.3379 5.9305,0.30113 11.8701,0.46679 17.791,0.46679 5.9209,0 11.8606,-0.16566 17.791,-0.46679 5.8763,-0.29838 11.6968,-0.7462 17.5137,-1.3379 5.8535,-0.59542 11.6138,-1.31521 17.2754,-2.18164 5.6799,-0.8692 11.3643,-1.89581 17.0097,-3.05273 5.5884,-1.14521 11.1437,-2.43984 16.6836,-3.86719 5.5201,-1.42221 10.9696,-2.96999 16.3653,-4.65039 5.4016,-1.68235 10.7622,-3.49893 16.0449,-5.43555 5.346,-1.9599 10.5654,-3.99939 15.668,-6.16015 5.1663,-2.18776 10.268,-4.49601 15.2929,-6.91992 4.9948,-2.40937 9.963,-4.96986 14.8887,-7.64844 4.8965,-2.66271 9.71,-5.43351 14.4531,-8.31836 4.7654,-2.89828 9.4461,-5.8925 14.0215,-8.98633 4.5308,-3.06374 9.0323,-6.29567 13.5274,-9.66016 4.4979,-3.36665 8.8598,-6.76756 13.0644,-10.24023 a 25.707694,25.707694 0 0 1 0,-0.002 c 4.2451,-3.506 8.4329,-7.14466 12.543,-10.88282 4.0952,-3.72463 8.0815,-7.52638 11.9883,-11.43554 3.8843,-3.8868 7.6944,-7.90094 11.4355,-12.01953 3.7574,-4.13629 7.4009,-8.3195 10.8848,-12.54297 3.491,-4.2323 6.8963,-8.58866 10.2422,-13.06446 3.3056,-4.4222 6.5142,-8.94655 9.6289,-13.55859 3.1086,-4.60311 6.1085,-9.27751 8.9902,-14.02148 2.8982,-4.77117 5.6705,-9.57767 8.3184,-14.45313 2.6694,-4.91499 5.2345,-9.90969 7.6484,-14.91992 2.4333,-5.05059 4.7426,-10.14662 6.9199,-15.29492 2.1685,-5.12736 4.2106,-10.33815 6.1621,-15.66797 0.9979,-2.72531 1.9209,-5.61351 2.8672,-8.44922 C 2912.6128,155.65336 2791.534,48.455079 2644.9688,48.455078 Z" transform="translate(-2276.5381,-17.761371)" />
        <circle transform="matrix(0.6514474,0,0,0.4875785,293.96694,246.39792)" id="path3620" style="opacity:0.34615383;fill:url(#linearGradient3848);fill-opacity:1;stroke:none;stroke-width:16.68700027;stroke-linejoin:round;stroke-miterlimit:4;stroke-dasharray:none;stroke-opacity:1" cx="114.28571" cy="-116.20924" r="300" />
        <circle style="opacity:0.61188809;fill:url(#linearGradient3850);fill-opacity:1;stroke:none;stroke-width:20.99734879;stroke-linejoin:round;stroke-miterlimit:4;stroke-dasharray:none;stroke-opacity:1;filter:url(#filter3943)" id="path3633" transform="matrix(1.7894737,0,0,1.1301938,-3967.5797,-363.10606)" clip-path="url(#clipPath3957)" cx="2417.0195" cy="853.11951" r="54.282944" />
        <path id="path3965" d="m 341.16774,33.332595 c 2.3346,-0.2141 4.6822,-0.3689 7.0313,-0.5313 -2.9697,-0.3075 -6.372,-0.6118 -8.4687,-0.5625 0.8309,0.1756 1.2621,0.563 1.4374,1.0938 z" style="fill:#94b2fd;fill-opacity:1;stroke:none;stroke-width:16.68700027;stroke-linejoin:round;stroke-miterlimit:4;stroke-dasharray:none;stroke-opacity:1" />
      </g>
      <g transform="matrix(1.0437139,0,0,1.1420329,-14.38869,-81.204656)" id="g6999">
        <path id="path8072" d="m 582.79916,594.98352 c -0.0518,0.0526 -0.10461,0.10413 -0.15642,0.15643 0.15618,-0.0225 0.31311,-0.0551 0.46928,-0.0781 -0.10086,-0.028 -0.21174,-0.0498 -0.31286,-0.0781 l 0,-2.6e-4 z" style="fill:#0000ff;stroke-width:1px" />
        <path transform="matrix(2.5028529,0,0,2.5028529,-1097.2708,-869.65473)" id="path8074" d="m 663.1536,401.92684 c 3.24544,7.83399 1.36356,38.42295 -6.5911,46.91686 -2.53275,-9.58828 -9.21744,-13.93788 -15.1875,-20.8125 -16.46289,0.96486 -9.38159,35.05287 -9.5625,58.8125 -3.70868,-3.46746 -7.24191,-8.36491 -9.59375,-14.09375 -21.04597,18.57351 -18.5694,51.60608 -14.46875,75.96875 -7.50781,0.90456 -13.20895,-8.87548 -14.65625,-17.46875 -9.98025,8.0807 0.98713,27.75017 -3.65625,40.625 -3.40716,-1.32669 -8.95127,-9.16334 -10.1875,-8.5 -11.87478,6.65907 13.51432,22.93085 19.25,27.6875 l 2.25,2.125 c -0.51545,1.00241 -1.47321,1.60268 -1.5625,3.03125 -5.43042,3.44713 -16.71688,9.48957 -24.52134,12.14412 -9.27728,3.15551 -11.61144,2.47427 -21.84779,6.3508 5.23112,0.89557 9.45209,1.79114 14.68321,2.68671 13.31536,-2.33412 25.8731,-11.23424 38.68338,-19.62928 1.07292,-0.11458 2.39837,0.78098 3.47129,0.6664 0.0312,-0.13542 0.0625,-0.27083 0.0937,-0.40625 10.33255,1.49693 20.57494,6.06013 30.9375,6.21875 -2.53275,-2.23123 -6.34375,-4.64547 -6.34375,-7.78125 8.80433,-1.86942 14.16911,4.94378 18.8125,9.40625 1.02517,-3.19609 -0.50051,-6.20527 0.34375,-10.125 8.62341,-2.05032 16.53113,-1.72923 24.25,-2.875 -7.35704,-2.05032 -16.16424,-5.5534 -21.53125,-9.59375 15.55833,-1.32669 37.24191,0.59868 39.59375,-19 -2.83427,-0.48243 -7.82537,-0.41892 -12.46875,-1.625 21.70931,-4.76399 31.311,-22.90621 33.84375,-41.78125 -4.9449,1.99001 -14.60612,2.15456 -20.09375,1.25 13.32711,-18.45292 28.30294,-41.78129 14.3125,-71.8125 -1.74881,4.64338 -5.50289,8.00609 -8.15625,9.03125 -10.28588,-47.86006 -19.51663,-44.01771 -40.09635,-57.41686 z" style="opacity:0.80616742;fill:#000000;fill-opacity:1;stroke-width:1px;filter:url(#filter3868)" />
        <path id="path8076" d="m 530.78676,239.26543 c -6.25714,-23.68773 -22.79384,-34.40304 -37.5428,-51.3867 -40.03929,9.33639 -23.17374,86.54582 -23.62068,145.24368 -9.16223,-8.56631 -17.88869,-20.65227 -23.69889,-34.8053 -55.15412,41.46116 -45.87446,127.52631 -35.74386,187.71397 -18.54794,2.2347 -32.63763,-21.94464 -36.21315,-43.17422 -24.65609,19.96327 2.47677,68.54167 -8.99463,100.34877 -8.41734,-3.27757 -22.13088,-22.60017 -25.18497,-20.9614 -29.33648,16.45115 33.38429,56.60793 47.55422,68.35918 l 16.97247,16.11212 c 29.19994,1.34082 58.00882,16.05622 87.20878,16.50318 -6.25713,-5.51224 -15.64283,-11.49377 -15.64283,-19.24069 21.75099,-4.61838 34.98778,12.20515 46.45921,23.22961 2.53266,-7.8959 -1.22537,-15.34489 0.86035,-25.02853 21.30404,-5.0653 40.84269,-4.28688 59.91204,-7.11748 -18.17546,-5.0653 -39.92649,-13.71727 -53.18562,-23.6989 38.43666,-3.27756 92.03571,1.48981 97.84591,-46.92848 -7.00203,-1.19184 -19.34498,-1.00934 -30.81638,-3.98893 53.63256,-11.76936 77.3538,-56.61213 83.61093,-103.24269 -12.2163,4.91631 -36.10885,5.36327 -49.66599,3.12857 32.92446,-45.58769 69.91599,-103.2762 35.3528,-177.46791 -4.32042,11.4714 -13.54594,19.83661 -20.10104,22.36924 -2.95625,-71.19247 -40.69566,-114.41806 -107.74185,-147.25069 23.00304,40.69289 20.3539,78.30159 -7.62402,121.2836 z" style="fill:#fed604;fill-opacity:1;stroke:url(#radialGradient7103);stroke-width:3.00300002;stroke-linejoin:miter;stroke-miterlimit:4;stroke-dasharray:none;stroke-opacity:1" />
        <path id="path8078" d="m 267.41417,657.13554 c 15.78885,-0.72152 30.60719,0.49149 46.39603,2.67505 9.12776,0.80177 54.47688,-14.78963 126.09741,-89.3531 37.95767,-39.51739 155.55424,-158.81417 152.0499,-311.78522 -11.13937,102.01899 -66.91961,190.87918 -134.74517,264.09528 -61.65301,66.55299 -127.97127,111.51938 -182.03818,128.52804 -3.82303,1.20267 -4.92105,3.37396 -7.75999,5.83995 z" style="fill:url(#radialGradient7105);fill-opacity:1;stroke-width:1px" />
        <path id="path8080" d="m 485.08541,194.83362 c -31.85889,37.18962 12.81476,182.74749 21.54286,220.5692 16.85508,-17.27646 58.12525,-91.97789 74.98034,-109.25436 -47.84021,-1.4036 -88.83616,-63.54583 -96.5232,-111.31484 l 0,0 z" style="opacity:0.81497797;fill:url(#linearGradient7107);fill-opacity:1;stroke-width:1px" />
        <path style="opacity:0.75330392;fill:url(#linearGradient7109);fill-opacity:1;stroke-width:1px" d="m 444.60291,309.30333 c -41.86436,25.64423 -47.47043,136.96963 -14.17888,210.06017 21.17546,-11.58313 96.36056,-66.92781 117.53605,-78.51097 -54.44884,2.84627 -101.86356,-77.81472 -103.35717,-131.5492 l 0,0 z" id="path8082" />
        <path style="opacity:0.81497797;fill:url(#linearGradient7111);fill-opacity:1;stroke-width:1px" d="m 372.38993,448.69444 c -16.55925,19.32999 6.66069,94.98635 11.19728,114.64489 8.76074,-8.97977 40.0443,-51.3827 48.80504,-60.36246 -31.56988,6.86839 -56.00685,-29.45362 -60.00232,-54.28243 z" id="path8084" />
        <path id="path8086" d="m 336.85808,528.64726 c -12.74801,8.86954 57.14356,77.08128 82.80939,76.7622 3.1804,-12.13556 -14.58833,-30.3262 -11.40793,-42.46173 -47.75704,2.92276 -64.19385,-45.65872 -71.40146,-34.30047 l 0,0 z" style="opacity:0.81497797;fill:url(#linearGradient7113);fill-opacity:1;stroke-width:1px" />
        <path style="opacity:0.81497797;fill:url(#linearGradient7115);fill-opacity:1;stroke-width:1px" d="m 666.60395,254.12557 c 40.10992,82.09204 -50.19565,181.42069 -70.31152,214.43051 -11.8093,-21.05021 -39.92384,-110.84047 -51.73312,-131.89068 43.41303,-21.20916 102.256,-38.38806 122.04464,-82.53983 l 0,0 z" id="path8088" />
        <path id="path8090" d="m 675.60881,422.7077 c -13.25869,87.27904 -89.76679,107.22916 -163.16481,108.79612 -7.46706,-22.95239 -5.98085,-157.52807 -13.44793,-180.48048 37.6745,39.41333 123.03097,93.22997 176.61274,71.68436 z" style="opacity:0.75330392;fill:url(#linearGradient7117);fill-opacity:1;stroke-width:1px" />
        <path id="path8092" d="m 623.81622,527.85568 c -7.73036,36.60901 -56.23056,35.01013 -100.16932,32.04007 1.76457,-12.42068 17.51766,-35.90484 19.28225,-48.32551 13.83141,29.19803 52.14544,22.58873 80.88707,16.28544 z" style="opacity:0.81497797;fill:url(#linearGradient7119);fill-opacity:1;stroke-width:1px" />
        <path style="opacity:0.81497797;fill:url(#linearGradient7121);fill-opacity:1;stroke-width:1px" d="m 568.84283,593.10864 c -29.63032,2.19478 -24.9449,1.9367 -68.88366,7.90541 1.76459,-12.42068 -11.98024,-65.84969 -10.21565,-78.27034 13.83142,29.19802 28.90465,57.89681 79.09931,70.36493 l 0,0 z" id="path8094" />
        <path id="path8096" d="m 521.34662,623.28331 c -20.14061,-21.84328 -25.07041,-21.68595 -61.30856,-32.72463 10.82552,-6.34 80.5536,-42.72515 91.37909,-49.06515 -14.27005,28.98619 -35.64534,36.7347 -30.07053,81.78978 z" style="opacity:0.81497797;fill:url(#linearGradient7123);fill-opacity:1;stroke-width:1px" />
        <path id="path8098" d="m 486.03489,621.16379 c -29.8072,-4.04812 -21.97968,-8.91189 -67.64623,-15.21321 5.75536,-11.14733 30.86476,-18.69166 36.62012,-29.83896 19.37018,21.2301 10.80481,33.02969 31.02611,45.05217 z" style="opacity:0.81497797;fill:url(#linearGradient7125);fill-opacity:1;stroke-width:1px" />
        <path id="path8100" d="m 548.28581,128.12884 c 24.77151,15.46599 43.28943,24.3546 65.86846,71.35378 8.15062,15.30307 10.76141,86.89934 -5.86905,35.06459 -10.87889,-30.5348 -6.9866,84.76206 -59.99941,-106.41837 z" style="opacity:0.81497797;fill:url(#linearGradient7127);fill-opacity:1;stroke-width:1px" />
      </g>
    </g>
  </g>
</svg>