<svg xmlns:dc="http://purl.org/dc/elements/1.1/" xmlns:cc="http://creativecommons.org/ns#" xmlns:svg="http://www.w3.org/2000/svg" xmlns="http://www.w3.org/2000/svg" xmlns:xlink="http://www.w3.org/1999/xlink" width="128" height="128" id="omw" version="1.1">
<defs id="defs3">
  <linearGradient id="linearGradient2236">
    <stop id="stop2238" offset="0.0000000" style="stop-color:#1b071d;stop-opacity:1.0000000;"/>
    <stop id="stop2240" offset="1.0000000" style="stop-color:#270b25;stop-opacity:0.0000000;"/>
  </linearGradient>
  <linearGradient id="linearGradient2258">
    <stop style="stop-color:#1cbdfb;stop-opacity:1.0000000;" offset="0.0000000" id="stop2260"/>
    <stop style="stop-color:#043f74;stop-opacity:0.0000000;" offset="1.0000000" id="stop2262"/>
  </linearGradient>
  <linearGradient id="linearGradient2233">
    <stop style="stop-color:#1cd7fb;stop-opacity:1.0000000;" offset="0.0000000" id="stop2235"/>
    <stop style="stop-color:#1eadeb;stop-opacity:1.0000000;" offset="0.44000000" id="stop2237"/>
    <stop style="stop-color:#0e8adc;stop-opacity:1.0000000;" offset="0.57999998" id="stop2239"/>
    <stop style="stop-color:#065297;stop-opacity:1.0000000;" offset="0.76999998" id="stop2241"/>
    <stop style="stop-color:#044374;stop-opacity:0.96470588;" offset="0.89499998" id="stop2243"/>
    <stop style="stop-color:#043f74;stop-opacity:0.0000000;" offset="1.0000000" id="stop2245"/>
  </linearGradient>
  <linearGradient id="linearGradient2189">
    <stop style="stop-color:#0f75d2;stop-opacity:0.86458331;" offset="0.0000000" id="stop2191"/>
    <stop style="stop-color:#032b51;stop-opacity:1.0000000;" offset="1.0000000" id="stop2195"/>
  </linearGradient>
  <linearGradient id="linearGradient2312">
    <stop style="stop-color:#f7f7f7;stop-opacity:1.0000000;" offset="0.0000000" id="stop2314"/>
    <stop style="stop-color:#9ed4e2;stop-opacity:1.0000000;" offset="0.67000002" id="stop2320"/>
    <stop style="stop-color:#3aa5ca;stop-opacity:1.0000000;" offset="1.0000000" id="stop2316"/>
  </linearGradient>
  <linearGradient id="linearGradient2194">
    <stop style="stop-color:#1cd7fb;stop-opacity:1.0000000;" offset="0.0000000" id="stop2196"/>
    <stop style="stop-color:#043f74;stop-opacity:0.0000000;" offset="1.0000000" id="stop2198"/>
  </linearGradient>
  <linearGradient id="linearGradient4066">
    <stop id="stop4068" offset="0.0000000" style="stop-color:#f2fffd;stop-opacity:1.0000000;"/>
    <stop id="stop4070" offset="1.0000000" style="stop-color:#097e82;stop-opacity:1.0000000;"/>
  </linearGradient>
  <radialGradient xlink:href="#linearGradient2194" id="radialGradient2208" gradientUnits="userSpaceOnUse" gradientTransform="scale(1.006773,0.993272)" cx="353.42407" cy="175.28014" fx="342.10938" fy="180.93758" r="539.79822"/>
  <radialGradient xlink:href="#linearGradient4066" id="radialGradient2268" gradientUnits="userSpaceOnUse" gradientTransform="scale(1.024251,0.976323)" cx="73.184441" cy="46.918106" fx="73.184441" fy="46.918106" r="211.52753"/>
  <radialGradient xlink:href="#linearGradient4066" id="radialGradient2272" gradientUnits="userSpaceOnUse" gradientTransform="scale(1.024251,0.976323)" cx="73.184441" cy="46.918106" fx="73.184441" fy="46.918106" r="211.52753"/>
  <radialGradient xlink:href="#linearGradient4066" id="radialGradient2276" gradientUnits="userSpaceOnUse" gradientTransform="matrix(1.024149,0,0,0.976323,0.524657,-0.122721)" cx="73.184441" cy="46.918106" fx="73.184441" fy="46.918106" r="211.52753"/>
  <radialGradient xlink:href="#linearGradient4066" id="radialGradient2294" gradientTransform="scale(1.024251,0.976323)" cx="73.184441" cy="43.483139" fx="73.184441" fy="43.483139" r="216.25491" gradientUnits="userSpaceOnUse"/>
  <radialGradient xlink:href="#linearGradient4066" id="radialGradient2298" gradientUnits="userSpaceOnUse" gradientTransform="scale(1.024251,0.976323)" cx="73.184441" cy="43.483139" fx="73.184441" fy="43.483139" r="216.25491"/>
  <radialGradient xlink:href="#linearGradient4066" id="radialGradient2302" gradientUnits="userSpaceOnUse" gradientTransform="scale(1.024251,0.976323)" cx="73.184441" cy="43.483139" fx="73.184441" fy="43.483139" r="216.25491"/>
  <radialGradient xlink:href="#linearGradient4066" id="radialGradient2306" gradientUnits="userSpaceOnUse" gradientTransform="scale(1.024251,0.976323)" cx="73.184441" cy="43.483139" fx="73.184441" fy="43.483139" r="216.25491"/>
  <radialGradient xlink:href="#linearGradient4066" id="radialGradient2310" gradientUnits="userSpaceOnUse" gradientTransform="scale(1.013655,0.986529)" cx="82.707672" cy="62.766144" fx="82.707672" fy="62.766144" r="221.16626"/>
  <radialGradient r="217.14053" fy="53.78804" fx="69.95153" cy="53.78804" cx="69.95153" gradientTransform="matrix(1.036676,0,0,0.999833,-1.366161,0.764419)" gradientUnits="userSpaceOnUse" id="radialGradient2187" xlink:href="#linearGradient2189"/>
  <radialGradient r="217.14053" fy="53.78804" fx="69.95153" cy="53.78804" cx="69.95153" gradientTransform="matrix(1.036676,0,0,0.999833,-1.366161,0.764419)" gradientUnits="userSpaceOnUse" id="radialGradient2203" xlink:href="#linearGradient2189"/>
  <radialGradient r="217.14053" fy="53.78804" fx="69.95153" cy="53.78804" cx="69.95153" gradientTransform="matrix(1.036676,0,0,0.999833,-1.466166,-0.831896)" gradientUnits="userSpaceOnUse" id="radialGradient2207" xlink:href="#linearGradient2189"/>
  <radialGradient r="217.14053" fy="53.78804" fx="69.95153" cy="53.78804" cx="69.95153" gradientTransform="matrix(1.036676,0,0,0.999833,-1.466166,0.764432)" gradientUnits="userSpaceOnUse" id="radialGradient2211" xlink:href="#linearGradient2189"/>
  <radialGradient r="217.14053" fy="53.78804" fx="69.95153" cy="53.78804" cx="69.95153" gradientTransform="matrix(1.036676,0,0,0.999833,-1.366161,-0.831909)" gradientUnits="userSpaceOnUse" id="radialGradient2215" xlink:href="#linearGradient2189"/>
  <radialGradient r="217.14053" fy="53.78804" fx="69.95153" cy="53.78804" cx="69.95153" gradientTransform="matrix(1.036676,0,0,0.999833,-1.366161,-0.831909)" gradientUnits="userSpaceOnUse" id="radialGradient2219" xlink:href="#linearGradient2189"/>
  <radialGradient r="217.14053" fy="53.78804" fx="69.95153" cy="53.78804" cx="69.95153" gradientTransform="matrix(1.036676,0,0,0.999833,-1.366161,-0.831909)" gradientUnits="userSpaceOnUse" id="radialGradient2223" xlink:href="#linearGradient2189"/>
  <radialGradient r="217.14053" fy="53.78804" fx="69.95153" cy="53.78804" cx="69.95153" gradientTransform="matrix(1.036676,0,0,0.999833,-1.366161,0.764419)" gradientUnits="userSpaceOnUse" id="radialGradient2227" xlink:href="#linearGradient2189"/>
  <radialGradient r="539.79822" fy="180.93758" fx="342.10938" cy="175.28014" cx="353.42407" gradientTransform="scale(1.006773,0.993272)" gradientUnits="userSpaceOnUse" id="radialGradient2247" xlink:href="#linearGradient2233"/>
  <radialGradient gradientUnits="userSpaceOnUse" r="444.49182" fy="441.17734" fx="144.10077" cy="441.17734" cx="144.10077" gradientTransform="scale(1.006773,0.993272)" id="radialGradient2264" xlink:href="#linearGradient2258"/>
  <radialGradient xlink:href="#linearGradient2312" id="radialGradient1506" gradientUnits="userSpaceOnUse" gradientTransform="matrix(1.036676,0,0,1.008933,-1.366157,-1.614994)" cx="69.95153" cy="53.78804" fx="69.95153" fy="53.78804" r="217.14053"/>
  <radialGradient xlink:href="#linearGradient2236" id="radialGradient2273" gradientUnits="userSpaceOnUse" gradientTransform="scale(1.870829,0.534522)" cx="205.25664" cy="415.32397" fx="205.25664" fy="415.32397" r="41.15823"/>
  <radialGradient xlink:href="#linearGradient4066" id="radialGradient1506-8" gradientUnits="userSpaceOnUse" gradientTransform="matrix(1.036676,0,0,1.008933,-1.3661571,-1.614999)" cx="69.95153" cy="53.78804" fx="69.95153" fy="53.78804" r="217.14053"/>
</defs>
<g id="layer5" transform="translate(0,-128)"/>
<g id="layer2" transform="translate(0,-128)"/>
<g id="layer4" transform="translate(0,-128)"/>
<g id="layer3" transform="translate(0,-128)"/>
<g id="layer1" transform="translate(0,-128)">
  <g id="g4207" transform="matrix(0.512,0,0,0.512,-0.8960706,129.63823)">
    <g id="g4239">
      <ellipse style="opacity:1;fill:#214478;fill-opacity:1;stroke:#3d4587;stroke-width:2.12271786;stroke-opacity:1" id="path4225" cx="125.64268" cy="122.01602" rx="115.73679" ry="119.91772"/>
      <path id="path3298" d="m 118.37587,229.33303 c -0.57541,-0.0916 -1.07224,-0.36955 -1.10415,-0.61693 -0.0318,-0.24739 -0.0776,-0.62813 -0.10174,-0.84627 -0.0588,-0.53041 -2.72924,-2.86946 -4.48308,-3.92709 -0.87835,-0.52969 -1.58787,-1.3436 -1.88332,-2.15971 -0.26076,-0.72104 -0.61088,-1.31072 -0.7781,-1.31072 -0.16719,0 -0.30398,-0.24709 -0.30398,-0.54846 0,-0.30209 -0.36096,-0.80129 -0.80202,-1.11014 -0.44119,-0.30884 -0.68904,-0.74457 -0.55089,-0.96793 0.15426,-0.24933 0.0234,-0.31861 -0.33913,-0.17968 -0.43366,0.16601 -0.59037,-0.0195 -0.59037,-0.69647 0,-0.58006 -0.65343,-1.60504 -1.75496,-2.75424 -1.81202,-1.88982 -2.59214,-4.19838 -1.77085,-5.2401 0.20768,-0.26347 0.48925,-0.94595 0.62567,-1.51671 0.13643,-0.57116 0.75918,-1.41592 1.38383,-1.87764 1.34961,-0.99723 1.38876,-1.36471 0.33558,-3.14898 -0.44012,-0.74543 -0.69922,-1.61892 -0.57556,-1.94043 0.1235,-0.32216 -0.48111,-2.03547 -1.3437,-3.80798 -1.16858,-2.40086 -2.11288,-3.71969 -3.70409,-5.17156 -1.924618,-1.75653 -3.847413,-4.40311 -3.847413,-5.29528 0,-0.18762 0.256771,-0.34118 0.570621,-0.34118 0.387664,0 0.574484,-0.39613 0.582711,-1.23573 0.0066,-0.67982 0.263429,-1.56791 0.570599,-1.97362 0.993576,-1.31271 0.407612,-4.01555 -0.642945,-2.96584 -0.259783,0.25983 -0.694865,0.47227 -0.966879,0.47227 -0.701615,0 -0.615092,-1.11833 0.107988,-1.39543 1.102713,-0.42297 -0.267599,-0.87351 -2.694765,-0.88562 -1.255348,-0.007 -2.473981,-0.13744 -2.708078,-0.29098 -0.23409,-0.1536 -0.874866,-1.16954 -1.423944,-2.25755 -0.868867,-1.72191 -1.183705,-2.01324 -2.427433,-2.24676 -1.913969,-0.35959 -4.264891,-0.35491 -7.705903,0.0146 -2.670416,0.28703 -2.974801,0.24152 -4.755111,-0.71121 -1.47051,-0.78675 -2.635639,-1.06664 -5.13552,-1.23303 -3.69924,-0.24644 -4.010254,-0.44484 -7.335867,-4.68099 -1.067027,-1.35921 -2.720303,-3.19242 -3.673967,-4.07397 -1.137853,-1.05209 -1.587078,-1.70534 -1.306855,-1.90108 0.67951,-0.47412 0.161738,-2.5771 -0.939139,-3.81436 -0.555238,-0.6239 -1.225978,-1.45671 -1.490511,-1.85046 -0.264547,-0.39385 -0.827549,-1.22949 -1.251092,-1.85668 -0.573031,-0.84868 -0.699287,-1.43256 -0.493324,-2.28121 0.152207,-0.62718 0.287228,-1.99599 0.300048,-3.04142 0.01484,-1.21375 0.240709,-2.10712 0.624614,-2.4712 0.798884,-0.75771 1.587408,-2.66131 1.102379,-2.66131 -0.204733,0 -0.372256,-0.51331 -0.372256,-1.14063 0,-0.62722 0.148886,-1.14046 0.330873,-1.14046 0.181953,0 0.310343,0.29928 0.285293,0.66532 -0.102383,1.49538 0.654549,0.91902 0.796869,-0.60683 0.102578,-1.10008 0.01934,-1.56898 -0.24907,-1.40331 -0.50768,0.31361 -0.512342,0.39259 0.167363,-2.83688 0.464515,-2.20681 0.870914,-3.05968 2.187355,-4.58995 0.889258,-1.03365 1.916434,-1.97525 2.282573,-2.09223 0.366144,-0.11704 0.66573,-0.46394 0.66573,-0.77092 0,-1.0133 1.152973,-2.33946 2.219248,-2.55262 0.593465,-0.1186 1.27407,-0.62987 1.567229,-1.17737 0.401681,-0.75008 0.718533,-0.91736 1.409119,-0.74419 0.548217,0.13755 0.890933,0.055 0.890933,-0.21458 0,-0.24094 0.213979,-0.40356 0.475508,-0.36145 0.261537,0.0422 0.732301,-0.0308 1.046149,-0.16215 0.31382,-0.13137 1.017337,-0.40157 1.563347,-0.60056 0.762276,-0.27776 1.047151,-0.70172 1.227051,-1.82594 0.323607,-2.0225 2.606289,-4.34525 4.856279,-4.9415 2.137918,-0.56653 3.725448,-2.53448 3.466559,-4.29728 -0.11627,-0.79167 -0.381086,-1.14224 -0.862916,-1.14224 -0.38235,0 -0.800992,-0.1711 -0.930301,-0.38021 -0.129316,-0.20908 -0.567367,-0.38017 -0.973476,-0.38017 -0.875559,0 -0.911614,-0.30934 -0.152813,-1.31225 0.356924,-0.47162 0.481484,-1.1676 0.342031,-1.91058 -0.174121,-0.92758 0.02039,-1.47025 0.942879,-2.63034 1.206733,-1.51765 1.927854,-3.47866 1.931506,-5.252666 0.0018,-0.884477 0.22352,-1.090424 1.561477,-1.450489 1.293697,-0.348152 1.671453,-0.318259 2.217324,0.17545 0.361853,0.327297 0.909797,0.595084 1.217625,0.595084 0.307806,0 0.727828,0.168046 0.933357,0.373476 0.205504,0.205397 1.224086,0.633008 2.263444,0.950235 1.812289,0.553117 1.91655,0.544503 2.543312,-0.210514 0.359457,-0.432996 0.763682,-1.373852 0.898262,-2.090797 0.286295,-1.525277 -0.09396,-3.96484 -0.618047,-3.96484 -0.199746,0 -0.363168,-0.238332 -0.363168,-0.529588 0,-0.291306 -0.256783,-0.628093 -0.570623,-0.748453 -0.33357,-0.12793 -0.570621,-0.697607 -0.570621,-1.371348 0,-1.087023 0.08465,-1.15249 1.489943,-1.15249 0.821862,0 1.587858,0.213094 1.708346,0.47525 0.120098,0.261367 0.114629,0.06441 -0.0123,-0.437707 -0.181719,-0.719447 -0.105547,-0.864972 0.359315,-0.686689 0.324492,0.124453 0.661599,0.02201 0.749172,-0.227639 0.110097,-0.313867 0.398466,-0.241832 0.934894,0.233549 0.736199,0.652459 0.850359,0.654674 2.242938,0.04338 l 1.46723,-0.644029 -1.33142,-0.331598 c -0.732285,-0.182305 -2.615314,-0.397551 -4.184516,-0.478266 -1.569189,-0.08068 -3.152625,-0.164843 -3.518791,-0.187031 -1.033998,-0.0626 -0.784054,-0.679258 0.380416,-0.938633 0.575366,-0.128144 1.387655,-0.498449 1.805081,-0.822894 0.618009,-0.480364 0.660712,-0.650594 0.22988,-0.916727 -0.701203,-0.433123 -0.247267,-1.544096 0.630967,-1.544096 0.505651,0 0.688625,-0.282265 0.677635,-1.045511 -0.01309,-0.916565 0.114062,-1.032014 1.031139,-0.936075 0.925759,0.09684 1.04106,-0.0125 1.001996,-0.950476 -0.02676,-0.642924 -0.112578,-0.798162 -0.218098,-0.394574 -0.09568,0.365916 -0.436484,0.665326 -0.757394,0.665326 -0.359756,0 -0.500299,-0.2165 -0.366579,-0.564711 0.181387,-0.47235 0.09469,-0.488483 -0.529906,-0.09865 -0.410726,0.256357 -0.746746,0.826128 -0.746746,1.266171 0,0.440051 -0.299584,1.062297 -0.665725,1.382791 -0.769728,0.673743 -3.936048,1.216116 -5.045396,0.864241 -1.132121,-0.359121 -0.997152,-1.995858 0.209895,-2.545518 0.574138,-0.261449 0.884375,-0.651615 0.765113,-0.96225 -0.298637,-0.777762 0.936004,-2.463387 1.613924,-2.203412 0.313123,0.120098 0.880947,-0.0635 1.261826,-0.407961 0.401537,-0.363154 1.075678,-0.553105 1.604498,-0.452078 0.608611,0.116289 1.057094,-0.05787 1.347996,-0.523402 0.271465,-0.434444 0.291227,-0.697659 0.05232,-0.697659 -0.675662,0 -0.40965,-0.758662 0.282076,-0.804472 0.634008,-0.04199 0.634008,-0.0524 0,-0.217981 -0.893023,-0.233226 -0.83881,-0.65265 0.233819,-1.809375 0.922718,-0.995064 2.143742,-1.304517 2.143742,-0.543308 0,0.300541 0.163808,0.290863 0.553957,-0.03273 0.304674,-0.252711 0.743408,-0.342461 0.974976,-0.199408 0.231584,0.143047 0.756665,-0.0435 1.166879,-0.414498 0.59372,-0.537025 0.84096,-0.578195 1.21239,-0.20193 0.36958,0.37442 0.20836,0.704424 -0.77582,1.587801 -1.070486,0.960891 -1.136261,1.115141 -0.475529,1.115141 1.008309,0 1.008719,1.184144 7.35e-4,2.095814 -0.882852,0.798508 -0.782528,2.091281 0.421134,5.427172 0.82971,2.299318 0.95524,4.877791 0.24979,5.12957 -0.26143,0.09336 -0.36298,0.291303 -0.22551,0.439899 0.42559,0.460006 2.42673,-0.813559 3.51124,-2.234684 0.93484,-1.224927 1.20852,-1.353068 2.88967,-1.353068 2.05212,0 2.12,-0.08199 2.4836,-3.000283 0.28209,-2.263992 0.60026,-2.719651 2.30874,-3.306641 1.13754,-0.390863 1.53144,-0.400918 1.75789,-0.04486 0.17019,0.267685 0.29423,-0.05594 0.29763,-0.776735 0.006,-1.363306 -0.53853,-1.576886 -1.72839,-0.677418 -0.40615,0.306995 -1.25359,0.563627 -1.88335,0.570272 -1.69626,0.01797 -2.21429,-1.061629 -1.88601,-3.930879 0.35245,-3.080043 0.9515,-4.140043 2.81449,-4.979627 0.85126,-0.383674 1.54788,-0.831603 1.54788,-0.9954 0,-0.163828 0.60287,-0.515743 1.33984,-0.782045 0.90248,-0.326188 1.78144,-1.12503 2.69289,-2.447645 0.74413,-1.07989 1.76718,-2.18498 2.27346,-2.455765 0.50627,-0.270764 0.84976,-0.562926 0.76335,-0.649256 -0.0864,-0.08633 -0.5287,0.04184 -0.98299,0.284838 -0.45433,0.24297 -0.91689,0.350953 -1.02795,0.239933 -0.30474,-0.304494 2.16937,-2.47847 3.76011,-3.304006 0.77039,-0.399816 1.50799,-0.900468 1.63916,-1.112556 0.13115,-0.21208 0.74189,-0.385623 1.35722,-0.385623 0.61532,0 1.11877,-0.136719 1.11877,-0.303813 0,-0.44957 2.26984,-1.134849 3.85787,-1.16466 0.96987,-0.01816 1.68852,0.254986 2.39717,0.911313 0.55655,0.515542 1.2599,0.937345 1.56296,0.937345 0.30307,0 0.55103,0.171094 0.55103,0.380188 0,0.209105 0.33897,0.380183 0.7533,0.380183 1.34607,0 5.62797,1.981004 6.07164,2.80903 0.24524,0.457574 0.84346,0.826972 1.3914,0.859078 0.88729,0.05197 0.91552,0.0059 0.36675,-0.600227 -0.32696,-0.36108 -0.5945,-0.942447 -0.5945,-1.29191 0,-0.349473 -0.17116,-0.635404 -0.38041,-0.635404 -0.20924,0 -0.3804,-0.275336 -0.3804,-0.611877 0,-0.4725 0.28158,-0.572287 1.23634,-0.438133 0.68,0.09559 1.53297,0.302559 1.89556,0.459986 0.48897,0.212293 1.01943,-0.114765 2.05359,-1.266082 0.9011,-1.00315 1.84536,-1.636867 2.6693,-1.791343 2.43737,-0.456989 1.00689,-2.060307 -1.5784,-1.769079 -1.02321,0.115254 -2.00403,-0.03777 -2.766,-0.43157 -0.99949,-0.516566 -1.21584,-0.887486 -1.41039,-2.41851 -0.12641,-0.994588 -0.32517,-2.236062 -0.44174,-2.758832 -0.46586,-2.089097 -0.25752,-3.152933 0.76295,-3.895857 0.55136,-0.401402 1.00249,-0.984713 1.00249,-1.29626 0,-0.336568 0.27018,-0.512578 0.66568,-0.433734 0.51789,0.103222 0.63249,0.426035 0.51605,1.453574 -0.0824,0.726475 -0.16432,2.579305 -0.18209,4.117379 -0.0286,2.466394 0.0691,2.87867 0.82727,3.492244 1.13242,0.916418 4.44368,1.537602 6.35188,1.191576 l 1.52163,-0.275918 -1.04614,-0.914416 c -0.57534,-0.50291 -1.04609,-1.255014 -1.04609,-1.671324 0,-0.416313 -0.23778,-1.027027 -0.52828,-1.357141 -0.29056,-0.330119 -0.65168,-1.179482 -0.80245,-1.887468 -0.26297,-1.235118 -0.2349,-1.277422 0.69319,-1.044629 0.84339,0.211539 0.98265,0.109238 1.08769,-0.798946 l 0.12045,-1.041568 0.85589,0.922271 c 0.69257,0.746252 0.85594,0.79976 0.85594,0.280305 0,-0.353076 -0.19116,-0.641961 -0.42477,-0.641961 -0.24793,0 -0.34908,-0.395652 -0.24293,-0.950465 0.1,-0.522761 0.0494,-0.950474 -0.11242,-0.950474 -0.16178,0 -0.40404,-0.727112 -0.53823,-1.615793 -0.48641,-3.220895 -0.633,-3.631031 -1.36625,-3.82267 -1.04226,-0.272389 -0.94908,-1.402084 0.11684,-1.416453 0.83232,-0.01133 0.83492,-0.0235 0.0951,-0.44277 -0.41845,-0.237131 -0.88658,-0.616875 -1.04026,-0.843849 -0.19365,-0.285873 -0.2813,-0.288088 -0.28535,-0.0072 -0.003,0.223014 -1.10142,0.623125 -2.44047,0.889135 -2.56193,0.508951 -3.38207,0.332168 -4.444,-0.957803 -0.49693,-0.603609 -0.43719,-0.634918 0.75927,-0.397992 0.90486,0.179199 1.57897,0.07359 2.2232,-0.348291 0.5552,-0.363567 1.29023,-0.513734 1.8398,-0.375889 0.5436,0.136367 0.91516,0.06281 0.91516,-0.181172 0,-0.269343 0.57058,-0.325205 1.65769,-0.162285 1.32051,0.197906 1.70495,0.125313 1.89012,-0.356888 0.28712,-0.747887 1.42224,-0.762667 3.77506,-0.04912 1.75453,0.532067 1.80696,0.524899 1.80696,-0.247359 0,-0.437406 0.29955,-1.022588 0.66568,-1.300359 0.60633,-0.460004 0.57438,-0.506155 -0.35792,-0.517164 -1.21366,-0.01426 -1.48808,-0.350871 -1.1961,-1.466871 0.17617,-0.673214 0.50761,-0.83191 1.78862,-0.856353 0.86478,-0.0165 1.35839,-0.116318 1.09684,-0.221787 -0.26154,-0.105455 -0.47551,-0.430186 -0.47551,-0.721583 0,-1.373866 -3.90582,-2.461858 -5.23038,-1.456963 -1.34673,1.021694 -3.89943,0.378655 -3.89943,-0.98227 0,-0.398521 -0.17119,-0.830319 -0.38043,-0.959539 -0.68401,-0.422496 -0.40008,-1.330668 0.41604,-1.330668 0.47652,0 0.87634,0.305453 0.99539,0.760378 0.10943,0.418218 0.37953,0.760374 0.60015,0.760374 0.22065,0 0.71068,0.279917 1.08894,0.622041 0.63672,0.575924 0.70545,0.575924 0.92656,0 0.13137,-0.342124 0.47729,-0.622041 0.76876,-0.622041 0.62944,0 0.7024,-0.608937 0.11637,-0.970926 -0.22737,-0.140419 -0.33068,-0.571768 -0.22949,-0.958514 0.13083,-0.500064 -0.18916,-0.923134 -1.10811,-1.465009 -1.29993,-0.76656 -1.69955,-1.532734 -0.81653,-1.565621 0.77205,-0.02874 -2.82908,-1.765716 -4.27962,-2.064224 -0.73231,-0.150686 -3.21447,-1.182056 -5.51596,-2.291879 -2.30147,-1.109866 -4.56963,-2.131092 -5.04042,-2.269375 -0.96144,-0.282437 -1.16287,-0.960562 -0.2853,-0.960562 0.31385,0 0.57063,-0.171084 0.57063,-0.3801965 0,-0.209085 0.2568,-0.3801793 0.57063,-0.3801793 0.3138,0 0.57062,0.1710944 0.57062,0.3801793 0,0.2091133 0.47073,0.3812424 1.0461,0.3825537 0.57539,0.00125 1.55967,0.2725788 2.18734,0.6028948 1.53366,0.807031 5.13556,1.191266 5.13556,0.547831 0,-0.295814 0.25031,-0.377568 0.6657,-0.217386 0.36614,0.141137 2.63431,0.675459 5.04042,1.187339 2.40612,0.511862 4.71709,1.091342 5.13552,1.2877 1.87097,0.878037 3.76582,1.531699 4.44006,1.531699 0.40329,0 1.23829,0.26102 1.85559,0.580034 1.00603,0.519942 1.12232,0.519942 1.12232,0 0,-0.319014 0.17119,-0.580034 0.3804,-0.580034 0.20921,0 0.38043,0.25664 0.38043,0.57028 0,0.313656 0.30199,0.570265 0.6711,0.570265 0.36907,0 1.61015,0.35871 2.75792,0.797122 1.14779,0.438393 2.69481,0.922479 3.43777,1.075686 1.52618,0.314733 5.3063,2.266919 5.3063,2.740373 0,0.437475 -4.33682,-0.52643 -7.7984,-1.73329 -0.41844,-0.1459 -0.12057,0.130192 0.66199,0.613523 0.78251,0.483315 1.42449,1.092606 1.42652,1.353991 0.002,0.261381 0.17873,0.475237 0.39264,0.475237 0.2139,0 1.11264,0.664144 1.99715,1.475893 0.8845,0.811724 3.40566,2.543679 5.60251,3.848759 2.19692,1.305081 4.53135,2.879895 5.18779,3.499602 0.75364,0.711479 1.2876,0.974422 1.44898,0.713475 0.36982,-0.598018 -0.10018,-1.176436 -0.75256,-0.926227 -0.52593,0.201705 -0.61759,0.05945 -0.71063,-1.102799 -0.0209,-0.261387 -0.29454,-0.675105 -0.60802,-0.919381 -1.1398,-0.888112 -0.0235,-0.911807 2.52633,-0.05363 2.65992,0.895246 3.44677,1.428189 2.7468,1.860548 -0.23222,0.143418 -0.13241,0.341883 0.24463,0.486479 0.35024,0.134336 0.80006,0.143437 0.99958,0.02018 0.19948,-0.123223 0.60017,-0.02713 0.89035,0.213537 0.29013,0.240703 1.05449,0.452574 1.6985,0.470881 0.84953,0.02414 1.1439,0.200021 1.07248,0.640652 -0.0644,0.397791 0.18718,0.61142 0.72919,0.619084 0.98348,0.01387 4.68832,3.026934 4.68832,3.81282 0,0.774598 -0.52362,0.679366 -1.36336,-0.247957 -0.39621,-0.437576 -1.06465,-0.959822 -1.48545,-1.160564 -0.9029,-0.430717 1.31495,1.618394 4.64114,4.288082 1.36306,1.094053 2.85073,2.731338 3.5157,3.869324 1.18818,2.033232 5.772,6.946981 8.047,8.626063 l 1.28778,0.95047 -1.42504,-1.951886 c -1.48715,-2.03687 -1.65748,-2.42029 -1.0751,-2.42029 0.50268,0 7.04246,8.706463 6.75533,8.993424 -0.13183,0.1317 -0.50049,0.02305 -0.81939,-0.241467 -0.81463,-0.675699 -0.7211,-0.286833 0.18105,0.752747 0.75104,0.865509 0.9794,1.520753 0.52991,1.520753 -0.12696,0 -1.11411,-0.940964 -2.19366,-2.091031 -1.07955,-1.150066 -2.11765,-2.091029 -2.30691,-2.091029 -0.18926,0 -0.68063,-0.299408 -1.09188,-0.665332 -0.73853,-0.657203 -0.73994,-0.650244 -0.11523,0.570281 0.41031,0.801676 0.48109,1.235608 0.20154,1.235608 -0.23699,0 -0.32896,0.265515 -0.20435,0.590023 0.14668,0.381797 0.073,0.495242 -0.20823,0.321451 -0.87347,-0.53949 0.10469,0.587145 1.16469,1.341451 l 1.07863,0.767588 -0.13164,-1.130062 c -0.2114,-1.814432 0.51215,-1.31202 1.7945,1.246109 1.53021,3.052483 1.893,3.513223 2.27701,2.892201 0.20101,-0.325072 0.85787,0.153965 2.1258,1.550383 2.06209,2.27094 3.05723,3.746766 4.7591,7.058076 0.64482,1.254617 1.53459,2.649961 1.97725,3.100737 1.33937,1.364076 1.77703,1.98975 2.34939,3.358789 0.72344,1.730404 0.71131,2.619029 -0.0318,2.334017 -0.45018,-0.172636 -0.50151,-0.0757 -0.23022,0.434557 0.5032,0.946551 1.95082,7.995803 1.95082,9.499787 0,0.700523 0.3708,2.076936 0.82397,3.058707 0.92519,2.004408 1.42117,5.777004 0.75947,5.777004 -0.22705,0 -0.60082,-0.727106 -0.83057,-1.615793 -0.68381,-2.645066 -0.81369,-3.012389 -0.99947,-2.826707 -0.0975,0.09736 0.0748,1.509891 0.38244,3.138943 0.51234,2.71168 0.70098,3.092551 2.23332,4.508882 2.14647,1.98393 2.79971,4.30424 3.13795,11.14674 0.21871,4.42421 0.17656,5.03745 -0.34656,5.03745 -0.32762,0 -0.59565,-0.25657 -0.59565,-0.57023 0,-0.31368 -0.25674,-0.57029 -0.5706,-0.57029 -0.31379,0 -0.57059,-0.25667 -0.57059,-0.57029 0,-0.85 -0.67187,-0.68886 -0.96408,0.23122 -0.31299,0.98553 0.14062,4.90133 0.56787,4.90133 0.17031,0 0.41953,0.73134 0.55367,1.62521 0.17168,1.14349 0.48442,1.73506 1.05557,1.99598 1.68793,0.77106 2.56105,7.77713 1.67967,13.47832 -0.30631,1.98164 -0.74012,3.664 -0.96399,3.73854 -0.2239,0.0746 -0.40709,0.37795 -0.40709,0.67417 0,0.2963 -0.17109,0.53866 -0.38043,0.53866 -0.20918,0 -0.38035,-0.25854 -0.38035,-0.57443 0,-0.71944 -1.5698,-4.13359 -1.97924,-4.30463 -0.49902,-0.20867 -0.34427,-0.90008 0.30809,-1.37676 0.54266,-0.39658 0.4999,-0.51981 -0.38039,-1.09626 -1.26119,-0.82585 -1.28178,-2.12806 -0.052,-3.28276 0.78671,-0.73858 1.03621,-0.80254 1.53087,-0.39225 0.32498,0.26962 0.69844,0.38271 0.82989,0.25134 0.3864,-0.3862 -1.05891,-5.19212 -1.56147,-5.19212 -0.2622,0 -0.74019,-1.26267 -1.11541,-2.94645 -1.13435,-5.09027 -1.45429,-6.30531 -2.27758,-8.6493 l -0.80127,-2.28111 -0.3915,2.0601 c -0.37213,1.95811 -1.16799,2.95984 -1.48447,1.86839 -0.0809,-0.27872 -0.34453,-1.23394 -0.5861,-2.12259 -0.24148,-0.88868 -0.58189,-1.6158 -0.75644,-1.6158 -0.17442,0 -0.97139,-0.59878 -1.77088,-1.33066 -0.79949,-0.73186 -1.54852,-1.32811 -1.66457,-1.32504 -0.39869,0.0107 -2.68359,5.4038 -2.68359,6.33425 0,0.51199 -0.23776,1.73296 -0.52827,2.71319 -0.63173,2.13141 -1.44314,6.75018 -1.40437,7.99418 0.0156,0.48917 -0.38336,1.74765 -0.88568,2.79666 -0.84491,1.7645 -0.87266,2.00457 -0.37036,3.20604 0.29866,0.71427 0.56004,2.10765 0.58088,3.09629 0.0453,2.14978 0.58657,4.15398 1.22883,4.55101 0.95174,0.58815 2.13977,2.72338 2.13977,3.84551 0,1.44597 -0.67883,2.98303 -1.44766,3.27788 -0.7749,0.29705 -1.15129,-0.3725 -1.45141,-2.58216 -0.27394,-2.0162 -0.7581,-1.94515 -1.45632,0.21364 -0.3052,0.94366 -0.61731,1.23602 -1.31969,1.23602 -0.73041,0 -1.14242,-0.43077 -2.00059,-2.09107 -0.59435,-1.15003 -1.25238,-2.14871 -1.4622,-2.21927 -0.20981,-0.0706 -0.80202,-1.01149 -1.31608,-2.09111 -0.514,-1.07947 -1.34672,-2.40293 -1.85049,-2.94094 -0.50375,-0.53815 -1.03422,-1.35075 -1.17875,-1.806 -0.14453,-0.45512 -0.44082,-0.82756 -0.6583,-0.82756 -0.2175,0 -0.30476,-0.23635 -0.19394,-0.52517 0.11093,-0.28879 -0.21313,-1.1351 -0.72008,-1.88073 -0.50697,-0.74557 -0.92178,-1.52629 -0.92178,-1.7349 0,-0.21561 -0.61845,-0.30469 -1.43377,-0.20642 -0.966,0.11631 -1.92307,-0.0766 -2.93349,-0.59146 -0.82488,-0.4203 -1.72029,-0.7641 -1.98991,-0.7641 -0.26961,0 -0.49016,-0.24306 -0.49016,-0.54013 0,-0.29703 -0.52515,-0.65533 -1.16697,-0.79619 -0.64179,-0.14092 -1.26108,-0.50141 -1.37615,-0.80118 -0.1151,-0.29973 -0.55204,-0.72831 -0.971,-0.95241 -0.59707,-0.31936 -0.97779,-0.25095 -1.76216,0.31675 -0.55025,0.39829 -1.59966,0.96494 -2.33192,1.25933 -0.73227,0.29436 -1.66605,0.84348 -2.075,1.22032 -0.40899,0.37684 -0.92258,0.62176 -1.14125,0.54429 -0.21871,-0.0774 -1.16801,0.0892 -2.10948,0.37038 -2.12986,0.63593 -4.26831,0.66372 -4.86923,0.0632 -0.66737,-0.66698 -0.60276,0.59137 0.10002,1.94978 0.64181,1.2403 1.42859,1.6369 2.64288,1.33241 0.52726,-0.13224 1.40637,0.10938 2.28705,0.62868 1.33576,0.78761 1.41468,0.93418 1.19091,2.2112 -0.13178,0.75217 -0.33661,2.00908 -0.45516,2.79332 -0.13051,0.86316 -0.42494,1.42571 -0.74621,1.42571 -0.35986,0 -0.53071,0.46012 -0.53071,1.42922 0,1.01754 -0.21913,1.56617 -0.76076,1.90415 -0.41847,0.26126 -0.76083,0.83171 -0.76083,1.26761 0,0.47967 -0.30824,0.87338 -0.78027,0.99664 -0.47085,0.12318 -0.8643,0.62431 -0.99239,1.26421 -0.13225,0.66094 -0.51902,1.13878 -1.02669,1.2684 -1.26714,0.32371 -3.60314,2.43448 -3.73711,3.37703 -0.0749,0.52653 -0.84271,1.32148 -2.02276,2.0943 -1.04616,0.68513 -2.30573,1.61904 -2.79908,2.07556 -1.13911,1.05363 -4.66449,3.33223 -5.15585,3.33223 -0.20487,0 -0.83556,0.44339 -1.40154,0.9852 -0.62876,0.60219 -1.51348,1.00891 -2.27443,1.04556 -1.11701,0.054 -1.33413,-0.11623 -2.1063,-1.65068 -1.07745,-2.14114 -1.35239,-2.94422 -1.48509,-4.33769 -0.0732,-0.76898 -0.68958,-1.63815 -2.02186,-2.85138 -1.05414,-0.95988 -2.01541,-2.10025 -2.1362,-2.53394 -0.12078,-0.43391 -0.77397,-1.03272 -1.45149,-1.33065 -0.95692,-0.42096 -1.34823,-0.92383 -1.75319,-2.25288 -0.87473,-2.87047 -1.64803,-4.18692 -2.60002,-4.4256 -0.49474,-0.12412 -1.15473,-0.7189 -1.46663,-1.32166 -0.31192,-0.6028 -0.71533,-1.09602 -0.89651,-1.09602 -0.18115,0 -0.43559,-0.38503 -0.56543,-0.85543 -0.40284,-1.45993 -2.64449,-3.777 -3.38078,-3.49466 -0.35759,0.13721 -0.65017,0.50957 -0.65017,0.82776 0,0.73063 1.97361,4.19502 3.03813,5.33307 0.44262,0.47326 0.70989,1.01386 0.59392,1.20132 -0.28079,0.45421 0.15777,1.55011 0.62036,1.55011 1.07021,0 2.44043,2.32232 2.8054,4.7548 0.20263,1.35022 0.49391,1.85661 1.36312,2.36984 0.608,0.35901 1.4752,1.42628 1.92707,2.37174 0.45189,0.94553 1.00458,1.84493 1.22827,1.99853 0.27467,0.18859 0.25619,0.28108 -0.057,0.28507 -0.25494,0.003 -0.36499,0.2624 -0.24459,0.57604 0.28822,0.75069 0.8984,0.73278 0.8984,-0.0264 0,-0.40133 0.28024,-0.55689 0.8559,-0.47506 0.56179,0.0796 0.85594,0.38269 0.85594,0.8818 0,0.47104 0.61289,1.17016 1.61039,1.83737 2.40835,1.61098 3.74747,2.98442 4.0363,4.13956 0.42092,1.68377 1.50936,2.00235 3.59836,1.05373 0.98273,-0.44637 2.04358,-0.97137 2.35739,-1.16704 0.31385,-0.19577 0.8274,-0.45839 1.14125,-0.58348 2.47098,-0.9863 4.806,-2.21196 5.05933,-2.6559 0.16726,-0.29322 0.63807,-0.53313 1.0461,-0.53313 0.55897,0 0.74193,0.26251 0.74193,1.06452 0,0.5853 0.21396,1.28041 0.4755,1.54425 0.38085,0.38451 0.34613,0.55285 -0.1744,0.84656 -0.35742,0.20165 -0.55949,0.60213 -0.44894,0.89 0.11051,0.28786 -0.17283,1.25541 -0.62973,2.15056 -0.45685,0.89488 -1.24304,2.72212 -1.74712,4.06083 -1.43363,3.80633 -3.27474,6.32343 -8.25995,11.29158 -6.89604,6.87255 -10.52475,11.22781 -9.35446,11.22781 0.59423,0 0.4012,1.45589 -0.21065,1.58816 -0.49595,0.10702 -0.49993,0.2539 -0.0312,1.15171 0.61073,1.16922 0.58483,1.87451 -0.0991,2.69801 -0.63827,0.76886 -0.18453,2.42559 0.72971,2.66413 0.65288,0.17082 0.72132,0.53442 0.66875,3.55294 l -0.0586,3.36241 -1.56657,1.52107 c -0.88698,0.8609 -2.41946,1.82248 -3.53281,2.2167 -1.08141,0.38254 -2.17831,0.95105 -2.43751,1.26338 -0.2592,0.31211 -1.13298,0.90435 -1.94177,1.31701 -1.62291,0.82725 -2.1142,1.60617 -1.48838,2.35979 0.48322,0.5825 0.15275,3.13234 -0.46937,3.62207 -0.2347,0.18457 -1.30215,0.62123 -2.37216,0.96943 -1.63244,0.53197 -2.05037,0.86662 -2.59796,2.08039 -0.65378,1.44941 -0.78266,1.5416 -6.03993,4.32121 -3.22076,1.7032 -5.34098,2.11393 -11.86082,2.29994 -3.34757,0.0951 -6.5573,0.0978 -7.13262,0.006 z m 29.83703,-25.93512 c -0.31652,-0.79863 -0.75342,1.37465 -0.49003,2.43748 0.14558,0.58717 0.24994,0.4653 0.45889,-0.53703 0.14881,-0.71322 0.16281,-1.56824 0.0311,-1.90045 z m -8.05867,-5.31233 c 0,-0.1845 -0.35211,-0.42769 -0.78254,-0.54011 -0.6421,-0.16815 -0.70206,-0.10768 -0.33385,0.33572 0.50226,0.60464 1.11639,0.7171 1.11639,0.20439 z m 5.48488,-8.7885 c 0.78089,0 1.8589,-1.43085 1.5953,-2.11728 -0.17932,-0.4671 -0.50314,-0.5596 -1.28246,-0.36617 -0.57341,0.14201 -1.09965,0.41711 -1.16938,0.61054 -0.0698,0.19351 -0.34988,0.35195 -0.62255,0.35195 -0.27268,0 -0.56994,0.50547 -0.66068,1.12326 -0.13385,0.91137 -0.0164,1.14441 0.62255,1.2358 0.43313,0.0617 0.84285,-0.10164 0.91045,-0.36308 0.0676,-0.26109 0.34068,-0.47502 0.60677,-0.47502 z m 92.25655,-50.70378 c -0.36176,-0.333 -0.41246,-0.27252 -0.2224,0.26503 0.13535,0.383 0.26949,0.98175 0.29795,1.33067 0.0285,0.34882 0.12851,0.2295 0.22242,-0.26504 0.0937,-0.4946 -0.0402,-1.09339 -0.29797,-1.33066 z m -0.35664,-1.19181 c 0,-0.7302 -0.2376,-0.7302 -0.51797,0 -0.12051,0.31363 -0.0531,0.57035 0.14942,0.57035 0.20267,0 0.36849,-0.25672 0.36849,-0.57035 z m -59.33806,-2.80002 c 0.005,-0.53703 0.0547,-0.54448 0.36455,-0.0546 0.47671,0.75354 0.83806,0.34709 2.27862,-2.56303 0.64697,-1.30691 1.34268,-2.37615 1.54611,-2.37615 0.20338,0 0.36439,-0.21391 0.35779,-0.47527 -0.007,-0.26138 -0.44553,0.0176 -0.97533,0.61966 -1.21193,1.37761 -3.63404,1.75991 -5.39246,0.85112 -0.64906,-0.33548 -1.44355,-0.50894 -1.76545,-0.38556 -0.56823,0.21796 -3.26702,-2.2143 -3.26702,-2.94425 0,-0.17993 -0.18125,-0.32702 -0.40284,-0.32702 -0.2216,0 -0.29709,-0.17112 -0.16774,-0.38017 0.12928,-0.20915 0.0538,-0.3802 -0.16777,-0.3802 -0.2216,0 -0.40549,0.38491 -0.40871,0.85539 -0.005,0.6917 -0.0764,0.74631 -0.37459,0.28516 -0.31895,-0.49323 -0.36953,-0.4847 -0.37456,0.0634 -0.003,0.3485 -0.21979,0.72685 -0.48139,0.84083 -0.32619,0.14211 -0.2068,0.40529 0.38045,0.83845 0.47077,0.34709 0.85596,0.8615 0.85596,1.14314 0,0.28706 0.23826,0.42063 0.54224,0.30402 0.32592,-0.12502 0.81717,0.22115 1.23113,0.86737 0.37883,0.59143 0.94794,1.30187 1.26463,1.57872 0.31673,0.27691 0.39041,0.41278 0.16373,0.30192 -0.22664,-0.11086 -0.41208,0.0189 -0.41208,0.28863 0,0.26959 0.24274,0.49018 0.53942,0.49018 0.36161,0 0.48292,-0.29559 0.36798,-0.89665 -0.14656,-0.76599 -0.0543,-0.86054 0.63348,-0.64974 1.03193,0.31632 0.96283,0.23477 1.35479,1.60056 0.23358,0.81407 0.20098,1.22694 -0.10686,1.35334 -0.31291,0.12864 -0.2846,0.29242 0.0965,0.55806 0.68166,0.47518 2.31105,-0.51353 2.31941,-1.40733 z m -58.20841,-5.75763 c 0.16615,-1.49135 0.35864,-1.79147 1.52164,-2.37211 1.72396,-0.86071 3.24439,-0.84517 4.13243,0.0423 0.38976,0.38959 1.37405,0.83261 2.18734,0.98457 0.81321,0.1519 1.64978,0.41163 1.85902,0.5773 0.20924,0.16557 0.97954,0.39743 1.71183,0.51513 0.73233,0.1177 2.18734,0.37472 3.2335,0.57115 1.6247,0.30496 2.05065,0.25163 2.92123,-0.36585 1.06021,-0.75201 2.96313,-0.93637 5.2787,-0.51149 1.75085,0.32126 1.98407,0.007 2.98781,-4.02816 0.98853,-3.97376 0.74522,-6.16548 -0.7076,-6.3742 -0.52063,-0.0748 -1.0371,0.11334 -1.2231,0.44553 -0.48881,0.87292 -2.52391,1.1976 -3.29114,0.52508 -1.00931,-0.88475 -2.35199,-1.18574 -2.35199,-0.52728 0,1.0944 -1.99817,1.35523 -2.96668,0.3873 -0.58619,-0.58589 -0.64436,-0.56807 -0.83921,0.25692 -0.21267,0.90035 -1.13943,1.53838 -1.13943,0.78447 0,-0.22663 -0.35564,-0.7673 -0.79027,-1.20168 -0.4346,-0.43437 -0.69244,-1.0444 -0.57302,-1.35552 0.16304,-0.42458 0.028,-0.50571 -0.54119,-0.32516 -0.54542,0.17301 -0.75842,0.0669 -0.75842,-0.37775 0,-0.3401 0.17119,-0.51264 0.38043,-0.38341 0.20922,0.12926 0.38038,0.0538 0.38038,-0.16764 0,-0.22145 -0.26463,-0.40261 -0.58809,-0.40261 -0.45622,0 -0.56836,-0.38218 -0.49994,-1.70356 0.0486,-0.93692 -0.0292,-1.82089 -0.17268,-1.96431 -0.14346,-0.14341 -0.2609,-0.0612 -0.2609,0.18278 0,0.24395 -0.2568,0.44355 -0.5706,0.44355 -0.31382,0 -0.57062,-0.2566 -0.57062,-0.57025 0,-0.31366 0.17113,-0.5703 0.38039,-0.5703 0.20923,0 0.38043,-0.28282 0.38043,-0.62843 0,-0.50476 -0.14768,-0.4583 -0.75012,0.23584 -0.41256,0.47545 -1.2837,0.9735 -1.93589,1.10682 l -1.18576,0.24236 0.98652,1.06385 c 0.55778,0.60145 1.17671,0.9464 1.42407,0.79362 0.2406,-0.14862 0.33769,-0.10883 0.21566,0.0885 -0.12193,0.19726 0.46815,1.10538 1.31134,2.018 1.31331,1.42147 1.44456,1.70884 0.91579,2.00454 -0.33947,0.18991 -0.51793,0.50582 -0.39655,0.70206 0.12135,0.19627 0.0577,0.35683 -0.1415,0.35683 -0.19919,0 -0.45962,-0.25371 -0.57868,-0.56383 -0.12317,-0.32087 -0.46862,-0.46717 -0.80148,-0.33954 -0.41403,0.15875 -0.58506,-0.0133 -0.58506,-0.58861 0,-0.9754 -1.08079,-1.49661 -1.55419,-0.74951 -0.18489,0.29185 -0.33885,1.00113 -0.34201,1.57617 -0.003,0.57503 -0.17705,1.04552 -0.38626,1.04552 -0.20917,0 -0.38041,-0.13357 -0.38041,-0.29685 0,-0.16326 -0.51349,-0.49055 -1.14122,-0.72736 -0.76584,-0.2889 -1.14123,-0.69147 -1.14123,-1.22391 0,-0.43736 -0.24602,-0.7934 -0.54814,-0.7934 -0.7942,0 -1.16048,-0.78873 -0.54671,-1.17724 0.37968,-0.2403 0.39304,-0.33345 0.0487,-0.33765 -0.2615,-0.003 -0.47551,-0.33792 -0.47551,-0.74379 0,-0.40585 -0.17375,-0.84528 -0.38616,-0.97648 -0.71926,-0.44425 -1.49253,-2.86953 -1.26974,-3.98256 0.17512,-0.87527 0.008,-1.29978 -0.81042,-2.05772 -0.5671,-0.52523 -1.61363,-1.14712 -2.32565,-1.38193 -0.71199,-0.23491 -1.2946,-0.60803 -1.2946,-0.82921 0,-0.22118 -0.38513,-0.77748 -0.85586,-1.23628 -1.41253,-1.37653 -2.18736,-2.46025 -2.18736,-3.05928 0,-0.86618 -0.74441,-0.67273 -1.11374,0.28953 -0.25514,0.6647 -0.12524,1.07188 0.58288,1.82665 0.50117,0.53416 0.91124,1.23825 0.91124,1.56454 0,0.91872 1.49274,2.5967 2.31008,2.5967 0.40329,0 0.73318,0.22375 0.73318,0.49711 0,0.2734 0.77037,1.03974 1.71183,1.70305 1.73841,1.22459 1.98347,1.72425 1.34263,2.73722 -0.30344,0.47977 -0.47857,0.43539 -1.15808,-0.29357 -0.44025,-0.47231 -0.97642,-0.75014 -1.19137,-0.61734 -0.26433,0.16326 -0.25687,0.37532 0.0227,0.65479 0.22746,0.2273 0.41351,0.70365 0.41351,1.05854 0,0.89697 -1.9273,3.00458 -2.74751,3.00458 -0.49761,0 -0.67611,0.30104 -0.67611,1.14053 0,1.26522 -0.71575,1.51147 -1.65755,0.5703 -0.31384,-0.31364 -0.68481,-0.5703 -0.82434,-0.5703 -0.57942,0 -2.46341,-1.61345 -2.46341,-2.10971 0,-0.67574 1.82194,-1.16391 2.3551,-0.63096 0.47524,0.47493 3.03915,0.13704 3.44989,-0.45467 0.45969,-0.66215 -0.0492,-2.1203 -1.05222,-3.01511 -2.0599,-1.83765 -2.92792,-2.53431 -3.16842,-2.54289 -0.13914,-0.005 -0.75656,-0.68926 -1.37208,-1.52076 -0.6155,-0.83145 -1.34302,-1.51173 -1.61673,-1.51173 -0.2737,0 -0.49761,-0.17107 -0.49761,-0.3802 0,-0.20908 0.18269,-0.3802 0.40599,-0.3802 0.55476,0 0.02,-1.59363 -0.71474,-2.13067 -0.43471,-0.31766 -0.87001,-0.27842 -1.75166,0.15795 -2.24148,1.10952 -2.49703,1.21237 -3.0115,1.21237 -0.28458,0 -1.06378,-0.27245 -1.731557,-0.60541 -1.488277,-0.74201 -2.326373,-0.47651 -2.326373,0.73701 0,1.09613 -0.458348,1.50323 -2.472674,2.19628 -2.004166,0.68953 -4.06966,2.53863 -3.796496,3.39879 0.226394,0.71294 -1.928912,3.1681 -2.481565,2.82677 -0.174746,-0.108 -0.576101,0.0619 -0.891839,0.3775 -0.657063,0.65664 -1.687252,0.73081 -3.035536,0.21851 -1.258648,-0.47827 -2.538252,-0.0965 -2.538252,0.75737 0,0.84645 0.369227,1.09703 1.772957,1.20321 0.594077,0.0449 1.292165,0.28675 1.551358,0.53735 0.316123,0.30577 0.817023,0.34869 1.521633,0.13047 4.156924,-1.28762 5.088615,-1.32646 12.272467,-0.51137 1.150787,0.13059 2.998027,0.21961 4.104997,0.19786 1.4105,-0.0277 2.07446,0.12108 2.2189,0.49714 0.11336,0.29519 0.44865,0.44367 0.74517,0.32997 0.36163,-0.13871 0.53909,0.0608 0.53909,0.60623 0,0.44711 -0.2487,0.90836 -0.55263,1.02492 -0.43669,0.16746 -0.46418,0.38444 -0.1309,1.03362 1.11952,2.18013 1.13698,2.25231 0.62353,2.57757 -0.28088,0.17789 -0.79178,0.32599 -1.13559,0.32924 -0.34374,0.003 -0.72692,0.27134 -0.85159,0.5958 -0.13074,0.34074 -0.0665,0.49122 0.15228,0.35606 0.20832,-0.12865 0.95418,0.37567 1.65736,1.12082 0.70806,0.75038 1.6495,1.35482 2.11028,1.35482 1.51643,0 4.2138,1.47149 4.2138,2.29879 0,0.47707 0.38853,0.90837 1.04612,1.16099 0.57538,0.22111 1.81653,0.79781 2.75796,1.28161 2.3877,1.22677 2.81641,1.09392 3.04331,-0.943 z m 7.49052,-7.11438 c -0.60128,-0.0903 -1.00335,-0.35638 -0.9193,-0.60837 0.17144,-0.5141 0.22759,-0.51621 2.65372,-0.10067 3.35697,0.57499 1.74888,1.23233 -1.73442,0.70903 z m 13.432,-0.13285 c 0,-0.55034 0.99455,-1.51341 1.27428,-1.2339 0.12297,0.12297 0.65691,-0.0603 1.18649,-0.40703 0.99121,-0.64913 1.31701,-0.35866 0.50643,0.45148 -0.25108,0.25089 -0.30393,0.45624 -0.11752,0.45624 0.18646,0 0.007,0.25115 -0.39946,0.5582 -0.8628,0.6522 -2.45023,0.76559 -2.45023,0.175 z m -8.88693,-0.92331 c 0.28029,-0.7302 0.51792,-0.7302 0.51792,0 0,0.31365 -0.16582,0.57028 -0.36849,0.57028 -0.20263,0 -0.26992,-0.25663 -0.14944,-0.57028 z m -20.40458,-1.33067 c 0,-0.4872 0.26931,-0.4872 0.5706,0 0.12928,0.2091 0.0539,0.3802 -0.16779,0.3802 -0.22158,0 -0.40282,-0.1711 -0.40282,-0.3802 z m -8.03362,-7.10289 c -0.0247,-0.17094 -0.0105,-0.48185 0.0317,-0.69095 0.0422,-0.20912 0.0768,-1.08592 0.0768,-1.94847 0,-1.219 0.13887,-1.5577 0.62339,-1.52077 0.49144,0.0375 0.59986,-0.24868 0.51218,-1.35053 -0.087,-1.09337 0.0602,-1.48977 0.67624,-1.81925 0.69164,-0.36991 0.78436,-0.31534 0.76088,0.44753 -0.0147,0.47784 -0.16285,1.21098 -0.32924,1.62921 -0.16627,0.41819 -0.16098,1.13892 0.0119,1.60156 0.23979,0.64182 -0.12983,2.84581 -0.56835,3.38873 -0.21979,0.27196 -1.76154,0.49771 -1.79554,0.26294 z m -8.501781,-2.38173 c -0.334478,-0.54091 0.09205,-1.16065 0.798756,-1.16065 0.333289,0 0.524211,0.26708 0.453059,0.63383 -0.148165,0.76359 -0.907719,1.08323 -1.251815,0.52682 z m 2.079846,-0.758 c 0,-0.22147 0.171172,-0.40265 0.380398,-0.40265 0.487444,0 0.487444,0.26919 0,0.57028 -0.209228,0.12926 -0.380398,0.0538 -0.380398,-0.16763 z m 31.616755,7.47201 c -0.31064,-0.31048 -0.42319,-0.26795 -0.42319,0.15994 0,0.75579 0.51151,1.26705 0.70059,0.70023 0.0802,-0.24051 -0.0446,-0.62753 -0.2774,-0.86018 z m 42.30411,-5.30836 c 0.55958,-0.4108 0.5839,-0.64285 0.17953,-1.71086 -0.25732,-0.67966 -0.60148,-1.23562 -0.76483,-1.23562 -0.16336,0 -0.29699,-0.21641 -0.29699,-0.48087 0,-0.2645 -0.34238,-1.11929 -0.76084,-1.89956 -0.41846,-0.78028 -0.76082,-1.65502 -0.76082,-1.94385 0,-0.28879 -0.25679,-0.73805 -0.57061,-0.99838 -0.31381,-0.26026 -0.5706,-0.88002 -0.5706,-1.37718 0,-0.65715 -0.2124,-0.90392 -0.7781,-0.90392 -0.42797,0 -1.20609,-0.4277 -1.72916,-0.950434 -0.52305,-0.522759 -1.10199,-0.950474 -1.28653,-0.950474 -0.18449,0 -0.64748,-0.39402 -1.02881,-0.875623 -0.933,-1.178346 -1.86582,-1.484727 -2.4347,-0.799658 -0.34309,0.413152 -0.35818,0.782253 -0.0574,1.403109 0.22449,0.463342 0.50554,1.270172 0.62461,1.79289 0.11904,0.52279 0.34633,1.12577 0.50507,1.34003 0.59735,0.80601 4.40353,3.60241 4.90328,3.60241 0.28648,0 0.5209,0.25663 0.5209,0.57027 0,0.31366 -0.26531,0.57031 -0.58957,0.57031 -0.4774,0 -0.56787,0.41598 -0.47551,2.18605 0.10478,2.00771 0.1917,2.19649 1.06508,2.31334 0.52306,0.07 1.11368,0.28389 1.3124,0.47523 0.5204,0.50108 2.23712,0.42811 2.9936,-0.12721 z m -36.64073,-1.04555 c 0,-0.20908 -0.26691,-0.38017 -0.59308,-0.38017 -0.32619,0 -0.48729,0.17109 -0.358,0.38017 0.30425,0.49193 0.95108,0.49193 0.95108,0 z m 4.85835,-2.42822 c 1.51913,-0.97194 5.03228,-1.64477 5.03228,-0.96374 0,0.2174 0.17869,0.28496 0.39704,0.15002 0.21843,-0.13482 0.64689,-0.038 0.95219,0.21523 0.30999,0.25712 1.65533,0.46043 3.04662,0.46043 2.0644,0 2.64851,-0.14746 3.40777,-0.86038 1.14035,-1.07062 0.80512,-1.87163 -1.23086,-2.94096 -0.79047,-0.41522 -2.37877,-1.25627 -3.52951,-1.86905 -2.24203,-1.19394 -3.03683,-1.20821 -4.62361,-0.083 -1.23428,0.8751 -2.22376,0.92416 -2.22376,0.1101 0,-0.33325 -0.35619,-0.699 -0.7915,-0.81275 -0.54547,-0.14254 -0.73388,-0.42694 -0.60621,-0.91486 0.13066,-0.499343 -0.0191,-0.707999 -0.50827,-0.707999 -0.38138,0 -0.7807,-0.213856 -0.88726,-0.475236 -0.25192,-0.617749 -1.75142,1.163715 -1.7632,2.094705 -0.005,0.36796 -0.35084,0.96206 -0.7693,1.32013 -0.42183,0.36099 -0.76077,1.12153 -0.76077,1.7071 0,0.58084 -0.15125,1.05607 -0.33609,1.05607 -0.63842,0 -0.77934,1.69365 -0.2128,2.55774 0.79926,1.2191 3.46727,1.19765 5.40724,-0.0435 z m 6.67366,-8.740941 c 0.11066,-0.288176 0.0224,-0.702676 -0.19617,-0.921068 -0.50915,-0.508858 -2.20605,0.21093 -2.20605,0.935754 0,0.682349 2.13964,0.669238 2.40222,-0.01465 z M 118.25831,83.022643 c 0.90239,-0.682149 2.17974,-0.721217 2.81519,-0.08613 0.32554,0.325326 0.55614,0.346256 0.74186,0.0673 0.14818,-0.222589 0.55083,-0.508226 0.89469,-0.634683 0.39886,-0.146699 0.696,-0.824774 0.82076,-1.873209 0.10756,-0.903781 0.50113,-2.535084 0.8745,-3.62509 0.56849,-1.6594 0.86822,-2.029795 1.84209,-2.276502 1.02321,-0.259185 0.88853,-0.318039 -1.11933,-0.489359 -1.32778,-0.113301 -2.34779,-0.03857 -2.43867,0.178652 -0.26835,0.641213 -0.98779,1.226768 -1.83923,1.496828 -0.85641,0.271682 -1.45335,1.46599 -1.05478,2.110488 0.25835,0.417819 -0.44567,1.947563 -1.0961,2.381624 -0.23022,0.153613 -0.80373,0.281927 -1.27452,0.285132 -0.88178,0.0061 -1.14779,0.541016 -0.47553,0.956299 0.57495,0.355108 0.4558,0.950461 -0.19014,0.950461 -0.31386,0 -0.5706,-0.171074 -0.5706,-0.380191 0,-0.209104 -0.42801,-0.380192 -0.95108,-0.380192 -0.52306,0 -0.95105,0.171094 -0.95105,0.380192 0,0.209111 0.25682,0.380191 0.57063,0.380191 0.31384,0 0.57061,0.256639 0.57061,0.570277 0,0.745506 1.83885,0.737663 2.83069,-0.01211 z m 2.49753,-4.598657 c -0.001,-0.44488 0.25845,-1.025281 0.57736,-1.2898 0.90228,-0.748414 0.98516,-0.266442 0.1673,0.973574 -0.65857,0.998418 -0.74243,1.034037 -0.74467,0.316226 z m -6.87393,1.021909 c 0.44569,-0.281877 0.46113,-0.508594 0.0833,-1.22978 -0.27586,-0.526629 -0.37876,-0.595613 -0.25454,-0.170547 0.12586,0.430618 -0.0581,0.91584 -0.46376,1.22352 -0.75079,0.569432 -0.21976,0.717344 0.63501,0.176816 z m 13.58312,-1.358436 c 0.32763,-0.853242 -0.59315,-1.825629 -1.22914,-1.29809 -0.397,0.329274 -0.40711,0.570875 -0.0482,1.145254 0.54779,0.876613 0.97966,0.928279 1.27739,0.152832 z m 14.97168,-2.824129 c 0,-0.516027 -0.67128,-0.855049 -0.91442,-0.461863 -0.22737,0.36766 0.10209,0.819603 0.59741,0.819603 0.17433,0 0.31701,-0.160996 0.31701,-0.35774 z m -11.27469,-1.733281 c 0.2789,-0.726524 0.0853,-0.726524 -0.51802,0 -0.27295,0.328711 -0.30991,0.570275 -0.0873,0.570275 0.21248,0 0.48484,-0.256629 0.6053,-0.570275 z m -7.26647,-1.857141 c 0.31643,-0.464094 0.22066,-4.415967 -0.10705,-4.415967 -0.11151,0 -0.7272,0.47876 -1.36824,1.063934 -1.50839,1.376895 -1.95573,3.007678 -1.01856,3.713381 0.71907,0.541506 2.00533,0.355144 2.49386,-0.361348 z m 11.69378,0.349754 c 0,-0.486572 -1.07611,-1.344035 -1.68685,-1.344035 -0.38846,0 -0.22502,0.978691 0.24134,1.444717 0.62955,0.629234 1.44551,0.572422 1.44551,-0.100684 z m -9.29467,-6.141488 c 1.44222,-1.099367 1.70699,-2.045914 0.57241,-2.045914 -0.74555,0 -1.9292,0.930594 -1.9292,1.516799 0,0.177089 -0.10395,0.592562 -0.2309,0.923308 -0.32728,0.852365 0.0875,0.749365 1.58769,-0.394193 z m 11.76732,-0.905358 c -0.12928,-0.209093 -0.52457,-0.368162 -0.87835,-0.353455 -0.52439,0.0218 -0.50267,0.08711 0.11754,0.353455 1.01797,0.437182 1.03113,0.437182 0.7608,0 z m 1.90207,-2.051638 c 3e-5,-0.707578 -0.22195,-0.79975 -1.926,-0.79975 -1.72116,0 -1.91047,0.08088 -1.77992,0.760369 0.11996,0.623939 0.46556,0.767432 1.92606,0.799756 1.56793,0.03469 1.77984,-0.05584 1.77986,-0.760375 z m 74.53357,-7.029768 c 0.11464,-0.18541 -0.033,-0.537355 -0.32805,-0.782113 -0.43838,-0.36358 -0.49903,-0.301926 -0.33184,0.337117 0.22598,0.863568 0.34949,0.946879 0.65989,0.444996 z M 153.51579,44.72449 c -0.3757,-0.372693 -0.41939,-0.329021 -0.21296,0.212817 0.14287,0.374955 0.35555,0.58597 0.47268,0.468927 0.11715,-0.11707 2.6e-4,-0.423851 -0.25972,-0.681744 z m 44.46063,-10.687384 c 0,-0.07897 -0.29957,-0.378352 -0.66572,-0.665329 -0.60337,-0.472923 -0.61678,-0.45947 -0.14362,0.143536 0.49692,0.633298 0.80933,0.834671 0.80933,0.521798 z M 170.58696,18.415311 c 0,-0.286708 -4.7104,-1.703349 -4.91625,-1.47852 -0.23061,0.251923 -0.10377,0.313613 2.63381,1.280544 1.52126,0.537306 2.28244,0.60334 2.28244,0.197976 z m -7.7281,199.101099 c -0.0843,-0.15176 -0.175,-0.97324 -0.20156,-1.82531 -0.0393,-1.26411 0.16451,-1.75348 1.10609,-2.65524 1.00486,-0.96193 1.12372,-1.28623 0.91806,-2.50289 -0.26869,-1.58893 0.62091,-3.74756 1.54472,-3.74756 1.05847,0 4.00373,-1.6131 5.03962,-2.76076 4.19518,-4.64702 4.22288,-4.67074 4.7811,-4.07858 0.74148,0.78644 1.05834,3.66229 0.4583,4.16034 -0.25974,0.215 -0.58494,0.27883 -0.72262,0.1414 -0.13764,-0.1375 -0.25029,0.20584 -0.25029,0.76344 0,0.55803 -0.17117,1.01395 -0.38039,1.01395 -0.20927,0 -0.38045,0.17011 -0.38045,0.37758 0,0.43679 -2.54146,4.54839 -4.75508,7.69351 -1.15816,1.64529 -1.9244,2.31539 -3.20782,2.80639 -1.93165,0.7381 -3.7257,1.01662 -3.94968,0.61375 z m 20.28161,-9.56764 c 0,-0.22146 0.17119,-0.40254 0.38042,-0.40254 0.48742,0 0.48742,0.26912 0,0.56983 -0.20923,0.12929 -0.38042,0.0541 -0.38042,-0.16739 z M 92.983499,184.37696 c 0,-0.22145 0.171191,-0.40252 0.38041,-0.40252 0.487443,0 0.487443,0.26911 0,0.5704 -0.209223,0.12906 -0.38041,0.0536 -0.38041,-0.16787 z m -63.79708,-3.34907 c -4.230166,-6.60296 -9.48346,-18.52129 -12.030687,-27.29452 -4.063273,-13.99505 -5.583897,-29.97568 -4.097398,-43.06019 0.616775,-5.42871 1.292022,-5.76236 1.19052,-0.58814 -0.187603,9.56598 -0.115675,13.04451 0.279605,13.52049 0.231151,0.27838 0.618216,1.69997 0.860179,3.1591 0.24194,1.45912 0.595758,2.95006 0.78624,3.31314 0.190485,0.36302 0.348902,1.4751 0.351985,2.47118 0.0031,0.99606 0.24086,2.83751 0.528326,4.09223 0.287524,1.25456 0.631894,3.13647 0.765306,4.18201 0.427937,3.35381 3.547505,10.93521 5.56915,13.53483 0.585456,0.75284 1.852032,3.01971 2.814559,5.03752 0.962543,2.01776 1.898267,3.66847 2.079384,3.66847 0.40028,0 0.697784,0.71235 1.397197,3.34529 0.772301,2.90708 0.67475,3.74933 -0.620785,5.36066 l -1.155979,1.43755 0.989606,3.00718 c 1.102147,3.34936 2.060756,6.99949 1.838274,6.99949 -0.07974,0 -0.775199,-0.98404 -1.545482,-2.18629 z m 153.573651,-24.0467 c 0.74943,-0.48415 1.63077,-0.48415 1.33142,0 -0.12932,0.20897 -0.61017,0.37756 -1.0686,0.37441 -0.67757,-0.005 -0.72675,-0.0749 -0.26282,-0.37441 z m -22.06371,-2.50297 c 0,-0.67128 0.81893,-0.55447 1.05403,0.15058 0.0828,0.2482 -0.12045,0.45133 -0.45173,0.45133 -0.33125,0 -0.6023,-0.27082 -0.6023,-0.60191 z M 45.226487,140.60788 c -0.13791,-0.22303 -0.159394,-0.49689 -0.04775,-0.60846 0.272494,-0.27228 1.014428,0.20763 1.014428,0.65617 0,0.4859 -0.656754,0.45335 -0.96667,-0.0477 z m 1.347072,-1.49558 c 0,-0.48717 0.26935,-0.48717 0.57061,0 0.129316,0.20922 0.05381,0.38024 -0.167754,0.38024 -0.221566,0 -0.40285,-0.17102 -0.40285,-0.38024 z m -1.997156,-2.45958 c -0.761226,-1.0463 -0.824131,-1.34221 -0.285295,-1.34221 0.209207,0 0.380409,0.20038 0.380409,0.44532 0,0.24489 0.283308,0.75811 0.629566,1.14051 0.346285,0.38246 0.474652,0.68992 0.285307,0.68327 -0.189336,-0.006 -0.643829,-0.42368 -1.009987,-0.92689 z M 231.34939,125.19594 c -0.15254,-0.1525 -0.26648,-0.7192 -0.25328,-1.25936 l 0.024,-0.98215 0.36715,0.91789 c 0.39571,0.98918 0.31375,1.77509 -0.13808,1.32362 z M 62.3921,123.19556 c -0.163886,-0.26502 -0.195214,-0.58457 -0.06965,-0.70997 0.340443,-0.34034 0.71165,0.16015 0.527787,0.71148 -0.128887,0.38632 -0.218467,0.38601 -0.458139,-0.002 z m 2.637059,-0.66166 c 0.54526,-0.54497 1.078846,-0.90337 1.185772,-0.7965 0.295939,0.29572 -1.100821,1.78733 -1.673766,1.78733 -0.292715,0 -0.08848,-0.41469 0.487994,-0.99083 z m -4.000047,-0.91014 c 0,-0.20912 0.266885,-0.38018 0.593076,-0.38018 0.32618,0 0.487252,0.17105 0.357942,0.38018 -0.304211,0.49191 -0.951018,0.49191 -0.951018,0 z m 2.662879,-8.74431 c 0,-0.48717 0.26934,-0.48717 0.570594,0 0.129316,0.20908 0.05383,0.3802 -0.167735,0.3802 -0.221589,0 -0.402857,-0.17112 -0.402857,-0.3802 z M 57.985845,98.432328 c 0,-0.487176 0.269338,-0.487176 0.570609,0 0.129297,0.20911 0.05381,0.380184 -0.167754,0.380184 -0.221574,0 -0.402865,-0.171074 -0.402865,-0.380184 z m -2.104039,-3.06059 c -0.349413,-0.565015 -0.07152,-0.765015 0.538929,-0.387947 0.327057,0.202022 0.365934,0.397938 0.110371,0.555818 -0.217138,0.134082 -0.509304,0.05855 -0.649306,-0.167871 z M 18.102939,91.969137 c 0,-0.522744 0.08633,-0.736623 0.191873,-0.475231 0.105528,0.261381 0.105528,0.689088 0,0.950477 -0.105547,0.261367 -0.191873,0.04752 -0.191873,-0.475246 z m 0.239277,-3.464629 c -0.283099,-0.737317 0.475661,-4.139125 0.923212,-4.139125 0.313325,0 0.115264,1.669369 -0.449398,3.787367 -0.185848,0.69718 -0.306726,0.786918 -0.473814,0.351758 z m 4.265568,-13.643809 c 0,-0.209095 0.171178,-0.380187 0.380407,-0.380187 0.209225,0 0.380409,0.171094 0.380409,0.380187 0,0.209106 -0.171183,0.38019 -0.380409,0.38019 -0.20923,0 -0.380407,-0.171094 -0.380407,-0.38019 z m 1.141237,-2.109926 c 0,-0.471369 1.211693,-2.508632 1.387515,-2.332902 0.204133,0.204014 -0.906092,2.541885 -1.2071,2.541885 -0.09922,0 -0.180414,-0.09402 -0.180414,-0.208983 z M 102.5058,70.225836 c -0.007,-0.35358 0.17053,-0.755658 0.39365,-0.893492 0.6705,-0.414133 0.76447,0.02246 0.17303,0.803769 -0.48682,0.643225 -0.55598,0.65417 -0.56667,0.08973 z M 25.27064,69.582949 c 0,-0.209101 0.171186,-0.485927 0.380418,-0.615158 0.209207,-0.129219 0.380409,-0.06389 0.380409,0.145215 0,0.209103 -0.171201,0.485924 -0.380409,0.615158 -0.209232,0.129219 -0.380418,0.06389 -0.380418,-0.145215 z m 73.962451,-3.846746 c 0,-0.418207 0.226109,-0.760387 0.50247,-0.760387 0.384639,0 0.406979,0.178399 0.09531,0.760387 -0.509473,0.951348 -0.597791,0.951348 -0.597791,0 z M 50.136706,63.360027 c 0.03967,-0.26139 0.205809,-0.689095 0.369195,-0.950468 0.189981,-0.303924 0.08328,-0.475241 -0.296006,-0.475241 -0.326164,0 -0.593056,-0.25124 -0.593056,-0.558359 0,-0.362603 0.219959,-0.473975 0.627547,-0.317662 0.634445,0.24333 0.614722,-0.238807 -0.109121,-2.667371 -0.143711,-0.482256 0.03473,-0.755004 0.588697,-0.899783 0.437187,-0.114278 0.794898,-0.322469 0.794898,-0.462692 0,-0.140215 0.311235,-0.278377 0.691625,-0.306998 1.161471,-0.08744 3.884518,-1.40668 3.74826,-1.815912 -0.07051,-0.211685 -0.517978,-0.405191 -0.994379,-0.430006 -1.012316,-0.05277 -1.60899,-0.828883 -1.329072,-1.728758 0.10834,-0.348349 0.01895,-0.743367 -0.198895,-0.877869 -0.220273,-0.136054 -0.395886,0.07051 -0.395886,0.465629 0,0.390584 -0.251327,1.042254 -0.558516,1.448133 -0.873979,1.154818 -0.731299,-0.154336 0.179531,-1.647356 1.044785,-1.712615 0.955813,-2.232695 -0.429379,-2.50955 -1.86867,-0.373528 -1.966236,-0.297221 -0.848627,0.663549 1.025635,0.881707 1.034143,0.922806 0.39285,1.900943 -0.360475,0.549869 -0.908277,0.999748 -1.217285,0.999748 -0.309014,0 -0.56183,0.151133 -0.56183,0.335855 0,0.184707 -0.347311,0.4266 -0.771756,0.537539 -0.424457,0.110938 -0.743922,0.344733 -0.70993,0.519586 0.163731,0.84202 -0.576951,2.789088 -1.061006,2.789088 -0.300021,0 -0.453886,0.148145 -0.341927,0.329213 0.111972,0.181055 0.678421,0.255367 1.258779,0.165117 0.963279,-0.149746 0.997207,-0.116796 0.389488,0.378057 -0.366131,0.298156 -0.665715,0.755629 -0.665715,1.016639 0,0.593633 -1.82225,0.195734 -2.692816,-0.587989 -0.330305,-0.297382 -0.892672,-0.54067 -1.249711,-0.54067 -0.543471,0 -0.578906,-0.131171 -0.217645,-0.80582 0.237358,-0.443207 0.756918,-0.890875 1.15462,-0.994818 0.397709,-0.103945 0.723109,-0.350209 0.723109,-0.547272 0,-0.197058 -0.146152,-0.268006 -0.324791,-0.157675 -0.178633,0.110351 -0.51732,-0.221719 -0.752664,-0.737934 -0.235336,-0.516199 -0.579641,-0.938553 -0.76515,-0.938553 -0.577915,0 -2.331936,1.543186 -2.239504,1.970326 0.04828,0.223227 -0.153457,0.493352 -0.448325,0.600303 -0.371599,0.134766 -0.462816,0.0035 -0.297254,-0.427703 0.131387,-0.342193 0.07309,-0.622168 -0.12957,-0.622168 -0.202668,0 -0.368488,-0.283135 -0.368488,-0.629205 0,-0.585481 -0.04832,-0.585481 -0.695656,0 -0.382618,0.34607 -0.877647,0.629205 -1.100088,0.629205 -0.222418,0 -1.242526,0.753092 -2.266881,1.673551 -1.52707,1.372144 -2.055381,1.636687 -2.93366,1.468887 -0.851983,-0.162774 -1.263078,0.01988 -2.00902,0.892726 l -0.937866,1.097377 0.67199,-1.223914 c 0.369603,-0.673164 2.136072,-3.186855 3.925474,-5.585982 16.88839,-22.642905 41.517795,-38.228982 69.103386,-43.730309 10.75312,-2.1444734 23.67415,-3.0384773 30.07597,-2.080981 1.84852,0.2764682 2.9653,0.5661054 2.48176,0.6436326 -0.48359,0.077503 -0.97262,0.3842965 -1.08683,0.6817362 -0.12211,0.3179481 -0.73023,0.5407823 -1.47589,0.5407823 -1.39245,0 -2.09811,0.5997779 -1.03257,0.8775849 0.55734,0.145317 0.53884,0.182225 -0.10946,0.218881 -0.42891,0.02425 -0.98242,0.246571 -1.23007,0.494087 -0.30964,0.309402 -2.85826,0.483043 -8.15979,0.555837 -9.18111,0.126102 -9.81994,0.196477 -12.48908,1.375305 -1.13725,0.502305 -2.9535,1.01784 -4.03588,1.145677 -1.08253,0.127795 -2.28078,0.402732 -2.66286,0.610931 -0.38216,0.20822 -1.19946,0.486212 -1.81622,0.617762 -0.83241,0.177547 -0.98406,0.323956 -0.58878,0.568151 0.29296,0.180963 0.66691,0.246041 0.83101,0.144701 0.16411,-0.101347 0.89844,-0.01869 1.63188,0.183688 0.80428,0.22194 1.41919,0.229603 1.54919,0.0193 0.11864,-0.191811 1.4e-4,-0.348727 -0.26321,-0.348727 -0.29965,0 -0.34365,-0.13068 -0.1176,-0.349005 0.64575,-0.623601 3.01346,-0.595203 3.93104,0.04716 0.82989,0.580946 0.83985,0.635951 0.1765,0.978744 -0.70824,0.365973 -3.32934,0.989015 -5.89481,1.401172 -1.03596,0.166453 -1.4437,0.445913 -1.60862,1.102399 -0.2055,0.81825 -0.41321,0.879386 -2.986914,0.879133 -2.964359,-3.23e-4 -6.466662,0.808414 -6.258187,1.44514 0.171347,0.523214 2.094308,0.722162 2.659209,0.275095 1.551273,-1.227664 5.426952,-1.47062 4.982082,-0.312312 -0.22968,0.598282 0.85023,1.143203 1.1868,0.598872 0.1237,-0.19997 0.55722,-0.363585 0.96323,-0.363585 0.42454,0 0.73842,-0.259646 0.73842,-0.610951 0,-0.400926 0.20684,-0.531631 0.60164,-0.380183 0.33105,0.12691 0.85681,0.23076 1.16848,0.23076 0.4954,0 0.49352,0.07307 -0.0148,0.58128 -0.92785,0.927274 -0.39251,1.565719 1.1607,1.384481 0.95154,-0.111027 1.29128,-0.02891 1.10786,0.267718 -0.18134,0.293253 0.28472,0.427832 1.48165,0.427832 1.20124,0 1.81453,0.177988 1.96527,0.570289 0.12037,0.313649 0.45739,0.570274 0.74883,0.570274 0.47417,0 0.6911,0.465932 0.43481,0.934106 -0.0524,0.09554 0.24044,0.418992 0.65062,0.718732 0.64076,0.468247 0.68274,0.683221 0.29825,1.526614 -0.24611,0.539904 -0.86646,1.086719 -1.37845,1.215166 l -0.93103,0.233533 0.82195,0.822467 c 0.45215,0.452357 1.19425,0.85398 1.64927,0.892488 0.45504,0.03848 1.35916,0.344822 2.00913,0.68074 0.92896,0.480116 1.15412,0.816741 1.05275,1.573874 -0.071,0.529722 -0.37556,1.118964 -0.67675,1.309421 -0.41243,0.260829 -0.42472,0.347727 -0.0496,0.352121 0.27386,0.0031 0.39209,0.176895 0.2628,0.385999 -0.12926,0.209101 0.0318,0.380175 0.35793,0.380175 0.32623,0 0.59307,0.256641 0.59307,0.570289 0,0.313662 -0.23494,0.570282 -0.52225,0.570282 -0.79643,0 -4.04259,1.51213 -4.04259,1.883138 0,0.179727 -0.38517,0.255373 -0.85599,0.168086 -0.47068,-0.0873 -0.64329,-0.05746 -0.3834,0.06625 0.35123,0.167227 0.36774,0.420612 0.0642,0.987242 -0.22448,0.419252 -0.50578,0.664743 -0.625,0.54552 -0.11929,-0.119199 -0.40967,0.04678 -0.64534,0.368844 -0.23568,0.322084 -0.73705,0.630847 -1.11415,0.686177 -0.80808,0.118497 -1.38911,0.926397 -1.13756,1.581473 0.1534,0.39966 -0.63285,0.781799 -1.95993,0.952525 -0.20928,0.02693 -0.61762,0.245678 -0.90751,0.486131 -0.28997,0.240438 -0.76033,0.439754 -1.0454,0.442907 -0.59045,0.0064 -3.56304,2.769853 -3.56304,3.312152 0,0.196133 -0.363836,0.241199 -0.8085,0.100137 -0.518596,-0.164493 -0.720532,-0.114278 -0.56325,0.140078 0.20039,0.324051 -2.778059,1.104334 -3.573614,0.936213 -3.290171,-0.695295 -4.609755,-0.743805 -7.891515,-0.290153 -1.346039,0.186075 -2.170682,0.130274 -2.534524,-0.171543 -0.417287,-0.346097 -0.848191,-0.318396 -1.904023,0.1225 -0.750567,0.313438 -1.364674,0.72367 -1.364674,0.911602 0,0.187949 -0.53318,0.356881 -1.184836,0.375408 -0.651656,0.01855 -2.34575,0.643348 -3.764627,1.388522 -3.050631,1.602119 -3.615004,1.689248 -3.235271,0.49941 0.150156,-0.470481 0.311816,-1.399428 0.359254,-2.064317 0.11041,-1.548041 1.382173,-3.195902 4.883763,-6.327982 3.283139,-2.936668 7.887047,-5.336727 7.887047,-4.111561 0,0.180098 0.432266,0.244877 0.96058,0.143946 0.895299,-0.171035 0.914682,-0.219149 0.285305,-0.707653 -0.642692,-0.498832 -0.638537,-0.552838 0.08553,-1.11848 0.421403,-0.329184 1.225526,-0.528488 1.802451,-0.446692 0.760885,0.107872 1.101797,-0.04191 1.264985,-0.555746 0.131953,-0.415552 1.534586,-1.314472 3.427584,-2.19672 3.677219,-1.713805 5.156687,-2.969756 4.855277,-4.121746 -0.160586,-0.613623 0.120606,-0.940469 1.346868,-1.565705 0.8525,-0.434616 1.68232,-0.761672 1.84432,-0.726801 0.16196,0.03488 0.58969,-0.06594 0.95058,-0.22401 0.42218,-0.184961 1.14784,0.01641 2.03578,0.564826 1.11005,0.68561 1.44175,0.752166 1.69645,0.34032 0.70054,-1.132912 -2.31206,-1.903429 -8.667912,-2.216974 -1.127588,-0.05561 -1.082664,-0.855138 0.128906,-2.294172 0.736241,-0.874464 0.83795,-1.169739 0.402869,-1.169739 -0.320087,0 -0.69355,0.180399 -0.829853,0.400845 -0.16334,0.264115 -0.581641,0.182299 -1.226223,-0.239794 -0.85999,-0.563167 -1.284336,-0.586021 -3.507564,-0.188926 -1.391096,0.248457 -3.032,0.782943 -3.646477,1.187762 -0.614453,0.404828 -1.42689,0.737182 -1.805373,0.738539 -0.378484,0.0014 -0.582355,0.173612 -0.453054,0.382703 0.392334,0.634411 1.717279,0.428089 2.968361,-0.462235 1.296207,-0.922454 5.722555,-1.459129 6.405441,-0.776643 0.691748,0.691336 -1.472525,3.252577 -3.709968,4.390472 -1.146975,0.58332 -2.181344,1.310414 -2.298569,1.615798 -0.117246,0.305368 -0.45166,0.555231 -0.743123,0.555231 -0.291453,0 -0.534592,0.213855 -0.540334,0.475242 -0.01133,0.516514 -3.048428,2.186076 -3.97666,2.186076 -0.31457,0 -1.044039,0.547705 -1.621008,1.217125 -2.423631,2.811891 -2.650103,2.963793 -4.320959,2.898379 l -1.598599,-0.06262 1.198896,-1.070631 c 0.659416,-0.58885 1.198947,-1.164588 1.198947,-1.279437 0,-0.400909 -1.64322,0.67438 -2.838224,1.857265 -0.662444,0.655737 -1.848157,1.384541 -2.63493,1.619541 -0.985623,0.294424 -1.303428,0.300348 -1.021949,0.01895 0.705644,-0.705208 0.443644,-1.166194 -0.287131,-0.505231 -1.164215,1.052994 -1.300551,0.710414 -0.374787,-0.941711 0.484148,-0.864 1.594396,-2.156803 2.467275,-2.872851 0.87286,-0.716073 1.762981,-1.806528 1.978113,-2.423213 0.225827,-0.64741 0.811567,-1.281086 1.38593,-1.499328 1.288149,-0.489467 1.325703,-0.483672 1.325703,0.204216 0,0.794348 1.138791,1.174395 1.554205,0.518694 0.240299,-0.379291 0.337852,-0.395088 0.342018,-0.05541 0.0031,0.261378 0.196969,0.475234 0.4306,0.475234 0.241269,0 0.336447,-0.337504 0.220357,-0.78125 -0.14793,-0.565303 0.02816,-0.869608 0.636992,-1.100945 0.462754,-0.17586 1.069299,-0.594172 1.34784,-0.92961 0.278551,-0.335443 0.913461,-0.60989 1.410918,-0.60989 0.497437,0 0.904437,-0.153067 0.904437,-0.340137 0,-0.199264 -0.590853,-0.201174 -1.426544,-0.0047 -0.784573,0.184551 -2.140674,0.234668 -3.013522,0.111348 -1.364248,-0.192754 -1.835246,-0.05354 -3.35531,0.991693 -0.972561,0.668768 -1.88442,1.099903 -2.026303,0.9581 -0.141895,-0.141797 0.05156,-0.484045 0.429902,-0.760537 0.465934,-0.340483 0.549795,-0.587971 0.259934,-0.76701 -0.676629,-0.41793 0.74666,-1.765971 1.584068,-1.500346 1.025781,0.325377 1.572746,-0.152128 0.920703,-0.803776 -0.300512,-0.300321 -0.708822,-0.546046 -0.907369,-0.546046 -0.198547,0 -0.574101,-0.256622 -0.834566,-0.570277 -0.596504,-0.718337 -2.558028,-0.727196 -3.804106,-0.01719 -0.523054,0.298026 -1.533267,0.810862 -2.244965,1.139621 -0.711673,0.328756 -2.016912,1.237192 -2.900506,2.018771 -0.883615,0.781566 -2.325806,1.997691 -3.204925,2.702503 -0.879098,0.704799 -1.778682,1.676973 -1.999037,2.160381 -0.220409,0.483408 -0.925565,1.096207 -1.567057,1.36176 -0.641463,0.265555 -1.68917,0.936938 -2.328195,1.491975 -0.639039,0.555048 -1.654336,1.263658 -2.256231,1.574732 -0.877357,0.45342 -0.971635,0.612629 -0.475519,0.802906 0.340359,0.130528 0.618851,0.0716 0.618851,-0.130918 0,-0.202547 0.180274,-0.368257 0.400602,-0.368257 0.220295,0 1.032869,-0.429401 1.805664,-0.954241 0.77282,-0.524818 1.462719,-0.781439 1.533156,-0.570275 0.340254,1.020109 4.033395,-0.186797 5.486822,-1.793068 0.366881,-0.405459 1.051614,-0.703756 1.521649,-0.66286 0.470015,0.0409 1.196947,-0.110957 1.615412,-0.337472 0.885006,-0.479045 3.2889,-1.370825 3.717764,-1.379166 0.161718,-0.0031 0.03273,0.392855 -0.286657,0.880042 -0.319398,0.487167 -0.488787,0.977655 -0.3764,1.089965 0.112383,0.112305 -0.400568,0.734983 -1.139904,1.383754 -0.739317,0.648739 -1.344209,1.353541 -1.344209,1.566239 0,0.212669 -0.639592,0.653771 -1.421338,0.980224 -1.508149,0.629783 -3.143555,1.96882 -3.143555,2.573897 0,0.208345 0.76716,0.276925 1.798303,0.160781 1.533402,-0.172735 1.69941,-0.130313 1.126949,0.288043 -0.65735,0.480379 -3.672936,3.190279 -6.378385,5.731853 -0.748476,0.703127 -1.587119,1.9636 -1.863658,2.801036 -0.276553,0.837437 -0.628611,1.444917 -0.782342,1.349945 -0.153769,-0.09496 -0.485642,0.324625 -0.737519,0.932394 -0.677309,1.634176 -2.845539,3.502895 -3.412262,2.940905 -0.342145,-0.339239 -0.391994,-0.297702 -0.211582,0.176191 0.171699,0.451059 -0.08133,0.7306 -0.9285,1.025746 -0.64049,0.223137 -1.164522,0.671244 -1.164522,0.995781 0,0.32453 -0.205417,0.590053 -0.456482,0.590053 -0.3374,0 -0.345154,0.111289 -0.02973,0.426512 0.545068,0.544771 0.2063,1.417652 -0.974764,2.511562 -0.512914,0.475104 -0.796994,0.863795 -0.63127,0.863795 0.165703,0 -0.160488,0.427715 -0.724894,0.950477 -1.121403,1.038689 -1.720713,1.215787 -1.608315,0.475232 z m -4.155955,-16.06292 c 0.17748,-0.760392 0.139433,-1.013835 -0.11418,-0.760392 -0.209222,0.209129 -0.500215,0.893457 -0.646646,1.520764 -0.177481,0.760367 -0.139434,1.013837 0.114179,0.760367 0.209215,-0.209092 0.500221,-0.893434 0.646647,-1.520739 z m -1.01433,-0.781259 c 0.04662,-0.562909 -0.07846,-0.873215 -0.297434,-0.737926 -0.445474,0.275144 -0.512951,1.709264 -0.08045,1.709264 0.163594,0 0.333635,-0.4371 0.377883,-0.971338 z m 4.079795,-3.590901 c 0.808222,-0.892543 0.143984,-1.040074 -0.733647,-0.162929 -0.672263,0.671882 -0.747525,0.92331 -0.276338,0.92331 0.176817,0 0.631291,-0.342166 1.009985,-0.760371 z m 2.282463,-3.421695 c 0.297537,-0.481162 -0.206051,-0.481162 -0.951026,0 -0.491734,0.317621 -0.481717,0.36935 0.07264,0.374385 0.353816,0.0031 0.749074,-0.165274 0.878383,-0.374385 z m 3.702961,-2.365654 c 0.651173,-0.607127 0.995181,-1.220785 0.832127,-1.484424 -0.184532,-0.298434 -0.11379,-0.348065 0.210609,-0.147695 0.325654,0.20115 0.429801,0.125664 0.312375,-0.226393 -0.226311,-0.678555 -0.769875,-0.571967 -1.253994,0.245895 -0.209223,0.353468 -0.851149,1.123419 -1.426522,1.710968 -0.575365,0.58753 -1.046129,1.273469 -1.046129,1.524252 0,0.495238 0.3761,0.237928 2.371534,-1.622597 z m 33.577138,-8.279596 c -0.129297,-0.209098 -0.406267,-0.380189 -0.615517,-0.380189 -0.209217,0 -0.27459,0.171093 -0.145313,0.380189 0.129336,0.209109 0.406301,0.380189 0.615516,0.380189 0.20924,0 0.274613,-0.171074 0.145312,-0.380189 z m 15.723602,-4.556419 c 0.5484,0.005 0.55694,0.05561 0.0634,0.374356 -0.49647,0.32067 -0.49012,0.369302 0.0485,0.374383 0.34052,0.0032 0.82029,-0.236429 1.06615,-0.532502 0.35562,-0.428175 0.29823,-0.585498 -0.2802,-0.768993 -1.0024,-0.317974 -1.98178,0.12133 -1.94564,0.872752 0.019,0.394457 0.10072,0.449502 0.22186,0.149414 0.10561,-0.261388 0.47718,-0.472607 0.82592,-0.469409 z M 93.079841,20.874059 c 0.320685,0 0.681605,-0.256614 0.802041,-0.570273 0.293199,-0.763599 -0.08279,-0.716736 -1.582936,0.197367 -0.742082,0.452169 -1.145976,0.941384 -0.988051,1.196741 0.185547,0.300057 0.407338,0.240224 0.726473,-0.195946 0.252674,-0.345335 0.721762,-0.627889 1.042473,-0.627889 z m 4.278375,-3.421679 c 0.129297,-0.209108 0.06393,-0.380199 -0.145313,-0.380199 -0.209236,0 -0.486197,0.171092 -0.615513,0.380199 -0.129317,0.209092 -0.06395,0.380177 0.145293,0.380177 0.20923,0 0.48621,-0.171084 0.615529,-0.380177 z m 3.233444,-3.041494 c 0,-0.209123 -0.25676,-0.380215 -0.57062,-0.380215 -0.313818,0 -0.570582,0.171092 -0.570582,0.380215 0,0.209103 0.256764,0.38018 0.570582,0.38018 0.31386,0 0.57062,-0.171076 0.57062,-0.38018 z m -9.129798,44.660093 c 0,-0.320211 -0.256783,-0.6807 -0.570623,-0.801043 -0.738445,-0.283205 -0.738445,-0.897864 0,-0.897864 0.31384,0 0.570623,-0.256619 0.570623,-0.570277 0,-0.313648 -0.181289,-0.570285 -0.402865,-0.570285 -0.221598,0 -0.301688,-0.163613 -0.178008,-0.363582 0.123653,-0.199969 0.505861,-0.255809 0.849309,-0.124102 0.486154,0.186465 0.564844,0.08428 0.35534,-0.461435 -0.297426,-0.774565 0.282355,-1.316873 1.417746,-1.326172 0.523832,-0.0043 0.657898,0.193613 0.511111,0.754539 -0.153418,0.586404 -0.01133,0.760851 0.621361,0.762502 0.451176,0.0011 1.472305,0.183047 2.269159,0.404195 1.329197,0.368897 1.43915,0.501436 1.331445,1.605029 -0.153906,1.576608 -1.334404,2.157879 -4.397039,2.165102 -1.883869,0.0045 -2.377551,-0.115293 -2.377551,-0.576615 z m 52.369678,-3.092924 c -0.52366,-0.523356 -0.2259,-1.267289 0.50723,-1.267289 0.50719,0 0.76078,0.253451 0.76078,0.760371 0,0.732709 -0.74436,1.030269 -1.26801,0.506918 z m -20.7434,-10.674297 c -0.23801,-0.444451 -0.43272,-1.075959 -0.43272,-1.403361 0,-0.327381 -0.17119,-0.595266 -0.38038,-0.595266 -0.44886,0 -0.49856,-1.50666 -0.0719,-2.177838 0.17205,-0.270713 0.80919,-0.402215 1.51576,-0.312842 0.6705,0.0848 1.219,0.0045 1.219,-0.178594 0,-0.353462 2.5589,-0.222685 2.93159,0.149805 0.37125,0.37102 -0.73814,1.426143 -1.28072,1.218057 -0.69939,-0.268211 -0.64127,0.525918 0.0982,1.342594 0.70955,0.783543 0.4375,1.45374 -0.55963,1.378681 -0.47381,-0.03566 -0.64022,-0.271912 -0.51881,-0.736181 0.30508,-1.165874 -0.44043,-0.745844 -1.284,0.723416 -0.77478,1.349398 -0.81918,1.370634 -1.23638,0.591543 z M 71.959542,40.216457 c 0.258031,-0.259834 0.564988,-0.376633 0.682115,-0.259592 0.117129,0.117071 -0.09398,0.329653 -0.46917,0.472428 -0.542166,0.20632 -0.585867,0.162637 -0.212945,-0.212836 z m 78.838498,-0.532289 c -0.69927,-0.842127 -0.30135,-0.938932 0.48316,-0.117539 0.36617,0.383365 0.51549,0.697014 0.33191,0.697014 -0.18364,0 -0.55039,-0.260762 -0.81507,-0.579469 z m -16.99185,-0.04461 c -0.31746,-0.12918 -0.26091,-0.377827 0.19015,-0.83637 0.449,-0.456357 0.7729,-0.534923 1.07756,-0.261398 0.23957,0.215152 0.3441,0.541686 0.23236,0.725631 -0.11179,0.183984 0.0346,0.252549 0.32523,0.152422 0.33847,-0.116602 0.4855,-0.612641 0.40907,-1.379805 -0.11564,-1.160113 -0.0868,-1.185334 0.91944,-0.803006 0.74944,0.284774 1.11387,0.273434 1.30821,-0.04074 0.19514,-0.315611 0.34092,-0.319678 0.52953,-0.01465 0.14307,0.231421 0.0688,0.420777 -0.16513,0.420777 -0.23393,0 -0.31952,0.171094 -0.19024,0.380184 0.12936,0.209099 0.0109,0.38281 -0.26284,0.386019 -0.36182,0.0043 -0.34198,0.106563 0.0727,0.374356 0.46493,0.300318 0.41797,0.369621 -0.2536,0.374378 -0.45335,0.0031 -0.91056,-0.208044 -1.01613,-0.469427 -0.12113,-0.300096 -0.20295,-0.245024 -0.22188,0.149414 -0.0441,0.917021 -1.64758,1.374176 -2.95442,0.842316 z M 64.234202,35.747275 c 0.113711,-0.183886 0.594561,-0.431959 1.068588,-0.551361 0.831482,-0.209435 0.835826,-0.197644 0.123418,0.334274 -0.817818,0.61066 -1.51376,0.737408 -1.19201,0.217087 z m 9.728818,-3.847769 c 0.744989,-0.48116 1.248584,-0.48116 0.951024,0 -0.129297,0.209109 -0.524543,0.377582 -0.878363,0.374369 -0.55437,-0.0051 -0.564399,-0.05676 -0.07266,-0.374369 z m 1.902055,-1.900943 c 0,-0.2091 0.256762,-0.380186 0.570606,-0.380186 0.313863,0 0.570625,0.171094 0.570625,0.380186 0,0.209107 -0.256762,0.380191 -0.570625,0.380191 -0.313844,0 -0.570606,-0.171094 -0.570606,-0.380191 z m 33.959445,-6.692884 c 0.12641,-0.126332 0.45453,-0.139838 0.72913,-0.03 0.30351,0.121363 0.21335,0.211432 -0.22985,0.229694 -0.40095,0.0165 -0.62566,-0.07336 -0.49928,-0.19969 z m -2.5504,-0.520333 c -0.40454,-0.142649 -0.57579,-0.346711 -0.38039,-0.453455 0.50615,-0.27666 3.8015,-0.403259 3.53379,-0.135786 -0.46705,0.466819 -2.4499,0.837328 -3.1534,0.589241 z m 2.54243,-1.784548 c -0.81128,-0.324358 -0.52213,-0.94661 0.38049,-0.818484 0.47073,0.0668 0.8131,0.292557 0.76077,0.501659 -0.11561,0.462019 -0.5065,0.570566 -1.14126,0.316825 z m -5.42079,-0.252894 c 0,-0.118174 0.38905,-0.634393 0.86455,-1.147193 0.6222,-0.670906 1.41005,-0.991152 2.81,-1.142085 1.06998,-0.115367 2.39275,-0.321992 2.93952,-0.459144 0.73785,-0.185064 0.99409,-0.103695 0.99409,0.315603 0,0.753021 -0.99991,1.550584 -1.53193,1.221936 -0.23327,-0.144062 -1.22508,-0.137797 -2.20405,0.01397 -1.41711,0.219666 -1.62481,0.338437 -1.0191,0.582674 0.69161,0.278863 0.67424,0.309682 -0.19023,0.3387 -0.52306,0.01754 -1.33614,0.135078 -1.80688,0.261151 -0.47081,0.126072 -0.85597,0.132565 -0.85597,0.01439 z m 36.41693,-6.966586 c 0.25757,-0.10414 0.77113,-0.110486 1.14126,-0.0141 0.37013,0.09641 0.15939,0.181596 -0.46826,0.189363 -0.62771,0.0077 -0.93049,-0.07112 -0.673,-0.175257 z" style="fill:url(#radialGradient1506-8);fill-opacity:1.0"/>
    </g>
  </g>
</g>
</svg>