<svg xmlns:dc="http://purl.org/dc/elements/1.1/" xmlns:cc="http://creativecommons.org/ns#" xmlns:svg="http://www.w3.org/2000/svg" xmlns="http://www.w3.org/2000/svg" xmlns:xlink="http://www.w3.org/1999/xlink" version="1.0" width="128" height="128" id="m-sign-svg">
  <defs id="defs5678">
    <linearGradient x1="5.1934605" y1="88.98745" x2="5.1934605" y2="145.64882" id="linearGradient4338" xlink:href="#linearGradient4322" gradientUnits="userSpaceOnUse" gradientTransform="translate(-2.6296821,21.172877)" />
    <linearGradient x1="28" y1="57.5" x2="28" y2="0" id="linearGradient8081" gradientUnits="userSpaceOnUse">
      <stop id="stop8083" style="stop-color:#ffd700;stop-opacity:1" offset="0" />
      <stop id="stop8087" style="stop-color:#ffea00;stop-opacity:1" offset="0.25242719" />
      <stop id="stop8085" style="stop-color:#b06d00;stop-opacity:1" offset="1" />
    </linearGradient>
    <linearGradient x1="58.557281" y1="107.76735" x2="63.943447" y2="107.76735" id="linearGradient7698" xlink:href="#linearGradient8081" gradientUnits="userSpaceOnUse" gradientTransform="matrix(1.0872079,0,0,1.0872079,-59.143229,30.210796)" />
    <linearGradient id="linearGradient6924">
      <stop id="stop6926" style="stop-color:#ffffff;stop-opacity:0.73885351" offset="0" />
      <stop id="stop10395" style="stop-color:#ffffff;stop-opacity:0" offset="0.24999999" />
      <stop id="stop10393" style="stop-color:#cccccc;stop-opacity:0" offset="0.5" />
      <stop id="stop6928" style="stop-color:#9a9a9a;stop-opacity:1" offset="1" />
    </linearGradient>
    <linearGradient x1="8.3827581" y1="8.3199806" x2="15.021504" y2="14.958727" id="linearGradient6930" xlink:href="#linearGradient6924" gradientUnits="userSpaceOnUse" gradientTransform="matrix(1.2050468,0,0,1.2050468,-2.1016162,-2.0259658)" />
    <linearGradient x1="9.3031492" y1="133.25163" x2="-5.8540711" y2="130.59308" id="linearGradient4640" xlink:href="#linearGradient4529" gradientUnits="userSpaceOnUse" />
    <filter x="-0.10337079" y="-0.10337079" width="1.2067416" height="1.2067416" color-interpolation-filters="sRGB" id="filter4626">
      <feGaussianBlur id="feGaussianBlur4628" stdDeviation="0.42488862" />
    </filter>
    <clipPath id="clipPath4632">
      <rect width="13.334369" height="3.7415669" rx="0" ry="0" x="-2.9263651" y="130.97287" id="rect4634" style="opacity:0.83895126;fill:url(#linearGradient4636);fill-opacity:1;stroke:none;filter:url(#filter4626)" />
    </clipPath>
    <linearGradient x1="9.3031492" y1="133.25163" x2="-5.8540711" y2="130.59308" id="linearGradient4604" xlink:href="#linearGradient4529" gradientUnits="userSpaceOnUse" />
    <radialGradient cx="4.7494926" cy="132.25244" r="5.3222656" fx="4.7494926" fy="132.25244" id="radialGradient4602" xlink:href="#linearGradient4434" gradientUnits="userSpaceOnUse" gradientTransform="matrix(1,0,0,0.3939752,0.4817163,48.449986)" />
    <filter color-interpolation-filters="sRGB" id="filter4584">
      <feGaussianBlur id="feGaussianBlur4586" stdDeviation="1.0829419" />
    </filter>
    <clipPath id="clipPath4588">
      <path d="m 13.037731,82.09273 5.304392,5.304393 c 2.989229,0.420759 6.064915,1.787957 8.553096,4.276138 2.515958,2.515954 3.99807,5.65534 4.399496,8.676459 l 24.994657,24.99464 c 5.80091,5.80092 21.01205,-9.334 15.17302,-15.17303 L 46.467742,85.176682 C 43.446635,84.775254 40.307258,83.29314 37.791293,80.777186 35.303111,78.289007 33.935917,75.213314 33.515156,72.22409 L 28.210762,66.919697 13.037731,82.09273 z" id="path4590" style="fill:url(#linearGradient4592);fill-opacity:1;stroke:none" />
    </clipPath>
    <filter color-interpolation-filters="sRGB" id="filter4551">
      <feGaussianBlur id="feGaussianBlur4553" stdDeviation="0.15501048" />
    </filter>
    <linearGradient id="linearGradient4529">
      <stop id="stop4531" style="stop-color:#ffffff;stop-opacity:1" offset="0" />
      <stop id="stop4533" style="stop-color:#ffffff;stop-opacity:0" offset="1" />
    </linearGradient>
    <linearGradient x1="9.3031492" y1="133.25163" x2="-5.8540711" y2="130.59308" id="linearGradient4537" xlink:href="#linearGradient4529" gradientUnits="userSpaceOnUse" />
    <linearGradient x1="58.557281" y1="107.76735" x2="63.943447" y2="107.76735" id="linearGradient4525" xlink:href="#linearGradient2575" gradientUnits="userSpaceOnUse" gradientTransform="matrix(1.0872079,0,0,1.0872079,-71.164046,29.503688)" />
    <linearGradient id="linearGradient4509">
      <stop id="stop4511" style="stop-color:#ffe900;stop-opacity:1" offset="0" />
      <stop id="stop4513" style="stop-color:#ffe900;stop-opacity:0" offset="1" />
    </linearGradient>
    <linearGradient x1="75.585938" y1="85.083641" x2="89.453125" y2="79.224266" id="linearGradient4515" xlink:href="#linearGradient4509" gradientUnits="userSpaceOnUse" />
    <filter color-interpolation-filters="sRGB" id="filter4501">
      <feGaussianBlur id="feGaussianBlur4503" stdDeviation="0.48665741" />
    </filter>
    <linearGradient id="linearGradient4465">
      <stop id="stop4467" style="stop-color:#ffa300;stop-opacity:1" offset="0" />
      <stop id="stop4469" style="stop-color:#ffa300;stop-opacity:0" offset="1" />
    </linearGradient>
    <linearGradient x1="83.886719" y1="77.661766" x2="86.300743" y2="86.671021" id="linearGradient4471" xlink:href="#linearGradient4465" gradientUnits="userSpaceOnUse" gradientTransform="translate(-4,-4)" />
    <linearGradient id="linearGradient4434">
      <stop id="stop4436" style="stop-color:#ffffff;stop-opacity:1" offset="0" />
      <stop id="stop4438" style="stop-color:#ffffff;stop-opacity:0" offset="1" />
    </linearGradient>
    <radialGradient cx="4.7494926" cy="132.25244" r="5.3222656" fx="4.7494926" fy="132.25244" id="radialGradient4440" xlink:href="#linearGradient4434" gradientUnits="userSpaceOnUse" gradientTransform="matrix(1,0,0,0.3939752,-0.07071088,74.137847)" />
    <filter color-interpolation-filters="sRGB" id="filter4404">
      <feGaussianBlur id="feGaussianBlur4406" stdDeviation="0.15249406" />
    </filter>
    <linearGradient x1="3.5450988" y1="107.64014" x2="3.190912" y2="104.64899" id="linearGradient4342" xlink:href="#linearGradient4322" gradientUnits="userSpaceOnUse" gradientTransform="translate(1.6836694,24.213436)" />
    <linearGradient id="linearGradient4322">
      <stop id="stop4324" style="stop-color:#ffffff;stop-opacity:1" offset="0" />
      <stop id="stop4326" style="stop-color:#ffffff;stop-opacity:0" offset="1" />
    </linearGradient>
    <linearGradient x1="5.1934605" y1="103.9544" x2="5.1348171" y2="115.65614" id="linearGradient4346" xlink:href="#linearGradient4322" gradientUnits="userSpaceOnUse" gradientTransform="matrix(0.7071068,-0.7071068,0.7071068,0.7071068,-2.6879854,-4.0690534)" />
    <filter x="-0.074906364" y="-0.11235955" width="1.1498127" height="1.224719" color-interpolation-filters="sRGB" id="filter4238">
      <feGaussianBlur id="feGaussianBlur4240" stdDeviation="1.1235955" />
    </filter>
    <clipPath id="clipPath4242">
      <path d="m -4,77.788157 0,5.593496 c 1.354228,1.79792 2.255032,4.140436 2.255032,6.764228 0,2.653084 -0.873796,5.089769 -2.255032,6.894311 l 0,26.356928 c 0,6.11707 16,6.15725 16,0 L 12,97.040192 C 10.618764,95.23565 9.744972,92.798965 9.744968,90.145881 c 0,-2.623792 0.900808,-4.966308 2.255032,-6.764228 l 0,-5.593496 -16,0 z" id="path4244" style="fill:url(#linearGradient4247);fill-opacity:1;stroke:none" />
    </clipPath>
    <linearGradient x1="28" y1="57.5" x2="28" y2="0" id="linearGradient2575" gradientUnits="userSpaceOnUse">
      <stop id="stop2577" style="stop-color:#ffea00;stop-opacity:1" offset="0" />
      <stop id="stop2579" style="stop-color:#cd8000;stop-opacity:1" offset="1" />
    </linearGradient>
    <linearGradient x1="36" y1="100" x2="28" y2="100" id="linearGradient4190" xlink:href="#linearGradient2575" gradientUnits="userSpaceOnUse" gradientTransform="matrix(0.9483145,-0.9483145,0.9483145,0.9483145,-36.790528,30.877897)" spreadMethod="reflect" />
    <linearGradient id="linearGradient6511">
      <stop id="stop6513" style="stop-color:#ffffff;stop-opacity:1" offset="0" />
      <stop id="stop6515" style="stop-color:#393939;stop-opacity:1" offset="1" />
    </linearGradient>
    <linearGradient x1="38.074299" y1="4.2695875" x2="38.074299" y2="-10.42289" id="linearGradient6517" xlink:href="#linearGradient6511" gradientUnits="userSpaceOnUse" />
    <linearGradient id="linearGradient3916">
      <stop id="stop3918" style="stop-color:#d3d6d6;stop-opacity:1" offset="0" />
      <stop id="stop3921" style="stop-color:#f7f7f7;stop-opacity:1" offset="1" />
    </linearGradient>
    <linearGradient x1="34.165016" y1="4.863008" x2="34.165016" y2="-14.006344" id="linearGradient3943" xlink:href="#linearGradient3916" gradientUnits="userSpaceOnUse" />
    <linearGradient x1="38.827515" y1="104.49192" x2="36.460194" y2="17.509802" id="linearGradient6112" xlink:href="#linearGradient3904" gradientUnits="userSpaceOnUse" gradientTransform="matrix(1.1550511,0,0,1.1550511,-41.26484,21.101778)" />
    <filter x="-0.26177245" y="-0.075698018" width="1.5235449" height="1.151396" color-interpolation-filters="sRGB" id="filter3838">
      <feGaussianBlur id="feGaussianBlur3840" stdDeviation="0.41890191" />
    </filter>
    <filter x="-0.26177242" y="-0.075698018" width="1.5235448" height="1.151396" color-interpolation-filters="sRGB" id="filter3834">
      <feGaussianBlur id="feGaussianBlur3836" stdDeviation="0.41890191" />
    </filter>
    <clipPath id="clipPath3850">
      <path d="m 5.6835937,-4 c 1.083704,3.86098751 2,8 2,12 0,17.92781 8.0000003,18.507796 8.0000003,0 0,-4 0.590705,-8.44557713 2,-12 -1.648893,-7.286281 -7.454874,-20.562662 -12.0000003,0 z" id="path3852" style="fill:#b4b4b4;fill-opacity:1;stroke:none" />
    </clipPath>
    <linearGradient id="linearGradient3904">
      <stop id="stop3906" style="stop-color:#141515;stop-opacity:1" offset="0" />
      <stop id="stop3908" style="stop-color:#535557;stop-opacity:0" offset="1" />
    </linearGradient>
    <linearGradient x1="36.460194" y1="108.28275" x2="39.503891" y2="69.41713" id="linearGradient6119" xlink:href="#linearGradient3904" gradientUnits="userSpaceOnUse" gradientTransform="matrix(1.1550511,0,0,1.1550511,-40.633471,-152.2263)" />
    <linearGradient id="linearGradient3220">
      <stop id="stop3222" style="stop-color:#ffffff;stop-opacity:1" offset="0" />
      <stop id="stop3224" style="stop-color:#ffffff;stop-opacity:0" offset="1" />
    </linearGradient>
    <linearGradient x1="36.460194" y1="89.611626" x2="36.460194" y2="17.509802" id="linearGradient6122" xlink:href="#linearGradient3220" gradientUnits="userSpaceOnUse" gradientTransform="matrix(0.6737798,0,0,1.4175761,-25.92314,-147.94457)" />
    <radialGradient cx="102" cy="112.3047" r="139.55859" id="radialGradient9613" gradientUnits="userSpaceOnUse">
      <stop id="stop9615" style="stop-color:#535557;stop-opacity:1" offset="0" />
      <stop id="stop9617" style="stop-color:#898a8c;stop-opacity:1" offset="0.13804179" />
      <stop id="stop9619" style="stop-color:#ececec;stop-opacity:1" offset="0.20296688" />
      <stop id="stop9621" style="stop-color:#fafafa;stop-opacity:1" offset="0.33539036" />
      <stop id="stop9623" style="stop-color:#ffffff;stop-opacity:1" offset="0.39464113" />
      <stop id="stop9625" style="stop-color:#fafafa;stop-opacity:1" offset="0.53130001" />
      <stop id="stop9627" style="stop-color:#ebecec;stop-opacity:1" offset="0.84490001" />
      <stop id="stop9629" style="stop-color:#e1e2e3;stop-opacity:1" offset="1" />
    </radialGradient>
    <linearGradient x1="32.228344" y1="47.999996" x2="35.935673" y2="47.999996" id="linearGradient6125" xlink:href="#radialGradient9613" gradientUnits="userSpaceOnUse" gradientTransform="matrix(0.8398488,-0.8398488,0.8167445,0.8167445,-15.712841,44.354581)" spreadMethod="reflect" />
    <filter color-interpolation-filters="sRGB" id="filter4503">
      <feGaussianBlur id="feGaussianBlur4505" stdDeviation="0.43775175" />
    </filter>
    <clipPath id="clipPath4092">
      <path d="m 59.849,42.398 c -2.256,4.589 -49.132,63.861 -51.075,68.668 -4.104,10.152 7.657,22.367 17.215,13.203 6.302,-6.042 40.97,-68.158 46.14,-72.854 3.494,-3.174 22.875,-10.332 22.875,-10.332 L 80.924,18.23 c 0,0 -18.2,18.322 -21.075,24.168 z" id="path4094" style="fill:#9c0f56" />
    </clipPath>
    <linearGradient x1="11.9185" y1="119.0576" x2="98.418404" y2="44.057598" id="XMLID_3_" gradientUnits="userSpaceOnUse">
      <stop id="stop49" style="stop-color:#c9c9c9;stop-opacity:1" offset="0" />
      <stop id="stop51" style="stop-color:#b2b2b2;stop-opacity:1" offset="0.0229" />
      <stop id="stop53" style="stop-color:#9f9f9f;stop-opacity:1" offset="0.05" />
      <stop id="stop55" style="stop-color:#929292;stop-opacity:1" offset="0.0819" />
      <stop id="stop57" style="stop-color:#8a8a8a;stop-opacity:1" offset="0.1225" />
      <stop id="stop59" style="stop-color:#888888;stop-opacity:1" offset="0.20119999" />
      <stop id="stop63" style="stop-color:#686868;stop-opacity:1" offset="1" />
    </linearGradient>
    <linearGradient x1="31.4995" y1="80.0439" x2="32.347698" y2="80.671898" id="XMLID_11_" gradientUnits="userSpaceOnUse" gradientTransform="translate(229.83849,405.96228)">
      <stop id="stop183" style="stop-color:#000000;stop-opacity:1" offset="0" />
      <stop id="stop185" style="stop-color:#000000;stop-opacity:0" offset="1" />
    </linearGradient>
    <linearGradient x1="23.9844" y1="120.7646" x2="12.7283" y2="109.8655" id="XMLID_10_" gradientUnits="userSpaceOnUse" gradientTransform="translate(229.83849,405.96228)">
      <stop id="stop176" style="stop-color:#eeeeee;stop-opacity:1" offset="0" />
      <stop id="stop178" style="stop-color:#535353;stop-opacity:1" offset="1" />
    </linearGradient>
    <linearGradient x1="18.776899" y1="129.5986" x2="18.776899" y2="114.6055" id="XMLID_9_" gradientUnits="userSpaceOnUse" gradientTransform="translate(229.83849,405.96228)">
      <stop id="stop169" style="stop-color:#000000;stop-opacity:1" offset="0" />
      <stop id="stop171" style="stop-color:#000000;stop-opacity:0" offset="1" />
    </linearGradient>
    <radialGradient cx="64.988297" cy="15.9429" r="19.6182" id="XMLID_8_" gradientUnits="userSpaceOnUse" gradientTransform="translate(229.83849,405.96228)">
      <stop id="stop162" style="stop-color:#ffffff;stop-opacity:1" offset="0" />
      <stop id="stop164" style="stop-color:#888a85;stop-opacity:1" offset="1" />
    </radialGradient>
    <linearGradient x1="40.711899" y1="75.171898" x2="48.5495" y2="80.899803" id="XMLID_7_" gradientUnits="userSpaceOnUse" gradientTransform="translate(229.83849,405.96228)">
      <stop id="stop155" style="stop-color:#555753;stop-opacity:1" offset="0.213" />
      <stop id="stop157" style="stop-color:#000000;stop-opacity:1" offset="1" />
    </linearGradient>
    <linearGradient x1="16.7803" y1="80.697304" x2="67.723602" y2="80.697304" id="path30758_1_" gradientUnits="userSpaceOnUse" gradientTransform="translate(229.83849,405.96228)">
      <stop id="stop149" style="stop-color:#888888;stop-opacity:1" offset="0" />
      <stop id="stop151" style="stop-color:#dddddd;stop-opacity:1" offset="0.89349997" />
    </linearGradient>
    <linearGradient x1="93.023399" y1="39.3867" x2="93.023399" y2="25.928699" id="path34280_1_" gradientUnits="userSpaceOnUse" gradientTransform="translate(229.83849,405.96228)">
      <stop id="stop141" style="stop-color:#555555;stop-opacity:1" offset="0" />
      <stop id="stop143" style="stop-color:#888888;stop-opacity:1" offset="0.39649999" />
      <stop id="stop145" style="stop-color:#555555;stop-opacity:1" offset="1" />
    </linearGradient>
    <linearGradient x1="247.60249" y1="-288.60791" x2="261.97269" y2="-288.60791" id="rect22846_1_" gradientUnits="userSpaceOnUse" gradientTransform="matrix(0.9428,-0.2511,-0.2421,-0.9089,6.0921912,215.38258)">
      <stop id="stop135" style="stop-color:#888888;stop-opacity:1" offset="0" />
      <stop id="stop137" style="stop-color:#555555;stop-opacity:1" offset="1" />
    </linearGradient>
    <radialGradient cx="274.56641" cy="36.065399" r="6.8733001" id="rect14944_1_" gradientUnits="userSpaceOnUse" gradientTransform="matrix(0.523,-0.2146,-2.627,-7.0521,27.4228,356.0237)">
      <stop id="stop127" style="stop-color:#888a85;stop-opacity:1" offset="0" />
      <stop id="stop129" style="stop-color:#ffffff;stop-opacity:1" offset="0.62129998" />
      <stop id="stop131" style="stop-color:#555753;stop-opacity:1" offset="1" />
    </radialGradient>
    <radialGradient cx="290.8428" cy="36.069801" r="6.8736" id="rect14938_1_" gradientUnits="userSpaceOnUse" gradientTransform="matrix(0.4892,-0.2059,-2.5913,-7.0931,29.692,361.6149)">
      <stop id="stop119" style="stop-color:#888a85;stop-opacity:1" offset="0" />
      <stop id="stop121" style="stop-color:#ffffff;stop-opacity:1" offset="0.62129998" />
      <stop id="stop123" style="stop-color:#555753;stop-opacity:1" offset="1" />
    </radialGradient>
    <radialGradient cx="292.49219" cy="43.388699" r="6.8727999" id="rect10553_1_" gradientUnits="userSpaceOnUse" gradientTransform="matrix(0.498,-0.2212,-2.9368,-8.3284,56.2613,466.2682)">
      <stop id="stop111" style="stop-color:#888a85;stop-opacity:1" offset="0" />
      <stop id="stop113" style="stop-color:#ffffff;stop-opacity:1" offset="0.62129998" />
      <stop id="stop115" style="stop-color:#555753;stop-opacity:1" offset="1" />
    </radialGradient>
    <radialGradient cx="92.734398" cy="20.4307" r="4.1451998" id="rect14950_1_" gradientUnits="userSpaceOnUse" gradientTransform="matrix(0.6131,-0.2916,-5.2659,-7.9645,125.0096,227.992)">
      <stop id="stop103" style="stop-color:#ffffff;stop-opacity:1" offset="0" />
      <stop id="stop105" style="stop-color:#babdb6;stop-opacity:1" offset="0.5266" />
      <stop id="stop107" style="stop-color:#888a85;stop-opacity:1" offset="1" />
    </radialGradient>
    <radialGradient cx="78.776398" cy="44.608398" r="14.3205" id="rect10551_3_" gradientUnits="userSpaceOnUse">
      <stop id="stop95" style="stop-color:#2e3436;stop-opacity:1" offset="0" />
      <stop id="stop97" style="stop-color:#000000;stop-opacity:1" offset="0.72189999" />
      <stop id="stop99" style="stop-color:#2e3436;stop-opacity:1" offset="1" />
    </radialGradient>
    <linearGradient x1="77.216797" y1="44.765598" x2="73.449203" y2="30.555201" id="rect10551_1_" gradientUnits="userSpaceOnUse">
      <stop id="stop89" style="stop-color:#dddddd;stop-opacity:1" offset="0.72189999" />
      <stop id="stop91" style="stop-color:#eeeeec;stop-opacity:1" offset="1" />
    </linearGradient>
    <radialGradient cx="77.004028" cy="13.140214" r="64.405701" fx="77.004028" fy="13.140214" id="XMLID_6_" gradientUnits="userSpaceOnUse" gradientTransform="translate(229.83849,405.96228)">
      <stop id="stop82" style="stop-color:#ffffff;stop-opacity:1" offset="0" />
      <stop id="stop13256" style="stop-color:#c3c4c2;stop-opacity:1" offset="0.5" />
      <stop id="stop84" style="stop-color:#000000;stop-opacity:1" offset="1" />
    </radialGradient>
    <linearGradient x1="15.7207" y1="125.7861" x2="24.9356" y2="108.3428" id="XMLID_5_" gradientUnits="userSpaceOnUse" gradientTransform="translate(-80,0)">
      <stop id="stop75" style="stop-color:#000000;stop-opacity:1" offset="0" />
      <stop id="stop77" style="stop-color:#ffffff;stop-opacity:1" offset="0.89349997" />
    </linearGradient>
    <linearGradient x1="40.527802" y1="55.75" x2="52.981899" y2="64.646004" id="XMLID_4_" gradientUnits="userSpaceOnUse" gradientTransform="translate(-80,0)">
      <stop id="stop68" style="stop-color:#ffffff;stop-opacity:0" offset="0" />
      <stop id="stop70" style="stop-color:#ffffff;stop-opacity:1" offset="0.89349997" />
    </linearGradient>
    <linearGradient x1="14.9214" y1="124.6768" x2="107.7549" y2="-17.989599" id="path2388_1_" gradientUnits="userSpaceOnUse" gradientTransform="translate(229.83849,405.96228)">
      <stop id="stop32" style="stop-color:#dddddd;stop-opacity:1" offset="0" />
      <stop id="stop34" style="stop-color:#888888;stop-opacity:1" offset="0.6864" />
      <stop id="stop36" style="stop-color:#dddddd;stop-opacity:1" offset="0.89349997" />
    </linearGradient>
    <radialGradient cx="172.123" cy="4.7476001" r="4.6967001" id="path5936_1_" gradientUnits="userSpaceOnUse" gradientTransform="matrix(6.7917,-1.4855,-1.2014,-5.506,-845.12621,725.19548)">
      <stop id="stop26" style="stop-color:#ffffff;stop-opacity:1" offset="0" />
      <stop id="stop28" style="stop-color:#3e3e3e;stop-opacity:1" offset="1" />
    </radialGradient>
    <linearGradient x1="92.627899" y1="26.589399" x2="104.5325" y2="31.2349" id="XMLID_1_" gradientUnits="userSpaceOnUse" gradientTransform="translate(229.83849,405.96228)">
      <stop id="stop19" style="stop-color:#ffffff;stop-opacity:1" offset="0" />
      <stop id="stop21" style="stop-color:#888888;stop-opacity:1" offset="0.63910002" />
    </linearGradient>
    <linearGradient x1="258.88379" y1="-326.0903" x2="286.16019" y2="-287.6532" id="rect25493_1_" gradientUnits="userSpaceOnUse" gradientTransform="matrix(0.9065,-0.2414,-0.2421,-0.9089,10.723991,214.40698)">
      <stop id="stop5" style="stop-color:#555555;stop-opacity:1" offset="0" />
      <stop id="stop7" style="stop-color:#888888;stop-opacity:1" offset="0.6864" />
    </linearGradient>
    <linearGradient x1="15.7207" y1="125.7861" x2="24.9356" y2="108.3428" id="linearGradient10549" xlink:href="#XMLID_5_" gradientUnits="userSpaceOnUse" gradientTransform="translate(-80,0)" />
    <mask id="mask10545">
      <path d="M -0.051,18.554 -0.847,9.66 c 0,0 8.988,-5.178 11.227,-6.467 C 3.985,-0.79 -3.654,1.07 -3.741,1.093 c -7.162,1.903 -12.167,7.772 -12.167,14.129 0,0.239 0.007,0.479 0.021,0.718 0,0.001 0,0.001 0,0.002 0,0.357 -0.363,20.788 -3.366,26.896 -1.081,2.198 -11.148,15.342 -22.805,30.562 -12.137,15.847 -27.242,35.568 -28.24,38.04 -0.541,1.338 -0.781,2.686 -0.781,3.995 0,3.786 2.019,7.228 4.596,9.186 0.4,-0.701 0.828,-1.443 1.286,-2.229 -1.823,-1.291 -3.266,-3.318 -3.698,-5.609 -0.396,-2.096 0.064,-4.303 1.264,-6.057 1.171,-1.713 2.972,-2.871 5.07,-3.263 1.626,-0.303 3.379,0.13 4.94,1.219 0.193,0.135 0.376,0.284 0.558,0.436 10.748,-16.885 29.125,-43.768 60.258,-85.294 -1.872,-3.04 -3.246,-5.27 -3.246,-5.27 z" id="path10547" style="fill:url(#linearGradient10549)" />
    </mask>
    <linearGradient x1="258.88379" y1="-326.0903" x2="286.16019" y2="-287.6532" id="linearGradient11382" xlink:href="#rect25493_1_" gradientUnits="userSpaceOnUse" gradientTransform="matrix(0.9065,-0.2414,-0.2421,-0.9089,10.723991,214.40698)" />
    <linearGradient x1="92.627899" y1="26.589399" x2="104.5325" y2="31.2349" id="linearGradient11384" xlink:href="#XMLID_1_" gradientUnits="userSpaceOnUse" gradientTransform="translate(229.83849,405.96228)" />
    <radialGradient cx="172.123" cy="4.7476001" r="4.6967001" id="radialGradient11386" xlink:href="#path5936_1_" gradientUnits="userSpaceOnUse" gradientTransform="matrix(6.7917,-1.4855,-1.2014,-5.506,-845.12621,725.19548)" />
    <linearGradient x1="14.9214" y1="124.6768" x2="107.7549" y2="-17.989599" id="linearGradient11388" xlink:href="#path2388_1_" gradientUnits="userSpaceOnUse" gradientTransform="translate(229.83849,405.96228)" />
    <linearGradient x1="77.040016" y1="14.124305" x2="92.612343" y2="4.8821697" id="linearGradient11390" xlink:href="#XMLID_4_" gradientUnits="userSpaceOnUse" gradientTransform="translate(229.83849,405.96228)" />
    <linearGradient x1="40.527802" y1="55.75" x2="52.981899" y2="64.646004" id="linearGradient11392" xlink:href="#XMLID_4_" gradientUnits="userSpaceOnUse" gradientTransform="translate(-80,0)" />
    <radialGradient cx="77.004028" cy="13.140214" r="64.405701" fx="77.004028" fy="13.140214" id="radialGradient11394" xlink:href="#XMLID_6_" gradientUnits="userSpaceOnUse" gradientTransform="matrix(0.4337031,0.4442839,-0.7150071,0.6987259,282.84098,375.70944)" />
    <linearGradient x1="77.216797" y1="44.765598" x2="73.449203" y2="30.555201" id="linearGradient11396" xlink:href="#rect10551_1_" gradientUnits="userSpaceOnUse" />
    <radialGradient cx="78.776398" cy="44.608398" r="14.3205" id="radialGradient11398" xlink:href="#rect10551_3_" gradientUnits="userSpaceOnUse" />
    <radialGradient cx="92.734398" cy="20.4307" r="4.1451998" id="radialGradient11400" xlink:href="#rect14950_1_" gradientUnits="userSpaceOnUse" gradientTransform="matrix(0.6131,-0.2916,-5.2659,-7.9645,125.0096,227.992)" />
    <radialGradient cx="292.49219" cy="43.388699" r="6.8727999" id="radialGradient11402" xlink:href="#rect10553_1_" gradientUnits="userSpaceOnUse" gradientTransform="matrix(0.498,-0.2212,-2.9368,-8.3284,56.2613,466.2682)" />
    <radialGradient cx="290.8428" cy="36.069801" r="6.8736" id="radialGradient11404" xlink:href="#rect14938_1_" gradientUnits="userSpaceOnUse" gradientTransform="matrix(0.4892,-0.2059,-2.5913,-7.0931,29.692,361.6149)" />
    <radialGradient cx="274.56641" cy="36.065399" r="6.8733001" id="radialGradient11406" xlink:href="#rect14944_1_" gradientUnits="userSpaceOnUse" gradientTransform="matrix(0.523,-0.2146,-2.627,-7.0521,27.4228,356.0237)" />
    <linearGradient x1="247.60249" y1="-288.60791" x2="261.97269" y2="-288.60791" id="linearGradient11408" xlink:href="#rect22846_1_" gradientUnits="userSpaceOnUse" gradientTransform="matrix(0.9428,-0.2511,-0.2421,-0.9089,6.0921912,215.38258)" />
    <linearGradient x1="93.023399" y1="39.3867" x2="93.023399" y2="25.928699" id="linearGradient11410" xlink:href="#path34280_1_" gradientUnits="userSpaceOnUse" gradientTransform="translate(229.83849,405.96228)" />
    <linearGradient x1="16.7803" y1="80.697304" x2="67.723602" y2="80.697304" id="linearGradient11412" xlink:href="#path30758_1_" gradientUnits="userSpaceOnUse" gradientTransform="translate(229.83849,405.96228)" />
    <linearGradient x1="40.711899" y1="75.171898" x2="48.5495" y2="80.899803" id="linearGradient11414" xlink:href="#XMLID_7_" gradientUnits="userSpaceOnUse" gradientTransform="translate(229.83849,405.96228)" />
    <radialGradient cx="64.988297" cy="15.9429" r="19.6182" id="radialGradient11416" xlink:href="#XMLID_8_" gradientUnits="userSpaceOnUse" gradientTransform="translate(229.83849,405.96228)" />
    <linearGradient x1="18.776899" y1="129.5986" x2="18.776899" y2="114.6055" id="linearGradient11418" xlink:href="#XMLID_9_" gradientUnits="userSpaceOnUse" gradientTransform="translate(229.83849,405.96228)" />
    <linearGradient x1="17.509325" y1="123.23078" x2="18.875885" y2="107.20945" id="linearGradient11420" xlink:href="#XMLID_10_" gradientUnits="userSpaceOnUse" gradientTransform="translate(229.83849,405.96228)" />
    <linearGradient x1="31.4995" y1="80.0439" x2="32.347698" y2="80.671898" id="linearGradient11422" xlink:href="#XMLID_11_" gradientUnits="userSpaceOnUse" gradientTransform="translate(229.83849,405.96228)" />
    <linearGradient x1="11.9185" y1="119.0576" x2="98.418404" y2="44.057598" id="linearGradient11424" xlink:href="#XMLID_3_" gradientUnits="userSpaceOnUse" />
    <linearGradient x1="9.3031492" y1="133.25163" x2="-5.8540711" y2="130.59308" id="linearGradient11510" xlink:href="#linearGradient4529" gradientUnits="userSpaceOnUse" />
    <linearGradient x1="9.3031492" y1="133.25163" x2="-5.8540711" y2="130.59308" id="linearGradient11512" xlink:href="#linearGradient4529" gradientUnits="userSpaceOnUse" />
    <filter color-interpolation-filters="sRGB" id="filter11957">
      <feGaussianBlur id="feGaussianBlur11959" stdDeviation="2.339831" />
    </filter>
    <linearGradient x1="40.527802" y1="55.75" x2="52.981899" y2="64.646004" id="linearGradient12019" xlink:href="#XMLID_4_" gradientUnits="userSpaceOnUse" gradientTransform="translate(-80,0)" />
    <linearGradient x1="93.023399" y1="39.3867" x2="93.023399" y2="25.928699" id="linearGradient12037" xlink:href="#path34280_1_" gradientUnits="userSpaceOnUse" gradientTransform="translate(229.83849,405.96228)" />
    <linearGradient x1="11.9185" y1="119.0576" x2="98.418404" y2="44.057598" id="linearGradient12051" xlink:href="#XMLID_3_" gradientUnits="userSpaceOnUse" />
    <filter color-interpolation-filters="sRGB" id="filter12490">
      <feGaussianBlur id="feGaussianBlur12492" stdDeviation="2.3509538" />
    </filter>
  </defs>
  <g id="layer1">
    <path d="M 97.46875,6 C 97.18152,6.0094408 97.00831,6.0304757 97,6.03125 88.50154,6.7547259 81.81102,12.649899 80.96875,19.9375 c -0.0058,0.0327 -4.10121,20.919808 -8.09375,26.375 -3.13323,4.282372 -61.74124,56.4072 -64.59375,60.96875 -1.8465,2.9525 -2.18929,6.36629 -1.46875,9.46875 0.00231,0.01 -0.00234,0.0213 0,0.0312 0.46567,1.98493 1.35275,3.826 2.59375,5.34375 0.06529,0.0803 0.15161,0.14031 0.21875,0.21875 0.11346,0.13191 0.22517,0.27998 0.34375,0.40625 0.16248,0.1734 0.32821,0.33786 0.5,0.5 0.31656,0.29834 0.65378,0.58716 1,0.84375 0.04134,0.0307 0.08326,0.0637 0.125,0.0937 0.16202,0.11637 0.33206,0.20595 0.5,0.3125 0.25526,0.16192 0.51301,0.33089 0.78125,0.46875 0.02963,0.0152 0.06397,0.0163 0.09375,0.0312 0.19514,0.0978 0.39224,0.19684 0.59375,0.28125 0.10406,0.0433 0.20682,0.0854 0.3125,0.125 0.08558,0.0322 0.16338,0.064 0.25,0.0937 0.14255,0.0489 0.29222,0.083 0.4375,0.125 0.55032,0.15908 1.13277,0.29034 1.71875,0.34375 0.3446,0.0307 0.70719,0.0401 1.0625,0.0312 0.14901,-0.004 0.28675,-0.0203 0.4375,-0.0312 0.52593,-0.0376 1.04898,-0.11998 1.59375,-0.25 0.12273,-0.029 0.25142,-0.0598 0.375,-0.0937 0.19658,-0.0543 0.39518,-0.12052 0.59375,-0.1875 0.34599,-0.11634 0.67986,-0.25007 1.03125,-0.40625 0.14137,-0.0629 0.29536,-0.11798 0.4375,-0.1875 0.20411,-0.10011 0.41945,-0.19842 0.625,-0.3125 0.07126,-0.0396 0.14734,-0.0837 0.21875,-0.125 0.28026,-0.16214 0.5613,-0.34232 0.84375,-0.53125 0.22992,-0.15361 0.51123,-0.37612 0.8125,-0.625 0.20465,-0.16947 0.45224,-0.38341 0.6875,-0.59375 0.31217,-0.27984 0.73134,-0.6843 1.09375,-1.03125 0.31121,-0.29791 0.65385,-0.62413 1,-0.96875 0.0072,-0.0123 0.0241,-0.0189 0.03125,-0.0312 13.27109,-13.22628 51.1946,-59.411358 56.6875,-62.875 4.14396,-2.613348 25.25,-6.4375 25.25,-6.4375 4.15675,-1.89677 9.84256,-7.866862 12.25,-16.875 0.41619,-2.360366 0.1686,-4.840578 0.0625,-4.40625 l -12.78125,5.75 -8.375,-6.71875 -1.4375,-3.65625 0.5,-6.1875 14.0625,-5.25 -0.21875,-1.8125 C 107.67312,6.0868239 99.47934,5.9339145 97.46875,6 z M 17.8125,106.1875 c 3.4347,-0.0318 6.58846,3.70846 6.5625,7.96875 -0.0215,3.52357 -3.43927,7.0309 -6.875,7.0625 -3.43592,0.0326 -6.76482,-3.82091 -6.8125,-7.6875 -0.0029,-0.23229 -0.01928,-0.48842 0,-0.71875 0.01932,-0.23027 0.05297,-0.46083 0.09375,-0.6875 0.12224,-0.68017 0.35279,-1.31958 0.65625,-1.9375 0.10117,-0.20595 0.19253,-0.39802 0.3125,-0.59375 1.19961,-1.9575 3.34816,-3.38046 6.0625,-3.40625 z" id="path11963" style="opacity:0.8;fill:#000000;fill-opacity:1;filter:url(#filter12490)" />
    <g transform="matrix(1.0223499,0.1802679,-0.1801715,1.0218034,-142.50883,-466.04399)" id="g11357">
      <path d="m 322.52649,444.25728 c 3.633,-1.243 9.832,-9.806 10.455,-19.473 0.028,-0.43 0.675,1.894 0.675,4.204 -0.777,8.953 -5.186,15.562 -8.812,18.058 l -2.318,-2.789 z" id="rect25493" style="fill:url(#linearGradient11382)" />
      <path d="m 332.98149,424.78428 -11.153,7.604 -9.08,-4.972 c -0.667,1.468 3.206,20.564 7.479,19.546 7.821,-1.864 11.936,-11.177 12.754,-22.178 z" id="path3285" style="fill:#888a85" />
      <path d="m 322.07549,432.68428 0.994,8.694 1.908,3.212 c 1.937,-1.556 3.517,-3.714 4.751,-6.306 1.608,-3.65 2.575,-8.07 2.928,-12.812 l -10.581,7.212 z" id="path23" style="fill:url(#linearGradient11384)" />
      <path d="m 313.59749,428.19228 c -0.003,0.005 -0.02,0.027 -0.021,0.034 -0.005,0.013 -0.012,0.046 -0.016,0.062 -0.514,2.079 2.445,19.869 6.634,18.871 0.926,-0.221 1.815,-0.55 2.638,-0.97 l -2.252,-14.243 -6.983,-3.754 z" id="path5936" style="opacity:0.51380005;fill:url(#radialGradient11386)" />
      <path d="m 305.84149,406.08928 c -7.941,2.109 -13.308,8.816 -12.888,15.874 0,0.032 -0.391,20.551 -3.266,26.397 -2.256,4.589 -49.132,63.861 -51.075,68.668 -4.104,10.152 7.657,22.367 17.215,13.203 6.302,-6.042 40.97,-68.158 46.14,-72.854 3.494,-3.174 22.875,-10.332 22.875,-10.332 l -14.08,-22.853 -0.718,-8.022 12.115,-6.979 c -7.071,-5.541 -16.256,-3.119 -16.318,-3.102 z m -58.381,108.32 c 3.253,-0.605 6.877,2.415 7.565,6.463 0.569,3.348 -2.092,7.258 -5.346,7.863 -3.254,0.606 -7.062,-2.514 -7.754,-6.176 -0.664,-3.519 1.423,-7.383 5.535,-8.15 z" id="path2388" style="fill:url(#linearGradient11388)" />
      <path d="M -0.051,18.554 -0.847,9.66 c 0,0 8.988,-5.178 11.227,-6.467 C 3.985,-0.79 -3.654,1.07 -3.741,1.093 c -7.162,1.903 -12.167,7.772 -12.167,14.129 0,0.239 0.007,0.479 0.021,0.718 0,0.001 0,0.001 0,0.002 0,0.357 -0.363,20.788 -3.366,26.896 -1.081,2.198 -11.148,15.342 -22.805,30.562 -12.137,15.847 -27.242,35.568 -28.24,38.04 -0.541,1.338 -0.781,2.686 -0.781,3.995 0,3.786 2.019,7.228 4.596,9.186 0.4,-0.701 0.828,-1.443 1.286,-2.229 -1.823,-1.291 -3.266,-3.318 -3.698,-5.609 -0.396,-2.096 0.064,-4.303 1.264,-6.057 1.171,-1.713 2.972,-2.871 5.07,-3.263 1.626,-0.303 3.379,0.13 4.94,1.219 0.193,0.135 0.376,0.284 0.558,0.436 10.748,-16.885 29.125,-43.768 60.258,-85.294 -1.872,-3.04 -3.246,-5.27 -3.246,-5.27 z" transform="translate(309.83849,405.96228)" mask="url(#mask10545)" id="path72" style="fill:url(#linearGradient11392)" />
      <path d="m 310.76249,424.19228 -0.718,-8.022 12.115,-6.979 c -1.94,-1.551 -4.315,-2.675 -6.924,-3.262 -3.189,-0.021 -6.442,0.455 -8.758,1.236 -7.736,2.609 -11.779,8.33 -11.626,15.146 l 8.781,14.84 2.685,-1.679 6.25,10.825 -2.191,1.504 3.362,3.627 11.104,-4.382 -14.08,-22.854 z" id="path86" style="fill:url(#radialGradient11394)" />
      <polygon points="76.487,27.791 85.179,40.128 72.511,46.783 65.82,36.446 65.82,36.446 " transform="translate(229.83849,405.96228)" id="rect10551_2_" style="fill:url(#linearGradient11396)" />
      <polygon points="76.487,29.791 83.179,40.128 72.511,46.783 65.82,36.446 65.82,36.446 " transform="translate(229.83849,405.96228)" id="rect10551" style="fill:url(#radialGradient11398)" />
      <polygon points="74.616,32.078 80.237,40.809 73.932,44.384 68.311,35.653 68.311,35.653 " transform="translate(229.83849,405.96228)" id="rect14950" style="fill:url(#radialGradient11400)" />
      <polygon points="77.497,32.233 77.891,33.323 68.284,37.705 67.891,36.615 67.891,36.615 " transform="translate(229.83849,405.96228)" id="rect10553" style="fill:url(#radialGradient11402)" />
      <polygon points="81.653,38.899 82.001,39.827 72.56,43.9 72.212,42.972 72.212,42.972 " transform="translate(229.83849,405.96228)" id="rect14938" style="fill:url(#radialGradient11404)" />
      <polygon points="79.757,35.751 80.11,36.673 70.015,40.914 69.661,39.991 69.661,39.991 " transform="translate(229.83849,405.96228)" id="rect14944" style="fill:url(#radialGradient11406)" />
      <path d="m 320.80249,431.89128 c -0.041,0.27 1.298,8.028 1.379,8.298 0.673,4.268 1.65,4.406 1.854,5.16 0.728,-0.414 0.257,0.046 0.888,-0.503 -0.115,-0.366 -1.438,-2.851 -1.965,-3.735 -0.246,-2.134 -1.027,-8.108 -1.094,-8.676 -0.409,-0.222 -0.566,-0.31 -1.062,-0.544 z" id="path34280" style="fill:url(#linearGradient11410)" />
      <path d="m 246.62049,511.92528 c 4.809,-1.901 11.262,3.379 10.918,9.185 3.286,-3.8 39.346,-60.775 39.908,-63.366 0.86,-3.967 -3.267,-6.922 -6.548,-4.857 -2.289,1.439 -44.591,59.161 -44.278,59.038 z" id="path30758" style="fill:url(#linearGradient11412)" />
      <path d="m 292.02849,454.56028 c -2.496,2.358 -25.174,33.046 -41.366,55.219 1.359,0.303 2.717,0.891 3.975,1.802 1.742,1.261 3.031,2.933 3.871,4.753 8.766,-12.91 35.559,-55.531 36.993,-59.088 0.036,-0.188 0.061,-0.375 0.061,-0.556 0,-0.832 -0.373,-1.572 -1.058,-2.052 -0.761,-0.533 -1.679,-0.549 -2.476,-0.078 z" id="path159" style="fill:url(#linearGradient11414);stroke:#000000" />
      <path d="m 294.94349,422.46628 c -0.075,3.201 -0.627,21.014 -3.461,26.777 -0.076,0.154 -0.198,0.365 -0.346,0.606 0.424,-0.582 0.729,-1.031 0.878,-1.307 2.743,-5.062 5.541,-18.059 5.75,-21.308 l -2.821,-4.768 z" id="path166" style="fill:url(#radialGradient11416)" />
      <path d="m 258.69149,526.59428 c 0.558,-1.508 0.762,-3.101 0.484,-4.62 -0.576,-3.155 -2.558,-6.101 -5.301,-7.884 -2.179,-1.416 -4.631,-1.979 -6.904,-1.585 -2.932,0.51 -5.448,2.017 -7.085,4.244 -1.434,1.951 -2.105,4.336 -1.925,6.691 1.371,7.906 10.305,14.042 17.868,6.791 0.662,-0.634 1.641,-1.895 2.863,-3.637 z m -9.012,2.141 c -3.254,0.606 -7.062,-2.514 -7.754,-6.176 -0.665,-3.52 1.422,-7.384 5.535,-8.15 3.253,-0.605 6.877,2.415 7.565,6.463 0.569,3.348 -2.092,7.258 -5.346,7.863 z" id="path173" style="opacity:0.5;fill:url(#linearGradient11418)" />
      <path d="m 256.01149,520.70428 c -0.412,-2.425 -1.83,-4.689 -3.793,-6.06 -1.56,-1.089 -3.314,-1.521 -4.94,-1.219 -2.098,0.392 -3.898,1.55 -5.07,3.263 -1.199,1.753 -1.66,3.961 -1.264,6.057 0.81,4.288 5.144,7.677 8.919,6.974 3.757,-0.699 6.803,-5.164 6.148,-9.015 z m -6.332,8.031 c -3.254,0.606 -7.062,-2.514 -7.754,-6.176 -0.665,-3.52 1.422,-7.384 5.535,-8.15 3.253,-0.605 6.877,2.415 7.565,6.463 0.569,3.348 -2.092,7.258 -5.346,7.863 z" id="path180" style="fill:url(#linearGradient11420)" />
      <path d="m 285.39049,455.48028 c 0.255,-0.522 0.49,-1.17 0.705,-1.913 -11.448,15.598 -45.824,59.359 -47.482,63.461 -0.323,0.799 -0.537,1.609 -0.672,2.423 5.026,-8.347 45.423,-59.823 47.449,-63.971 z" id="path187" style="opacity:0.4;fill:url(#linearGradient11422)" />
      <path d="m 72.13,49.416 c -5.17,4.696 -39.838,66.812 -46.14,72.854 -7.9,7.574 -17.295,0.543 -18.004,-7.856 -0.779,9.204 9.482,18.026 18.004,9.856 6.302,-6.042 40.97,-68.158 46.14,-72.854 3.494,-3.174 22.875,-10.332 22.875,-10.332 l -1.001,-1.625 c -3.999,1.506 -18.857,7.215 -21.874,9.957 z" transform="translate(229.83849,405.96228)" clip-path="url(#clipPath4092)" id="path65" style="fill:url(#linearGradient11424);filter:url(#filter4503)" />
      <path d="m 310.04449,416.17028 12.115,-6.979 0.518,1.694 -12.544,7.382 -0.089,-2.097 z" id="rect22846" style="fill:url(#linearGradient11408)" />
      <path d="m 310.21449,416.07228 11.945,-6.881 c -0.52,-0.407 -1.052,-0.759 -1.59,-1.084 l -10.525,6.063 0.17,1.902 z" id="path46" style="fill:url(#linearGradient11390);fill-opacity:1" />
    </g>
    <path d="M 10.375,9 4.21875,15.46875 9.125,23.1875 c 3.95503,2.077368 8.01686,4.506049 11.25,7.5625 l 49.25,46.5625 -4.0625,4.25 5.25,4.96875 c 2.8978,0.328654 5.88134,1.547159 8.34375,3.875 2.48989,2.353821 4.0098,5.326029 4.46875,8.21875 l 24.71875,23.40625 c 5.74081,5.42711 20.09104,-9.50599 14.3125,-14.96875 l -24.75,-23.375 C 94.97813,83.378226 91.9274,82.010074 89.4375,79.65625 86.9751,77.328414 85.57063,74.424084 85.09375,71.5625 l -5.25,-4.96875 -4.0625,4.25 -49.25,-46.5625 C 23.29811,21.224799 20.16307,17.382339 18.375,13.53125 L 10.375,9 z" id="path11428" style="opacity:0.8;fill:#000000;fill-opacity:1;stroke:none;filter:url(#filter11957)" />
    <g transform="matrix(0.9660937,-0.02530234,0.02354685,0.9608617,2.3338765,6.1294086)" id="g10397">
      <path d="m 1.750754,7.673054 4.900467,8.167445 c 4.03855,2.268331 8.167445,4.900467 11.434423,8.167445 l 85.215806,85.215806 6.53396,-6.53396 L 24.6196,17.473988 C 21.352622,14.20701 18.204176,10.093654 16.452155,6.039565 L 8.28471,1.139098 1.750754,7.673054 z" id="rect3006" style="fill:url(#linearGradient6125);fill-opacity:1;stroke:none" />
      <rect width="1.1166428" height="98.671562" x="-1.357038" y="-123.11634" transform="matrix(0.7071068,-0.7071068,-0.7071068,-0.7071068,0,0)" id="rect3912" style="fill:url(#linearGradient6122);fill-opacity:1;stroke:none" />
      <rect width="1.6020314" height="63.508739" x="0.89394951" y="-85.707031" transform="matrix(-0.7071068,0.7071068,-0.7071068,-0.7071068,0,0)" id="rect4944" style="opacity:0.3857678;fill:url(#linearGradient6119);fill-opacity:1;stroke:none" />
      <g transform="matrix(0.8167445,-0.8167445,0.8167445,0.8167445,5.2761549,23.749521)" clip-path="url(#clipPath3850)" id="g3842">
        <path d="m 4.296875,-4.12891 1.3671875,0 c 2.6562464,3.81510552 2.934673,7.9698996 1.953125,12.30469 L 4.9804688,9.1523436 4.296875,-4.12891 z" id="path3726" style="fill:#535557;fill-opacity:1;fill-rule:evenodd;stroke:none;filter:url(#filter3834)" />
        <path d="m 18.977324,-4.12891 -1.367187,0 C 14.95389,-0.31380448 14.675464,3.8409896 15.657012,8.17578 L 18.293731,9.1523436 18.977324,-4.12891 z" id="path3728" style="fill:#535557;fill-opacity:1;fill-rule:evenodd;stroke:none;filter:url(#filter3838)" />
        <path d="m 18.977324,-4.12891 -0.745706,0.069053 c -2.11381,2.7319133 -2.488332,3.0000694 -2.367446,8.990127 L 18.293731,9.1523436 18.977324,-4.12891 z" id="path3969" style="fill:#000000;fill-opacity:1;fill-rule:evenodd;stroke:none;filter:url(#filter3838)" />
      </g>
      <rect width="1.9142449" height="109.04897" x="0.84851468" y="41.331993" transform="matrix(0.7071068,-0.7071068,0.7071068,0.7071068,0,0)" id="rect3886" style="fill:url(#linearGradient6112);fill-opacity:1;stroke:none" />
      <path d="m 32,-12 -2,8 c 4.143852,12.2009511 8.115959,9.0342786 12,0 l -2,-8 -8,0 z" transform="matrix(0.8167445,-0.8167445,0.8167445,0.8167445,-14.584136,43.609812)" id="path3925" style="fill:url(#linearGradient3943);fill-opacity:1;stroke:url(#linearGradient6517);stroke-width:0.37;stroke-linecap:round;stroke-linejoin:round;stroke-miterlimit:4;stroke-opacity:1;stroke-dasharray:none;stroke-dashoffset:1.08779998" />
      <path d="m 63.529919,78.09273 5.304392,5.304393 c 2.989229,0.420759 6.064915,1.787957 8.553096,4.276138 2.515958,2.515954 3.99807,5.65534 4.399496,8.676459 l 24.994657,24.99464 c 5.80091,5.80092 21.01205,-9.334 15.17302,-15.17303 L 96.95993,81.176682 C 93.938823,80.775254 90.799446,79.29314 88.283481,76.777186 85.795299,74.289007 84.428105,71.213314 84.007344,68.22409 L 78.70295,62.919697 63.529919,78.09273 z" id="rect3956" style="fill:url(#linearGradient4190);fill-opacity:1;stroke:none" />
      <path d="m -8,120 c 9.7462188,10.07566 18.00314,6.89342 24,0 l -4,16 -28,-8 -4,-16 12,8 z" transform="matrix(0.9483145,-0.9483145,0.9483145,0.9483145,-6.4444639,0.531831)" clip-path="url(#clipPath4242)" id="path4196" style="fill:#ffa700;fill-opacity:1;fill-rule:evenodd;stroke:none;filter:url(#filter4238)" />
      <rect width="21.457907" height="1.1132338" x="-10.297462" y="100.16766" transform="matrix(0.7071068,-0.7071068,0.7071068,0.7071068,0,0)" id="rect4249" style="opacity:0.48689138;fill:#ffa500;fill-opacity:1;stroke:none" />
      <path d="m 72.972033,68.720893 2.920889,-2.920889 5.173922,5.173921 c -0.145696,0.590989 -0.244475,1.191361 0.512821,1.962943 l -2.506568,2.920891 C 78.372014,75.392484 77.997186,74.796708 78.21501,73.963871 l -5.242977,-5.242978 z" id="rect4320" style="opacity:0.83895126;fill:url(#linearGradient4346);fill-opacity:1;stroke:none" />
      <path d="m 4.6713727,129.88196 2.6102628,-0.382 c -0.035192,0.87091 -0.023162,1.30144 0.5622421,2.51127 l -2.7165477,0 c -0.3299416,-1.17586 -0.523736,-1.51524 -0.4559572,-2.12927 z" transform="matrix(0.7071068,-0.7071068,0.7071068,0.7071068,-4,-4)" id="rect4340" style="opacity:0.74531836;fill:url(#linearGradient4342);fill-opacity:1;stroke:none;filter:url(#filter4404)" />
      <rect width="10.644531" height="0.390625" x="-0.6434837" y="126.0467" transform="matrix(0.7071068,-0.7071068,0.7071068,0.7071068,0,0)" id="rect4432" style="fill:url(#radialGradient4440);fill-opacity:1;stroke:none" />
      <path d="M 83.597656,68.53125 68.753906,82.984375 C 84.820174,88.576948 78.33289,74.329762 83.597656,68.53125 z" id="path4454" style="fill:url(#linearGradient4471);fill-opacity:1;fill-rule:evenodd;stroke:none;filter:url(#filter4501)" />
      <path d="M 87.597656,72.53125 72.753906,86.984375 C 88.820174,92.576948 82.33289,78.329762 87.597656,72.53125 z" transform="matrix(-1,0,0,-1,169.63281,168.51104)" id="path4505" style="fill:url(#linearGradient4515);fill-opacity:1;fill-rule:evenodd;stroke:none;filter:url(#filter4501)" />
      <rect width="5.8558812" height="29.279404" rx="2.9279406" ry="2.9279406" x="-7.5001087" y="132.02951" transform="matrix(0.7071068,-0.7071068,0.7071068,0.7071068,0,0)" id="rect4517" style="opacity:0.83895126;fill:url(#linearGradient4525);fill-opacity:1;stroke:none" />
      <rect width="11.60097" height="1.1048541" rx="2.9279406" ry="0.5577029" x="-1.1929667" y="130.97287" transform="matrix(0.7071068,-0.7071068,0.7071068,0.7071068,-4,-4)" id="rect4527" style="opacity:0.83895126;fill:url(#linearGradient4537);fill-opacity:1;stroke:none;filter:url(#filter4551)" />
      <path d="m 13.83125,81.09375 -1.5,1.5 5.3125,5.3125 c 2.989229,0.420757 6.074319,1.793069 8.5625,4.28125 2.515957,2.515951 3.973574,5.635131 4.375,8.65625 l 25,25 c 4.210519,4.21053 13.365927,-2.61772 15.84375,-8.90625 -3.366394,5.60616 -11.079694,10.67031 -14.84375,6.90625 l -25,-25 c -0.401426,-3.021119 -1.859043,-6.140299 -4.375,-8.65625 -2.488181,-2.488181 -5.573271,-3.860493 -8.5625,-4.28125 l -4.8125,-4.8125 z" transform="translate(50.492188,-4.0046875)" clip-path="url(#clipPath4588)" id="path4559" style="fill:#996100;fill-opacity:1;stroke:none;filter:url(#filter4584)" />
      <rect width="10.644531" height="0.390625" x="-0.091056541" y="100.35886" transform="matrix(0.7071068,-0.7071068,0.7071068,0.7071068,0,0)" id="rect4596" style="opacity:0.576779;fill:url(#radialGradient4602);fill-opacity:1;stroke:none" />
      <rect width="12.602244" height="4.0530515" rx="0" ry="0" x="-1.1929667" y="129.5918" transform="matrix(0.7071068,-0.7071068,0.7071068,0.7071068,-21.221011,-22.313001)" clip-path="url(#clipPath4632)" id="rect4598" style="opacity:0.576779;fill:url(#linearGradient4604);fill-opacity:1;stroke:none;filter:url(#filter4626)" />
      <rect width="7.9066095" height="1.7051741" rx="0" ry="0" x="3.1573973" y="130.07516" transform="matrix(0.7071068,-0.7071068,0.7071068,0.7071068,-21.321011,-22.413001)" clip-path="url(#clipPath4632)" id="rect4638" style="opacity:0.576779;fill:url(#linearGradient4640);fill-opacity:1;stroke:none;filter:url(#filter4626)" />
      <path d="M 2.9032773,7.9724105 7.1391831,15.032254 C 18.678358,20.720438 19.246981,15.680572 15.610994,6.5604419 L 8.5511516,2.3245361 2.9032773,7.9724105 z" id="path6537" style="fill:url(#linearGradient6930);fill-opacity:1;stroke:none" />
      <rect width="5.8558812" height="29.279404" rx="2.9279406" ry="2.9279406" x="4.5207062" y="132.73663" transform="matrix(0.7071068,-0.7071068,0.7071068,0.7071068,0,0)" id="rect7696" style="opacity:0.83895126;fill:url(#linearGradient7698);fill-opacity:1;stroke:none" />
      <rect width="2.5833137" height="38.179485" x="0.94721299" y="126.14276" transform="matrix(0.7071068,-0.7071068,0.7071068,0.7071068,0,0)" id="rect4336" style="opacity:0.95131088;fill:url(#linearGradient4338);fill-opacity:1;stroke:none" />
    </g>
  </g>
</svg>